%
M48
M72
T01C0.01378
T02C0.03150
T03C0.03200
T04C0.03937
T05C0.04000
T06C0.07480
%
T01
X16600Y36600
X46600Y66600
X36600Y71600
X41600Y86600
X26600Y96600
X56600Y56600
X76600Y56600
X91600Y81600
X121600Y116600
X126600Y111600
X136600Y111600
X136600Y106600
X141600Y96600
X146600Y86600
X126600Y71600
X131600Y61600
X136600Y51600
X161600Y41600
X171600Y38726
X177899Y40301
X166600Y76600
X146600Y119289
X121600Y126600
X121600Y136600
X141600Y156600
X139100Y164100
X131600Y171600
X121600Y181600
X116600Y176600
X131600Y186600
X152988Y164100
X161600Y171600
X91600Y161600
X51600Y176600
X46600Y171600
X41600Y166600
X31600Y166600
X21600Y156600
X16600Y161600
X36600Y181600
T02
X165301Y161521
X168450Y166246
X171600Y161521
X174750Y166246
X177899Y161521
X186600Y39474
X186600Y31600
X186600Y23726
T03
X71600Y41600
X71600Y51600
X71600Y61600
X71600Y71600
X71600Y81600
X71600Y91600
X71600Y101600
X71600Y111600
X71600Y121600
X71600Y131600
X71600Y141600
X71600Y151600
X71600Y161600
X71600Y171600
X101600Y171600
X101600Y161600
X101600Y151600
X101600Y141600
X101600Y131600
X101600Y121600
X101600Y111600
X101600Y101600
X101600Y91600
X101600Y81600
X101600Y71600
X101600Y61600
X101600Y51600
X101600Y41600
T04
X186600Y15852
X186600Y47348
T05
X6600Y66600
X6600Y76600
X6600Y86600
X6600Y96600
X6600Y106600
X6600Y116600
X6600Y126600
X6600Y136600
X11600Y186600
X21600Y186600
X31600Y186600
X41600Y186600
X51600Y186600
X61600Y186600
X194100Y136600
X194100Y126600
X194100Y116600
X194100Y106600
X194100Y96600
X194100Y86600
X194100Y76600
X194100Y66600
T06
X157230Y181600
X185970Y181600
M30
