G75*
%MOIN*%
%OFA0B0*%
%FSLAX25Y25*%
%IPPOS*%
%LPD*%
%AMOC8*
5,1,8,0,0,1.08239X$1,22.5*
%
%ADD10C,0.00000*%
%ADD11R,0.04337X0.04731*%
%ADD12R,0.04731X0.04337*%
%ADD13C,0.05600*%
%ADD14R,0.03550X0.03550*%
%ADD15R,0.07093X0.03156*%
%ADD16R,0.06896X0.04337*%
%ADD17R,0.04337X0.06896*%
%ADD18R,0.03900X0.07350*%
%ADD19R,0.12800X0.07350*%
%ADD20C,0.05550*%
%ADD21C,0.11620*%
%ADD22C,0.07800*%
%ADD23C,0.07093*%
D10*
X0001600Y0009474D02*
X0001600Y0190576D01*
X0001602Y0190766D01*
X0001609Y0190956D01*
X0001621Y0191146D01*
X0001637Y0191336D01*
X0001657Y0191525D01*
X0001683Y0191714D01*
X0001712Y0191902D01*
X0001747Y0192089D01*
X0001786Y0192275D01*
X0001829Y0192460D01*
X0001877Y0192645D01*
X0001929Y0192828D01*
X0001985Y0193009D01*
X0002046Y0193189D01*
X0002112Y0193368D01*
X0002181Y0193545D01*
X0002255Y0193721D01*
X0002333Y0193894D01*
X0002416Y0194066D01*
X0002502Y0194235D01*
X0002592Y0194403D01*
X0002687Y0194568D01*
X0002785Y0194731D01*
X0002888Y0194891D01*
X0002994Y0195049D01*
X0003104Y0195204D01*
X0003217Y0195357D01*
X0003335Y0195507D01*
X0003456Y0195653D01*
X0003580Y0195797D01*
X0003708Y0195938D01*
X0003839Y0196076D01*
X0003974Y0196211D01*
X0004112Y0196342D01*
X0004253Y0196470D01*
X0004397Y0196594D01*
X0004543Y0196715D01*
X0004693Y0196833D01*
X0004846Y0196946D01*
X0005001Y0197056D01*
X0005159Y0197162D01*
X0005319Y0197265D01*
X0005482Y0197363D01*
X0005647Y0197458D01*
X0005815Y0197548D01*
X0005984Y0197634D01*
X0006156Y0197717D01*
X0006329Y0197795D01*
X0006505Y0197869D01*
X0006682Y0197938D01*
X0006861Y0198004D01*
X0007041Y0198065D01*
X0007222Y0198121D01*
X0007405Y0198173D01*
X0007590Y0198221D01*
X0007775Y0198264D01*
X0007961Y0198303D01*
X0008148Y0198338D01*
X0008336Y0198367D01*
X0008525Y0198393D01*
X0008714Y0198413D01*
X0008904Y0198429D01*
X0009094Y0198441D01*
X0009284Y0198448D01*
X0009474Y0198450D01*
X0190576Y0198450D01*
X0190766Y0198448D01*
X0190956Y0198441D01*
X0191146Y0198429D01*
X0191336Y0198413D01*
X0191525Y0198393D01*
X0191714Y0198367D01*
X0191902Y0198338D01*
X0192089Y0198303D01*
X0192275Y0198264D01*
X0192460Y0198221D01*
X0192645Y0198173D01*
X0192828Y0198121D01*
X0193009Y0198065D01*
X0193189Y0198004D01*
X0193368Y0197938D01*
X0193545Y0197869D01*
X0193721Y0197795D01*
X0193894Y0197717D01*
X0194066Y0197634D01*
X0194235Y0197548D01*
X0194403Y0197458D01*
X0194568Y0197363D01*
X0194731Y0197265D01*
X0194891Y0197162D01*
X0195049Y0197056D01*
X0195204Y0196946D01*
X0195357Y0196833D01*
X0195507Y0196715D01*
X0195653Y0196594D01*
X0195797Y0196470D01*
X0195938Y0196342D01*
X0196076Y0196211D01*
X0196211Y0196076D01*
X0196342Y0195938D01*
X0196470Y0195797D01*
X0196594Y0195653D01*
X0196715Y0195507D01*
X0196833Y0195357D01*
X0196946Y0195204D01*
X0197056Y0195049D01*
X0197162Y0194891D01*
X0197265Y0194731D01*
X0197363Y0194568D01*
X0197458Y0194403D01*
X0197548Y0194235D01*
X0197634Y0194066D01*
X0197717Y0193894D01*
X0197795Y0193721D01*
X0197869Y0193545D01*
X0197938Y0193368D01*
X0198004Y0193189D01*
X0198065Y0193009D01*
X0198121Y0192828D01*
X0198173Y0192645D01*
X0198221Y0192460D01*
X0198264Y0192275D01*
X0198303Y0192089D01*
X0198338Y0191902D01*
X0198367Y0191714D01*
X0198393Y0191525D01*
X0198413Y0191336D01*
X0198429Y0191146D01*
X0198441Y0190956D01*
X0198448Y0190766D01*
X0198450Y0190576D01*
X0198450Y0009474D01*
X0198448Y0009284D01*
X0198441Y0009094D01*
X0198429Y0008904D01*
X0198413Y0008714D01*
X0198393Y0008525D01*
X0198367Y0008336D01*
X0198338Y0008148D01*
X0198303Y0007961D01*
X0198264Y0007775D01*
X0198221Y0007590D01*
X0198173Y0007405D01*
X0198121Y0007222D01*
X0198065Y0007041D01*
X0198004Y0006861D01*
X0197938Y0006682D01*
X0197869Y0006505D01*
X0197795Y0006329D01*
X0197717Y0006156D01*
X0197634Y0005984D01*
X0197548Y0005815D01*
X0197458Y0005647D01*
X0197363Y0005482D01*
X0197265Y0005319D01*
X0197162Y0005159D01*
X0197056Y0005001D01*
X0196946Y0004846D01*
X0196833Y0004693D01*
X0196715Y0004543D01*
X0196594Y0004397D01*
X0196470Y0004253D01*
X0196342Y0004112D01*
X0196211Y0003974D01*
X0196076Y0003839D01*
X0195938Y0003708D01*
X0195797Y0003580D01*
X0195653Y0003456D01*
X0195507Y0003335D01*
X0195357Y0003217D01*
X0195204Y0003104D01*
X0195049Y0002994D01*
X0194891Y0002888D01*
X0194731Y0002785D01*
X0194568Y0002687D01*
X0194403Y0002592D01*
X0194235Y0002502D01*
X0194066Y0002416D01*
X0193894Y0002333D01*
X0193721Y0002255D01*
X0193545Y0002181D01*
X0193368Y0002112D01*
X0193189Y0002046D01*
X0193009Y0001985D01*
X0192828Y0001929D01*
X0192645Y0001877D01*
X0192460Y0001829D01*
X0192275Y0001786D01*
X0192089Y0001747D01*
X0191902Y0001712D01*
X0191714Y0001683D01*
X0191525Y0001657D01*
X0191336Y0001637D01*
X0191146Y0001621D01*
X0190956Y0001609D01*
X0190766Y0001602D01*
X0190576Y0001600D01*
X0009474Y0001600D01*
X0009284Y0001602D01*
X0009094Y0001609D01*
X0008904Y0001621D01*
X0008714Y0001637D01*
X0008525Y0001657D01*
X0008336Y0001683D01*
X0008148Y0001712D01*
X0007961Y0001747D01*
X0007775Y0001786D01*
X0007590Y0001829D01*
X0007405Y0001877D01*
X0007222Y0001929D01*
X0007041Y0001985D01*
X0006861Y0002046D01*
X0006682Y0002112D01*
X0006505Y0002181D01*
X0006329Y0002255D01*
X0006156Y0002333D01*
X0005984Y0002416D01*
X0005815Y0002502D01*
X0005647Y0002592D01*
X0005482Y0002687D01*
X0005319Y0002785D01*
X0005159Y0002888D01*
X0005001Y0002994D01*
X0004846Y0003104D01*
X0004693Y0003217D01*
X0004543Y0003335D01*
X0004397Y0003456D01*
X0004253Y0003580D01*
X0004112Y0003708D01*
X0003974Y0003839D01*
X0003839Y0003974D01*
X0003708Y0004112D01*
X0003580Y0004253D01*
X0003456Y0004397D01*
X0003335Y0004543D01*
X0003217Y0004693D01*
X0003104Y0004846D01*
X0002994Y0005001D01*
X0002888Y0005159D01*
X0002785Y0005319D01*
X0002687Y0005482D01*
X0002592Y0005647D01*
X0002502Y0005815D01*
X0002416Y0005984D01*
X0002333Y0006156D01*
X0002255Y0006329D01*
X0002181Y0006505D01*
X0002112Y0006682D01*
X0002046Y0006861D01*
X0001985Y0007041D01*
X0001929Y0007222D01*
X0001877Y0007405D01*
X0001829Y0007590D01*
X0001786Y0007775D01*
X0001747Y0007961D01*
X0001712Y0008148D01*
X0001683Y0008336D01*
X0001657Y0008525D01*
X0001637Y0008714D01*
X0001621Y0008904D01*
X0001609Y0009094D01*
X0001602Y0009284D01*
X0001600Y0009474D01*
D11*
X0056600Y0063254D03*
X0056600Y0069946D03*
X0068254Y0021600D03*
X0074946Y0021600D03*
X0116600Y0163254D03*
X0116600Y0169946D03*
X0138254Y0176600D03*
X0144946Y0176600D03*
X0039946Y0171600D03*
X0033254Y0171600D03*
D12*
X0113254Y0091600D03*
X0119946Y0091600D03*
X0153254Y0101600D03*
X0159946Y0101600D03*
X0159946Y0111600D03*
X0153254Y0111600D03*
X0016600Y0029946D03*
X0016600Y0023254D03*
D13*
X0069000Y0041600D02*
X0074200Y0041600D01*
X0074200Y0051600D02*
X0069000Y0051600D01*
X0069000Y0061600D02*
X0074200Y0061600D01*
X0074200Y0071600D02*
X0069000Y0071600D01*
X0069000Y0081600D02*
X0074200Y0081600D01*
X0074200Y0091600D02*
X0069000Y0091600D01*
X0069000Y0101600D02*
X0074200Y0101600D01*
X0074200Y0111600D02*
X0069000Y0111600D01*
X0069000Y0121600D02*
X0074200Y0121600D01*
X0074200Y0131600D02*
X0069000Y0131600D01*
X0069000Y0141600D02*
X0074200Y0141600D01*
X0074200Y0151600D02*
X0069000Y0151600D01*
X0069000Y0161600D02*
X0074200Y0161600D01*
X0074200Y0171600D02*
X0069000Y0171600D01*
X0099000Y0171600D02*
X0104200Y0171600D01*
X0104200Y0161600D02*
X0099000Y0161600D01*
X0099000Y0151600D02*
X0104200Y0151600D01*
X0104200Y0141600D02*
X0099000Y0141600D01*
X0099000Y0131600D02*
X0104200Y0131600D01*
X0104200Y0121600D02*
X0099000Y0121600D01*
X0099000Y0111600D02*
X0104200Y0111600D01*
X0104200Y0101600D02*
X0099000Y0101600D01*
X0099000Y0091600D02*
X0104200Y0091600D01*
X0104200Y0081600D02*
X0099000Y0081600D01*
X0099000Y0071600D02*
X0104200Y0071600D01*
X0104200Y0061600D02*
X0099000Y0061600D01*
X0099000Y0051600D02*
X0104200Y0051600D01*
X0104200Y0041600D02*
X0099000Y0041600D01*
D14*
X0074553Y0011600D03*
X0068647Y0011600D03*
X0138647Y0186600D03*
X0144553Y0186600D03*
D15*
X0056600Y0091324D03*
X0056600Y0086600D03*
X0056600Y0081876D03*
D16*
X0053805Y0024474D03*
X0053805Y0008726D03*
X0029395Y0008726D03*
X0029395Y0024474D03*
D17*
X0024474Y0149395D03*
X0008726Y0149395D03*
X0008726Y0173805D03*
X0024474Y0173805D03*
D18*
X0152500Y0124325D03*
X0161600Y0124325D03*
X0170700Y0124325D03*
D19*
X0161600Y0148875D03*
D20*
X0165301Y0161521D03*
X0168450Y0166246D03*
X0171600Y0161521D03*
X0174750Y0166246D03*
X0177899Y0161521D03*
X0186600Y0039474D03*
X0186600Y0031600D03*
X0186600Y0023726D03*
D21*
X0185970Y0181600D03*
X0157230Y0181600D03*
D22*
X0194100Y0136600D03*
X0194100Y0126600D03*
X0194100Y0116600D03*
X0194100Y0106600D03*
X0194100Y0096600D03*
X0194100Y0086600D03*
X0194100Y0076600D03*
X0194100Y0066600D03*
X0061600Y0186600D03*
X0051600Y0186600D03*
X0041600Y0186600D03*
X0031600Y0186600D03*
X0021600Y0186600D03*
X0011600Y0186600D03*
X0006600Y0136600D03*
X0006600Y0126600D03*
X0006600Y0116600D03*
X0006600Y0106600D03*
X0006600Y0096600D03*
X0006600Y0086600D03*
X0006600Y0076600D03*
X0006600Y0066600D03*
D23*
X0186600Y0047348D03*
X0186600Y0015852D03*
M02*
