G75*
%MOIN*%
%OFA0B0*%
%FSLAX25Y25*%
%IPPOS*%
%LPD*%
%AMOC8*
5,1,8,0,0,1.08239X$1,22.5*
%
%ADD10C,0.00000*%
%ADD11C,0.05000*%
%ADD12C,0.01200*%
%ADD13C,0.00500*%
D10*
X0001600Y0009474D02*
X0001600Y0190576D01*
X0001602Y0190766D01*
X0001609Y0190956D01*
X0001621Y0191146D01*
X0001637Y0191336D01*
X0001657Y0191525D01*
X0001683Y0191714D01*
X0001712Y0191902D01*
X0001747Y0192089D01*
X0001786Y0192275D01*
X0001829Y0192460D01*
X0001877Y0192645D01*
X0001929Y0192828D01*
X0001985Y0193009D01*
X0002046Y0193189D01*
X0002112Y0193368D01*
X0002181Y0193545D01*
X0002255Y0193721D01*
X0002333Y0193894D01*
X0002416Y0194066D01*
X0002502Y0194235D01*
X0002592Y0194403D01*
X0002687Y0194568D01*
X0002785Y0194731D01*
X0002888Y0194891D01*
X0002994Y0195049D01*
X0003104Y0195204D01*
X0003217Y0195357D01*
X0003335Y0195507D01*
X0003456Y0195653D01*
X0003580Y0195797D01*
X0003708Y0195938D01*
X0003839Y0196076D01*
X0003974Y0196211D01*
X0004112Y0196342D01*
X0004253Y0196470D01*
X0004397Y0196594D01*
X0004543Y0196715D01*
X0004693Y0196833D01*
X0004846Y0196946D01*
X0005001Y0197056D01*
X0005159Y0197162D01*
X0005319Y0197265D01*
X0005482Y0197363D01*
X0005647Y0197458D01*
X0005815Y0197548D01*
X0005984Y0197634D01*
X0006156Y0197717D01*
X0006329Y0197795D01*
X0006505Y0197869D01*
X0006682Y0197938D01*
X0006861Y0198004D01*
X0007041Y0198065D01*
X0007222Y0198121D01*
X0007405Y0198173D01*
X0007590Y0198221D01*
X0007775Y0198264D01*
X0007961Y0198303D01*
X0008148Y0198338D01*
X0008336Y0198367D01*
X0008525Y0198393D01*
X0008714Y0198413D01*
X0008904Y0198429D01*
X0009094Y0198441D01*
X0009284Y0198448D01*
X0009474Y0198450D01*
X0190576Y0198450D01*
X0190766Y0198448D01*
X0190956Y0198441D01*
X0191146Y0198429D01*
X0191336Y0198413D01*
X0191525Y0198393D01*
X0191714Y0198367D01*
X0191902Y0198338D01*
X0192089Y0198303D01*
X0192275Y0198264D01*
X0192460Y0198221D01*
X0192645Y0198173D01*
X0192828Y0198121D01*
X0193009Y0198065D01*
X0193189Y0198004D01*
X0193368Y0197938D01*
X0193545Y0197869D01*
X0193721Y0197795D01*
X0193894Y0197717D01*
X0194066Y0197634D01*
X0194235Y0197548D01*
X0194403Y0197458D01*
X0194568Y0197363D01*
X0194731Y0197265D01*
X0194891Y0197162D01*
X0195049Y0197056D01*
X0195204Y0196946D01*
X0195357Y0196833D01*
X0195507Y0196715D01*
X0195653Y0196594D01*
X0195797Y0196470D01*
X0195938Y0196342D01*
X0196076Y0196211D01*
X0196211Y0196076D01*
X0196342Y0195938D01*
X0196470Y0195797D01*
X0196594Y0195653D01*
X0196715Y0195507D01*
X0196833Y0195357D01*
X0196946Y0195204D01*
X0197056Y0195049D01*
X0197162Y0194891D01*
X0197265Y0194731D01*
X0197363Y0194568D01*
X0197458Y0194403D01*
X0197548Y0194235D01*
X0197634Y0194066D01*
X0197717Y0193894D01*
X0197795Y0193721D01*
X0197869Y0193545D01*
X0197938Y0193368D01*
X0198004Y0193189D01*
X0198065Y0193009D01*
X0198121Y0192828D01*
X0198173Y0192645D01*
X0198221Y0192460D01*
X0198264Y0192275D01*
X0198303Y0192089D01*
X0198338Y0191902D01*
X0198367Y0191714D01*
X0198393Y0191525D01*
X0198413Y0191336D01*
X0198429Y0191146D01*
X0198441Y0190956D01*
X0198448Y0190766D01*
X0198450Y0190576D01*
X0198450Y0009474D01*
X0198448Y0009284D01*
X0198441Y0009094D01*
X0198429Y0008904D01*
X0198413Y0008714D01*
X0198393Y0008525D01*
X0198367Y0008336D01*
X0198338Y0008148D01*
X0198303Y0007961D01*
X0198264Y0007775D01*
X0198221Y0007590D01*
X0198173Y0007405D01*
X0198121Y0007222D01*
X0198065Y0007041D01*
X0198004Y0006861D01*
X0197938Y0006682D01*
X0197869Y0006505D01*
X0197795Y0006329D01*
X0197717Y0006156D01*
X0197634Y0005984D01*
X0197548Y0005815D01*
X0197458Y0005647D01*
X0197363Y0005482D01*
X0197265Y0005319D01*
X0197162Y0005159D01*
X0197056Y0005001D01*
X0196946Y0004846D01*
X0196833Y0004693D01*
X0196715Y0004543D01*
X0196594Y0004397D01*
X0196470Y0004253D01*
X0196342Y0004112D01*
X0196211Y0003974D01*
X0196076Y0003839D01*
X0195938Y0003708D01*
X0195797Y0003580D01*
X0195653Y0003456D01*
X0195507Y0003335D01*
X0195357Y0003217D01*
X0195204Y0003104D01*
X0195049Y0002994D01*
X0194891Y0002888D01*
X0194731Y0002785D01*
X0194568Y0002687D01*
X0194403Y0002592D01*
X0194235Y0002502D01*
X0194066Y0002416D01*
X0193894Y0002333D01*
X0193721Y0002255D01*
X0193545Y0002181D01*
X0193368Y0002112D01*
X0193189Y0002046D01*
X0193009Y0001985D01*
X0192828Y0001929D01*
X0192645Y0001877D01*
X0192460Y0001829D01*
X0192275Y0001786D01*
X0192089Y0001747D01*
X0191902Y0001712D01*
X0191714Y0001683D01*
X0191525Y0001657D01*
X0191336Y0001637D01*
X0191146Y0001621D01*
X0190956Y0001609D01*
X0190766Y0001602D01*
X0190576Y0001600D01*
X0009474Y0001600D01*
X0009284Y0001602D01*
X0009094Y0001609D01*
X0008904Y0001621D01*
X0008714Y0001637D01*
X0008525Y0001657D01*
X0008336Y0001683D01*
X0008148Y0001712D01*
X0007961Y0001747D01*
X0007775Y0001786D01*
X0007590Y0001829D01*
X0007405Y0001877D01*
X0007222Y0001929D01*
X0007041Y0001985D01*
X0006861Y0002046D01*
X0006682Y0002112D01*
X0006505Y0002181D01*
X0006329Y0002255D01*
X0006156Y0002333D01*
X0005984Y0002416D01*
X0005815Y0002502D01*
X0005647Y0002592D01*
X0005482Y0002687D01*
X0005319Y0002785D01*
X0005159Y0002888D01*
X0005001Y0002994D01*
X0004846Y0003104D01*
X0004693Y0003217D01*
X0004543Y0003335D01*
X0004397Y0003456D01*
X0004253Y0003580D01*
X0004112Y0003708D01*
X0003974Y0003839D01*
X0003839Y0003974D01*
X0003708Y0004112D01*
X0003580Y0004253D01*
X0003456Y0004397D01*
X0003335Y0004543D01*
X0003217Y0004693D01*
X0003104Y0004846D01*
X0002994Y0005001D01*
X0002888Y0005159D01*
X0002785Y0005319D01*
X0002687Y0005482D01*
X0002592Y0005647D01*
X0002502Y0005815D01*
X0002416Y0005984D01*
X0002333Y0006156D01*
X0002255Y0006329D01*
X0002181Y0006505D01*
X0002112Y0006682D01*
X0002046Y0006861D01*
X0001985Y0007041D01*
X0001929Y0007222D01*
X0001877Y0007405D01*
X0001829Y0007590D01*
X0001786Y0007775D01*
X0001747Y0007961D01*
X0001712Y0008148D01*
X0001683Y0008336D01*
X0001657Y0008525D01*
X0001637Y0008714D01*
X0001621Y0008904D01*
X0001609Y0009094D01*
X0001602Y0009284D01*
X0001600Y0009474D01*
D11*
X0041100Y0019100D02*
X0041102Y0019163D01*
X0041108Y0019225D01*
X0041118Y0019287D01*
X0041131Y0019349D01*
X0041149Y0019409D01*
X0041170Y0019468D01*
X0041195Y0019526D01*
X0041224Y0019582D01*
X0041256Y0019636D01*
X0041291Y0019688D01*
X0041329Y0019737D01*
X0041371Y0019785D01*
X0041415Y0019829D01*
X0041463Y0019871D01*
X0041512Y0019909D01*
X0041564Y0019944D01*
X0041618Y0019976D01*
X0041674Y0020005D01*
X0041732Y0020030D01*
X0041791Y0020051D01*
X0041851Y0020069D01*
X0041913Y0020082D01*
X0041975Y0020092D01*
X0042037Y0020098D01*
X0042100Y0020100D01*
X0042163Y0020098D01*
X0042225Y0020092D01*
X0042287Y0020082D01*
X0042349Y0020069D01*
X0042409Y0020051D01*
X0042468Y0020030D01*
X0042526Y0020005D01*
X0042582Y0019976D01*
X0042636Y0019944D01*
X0042688Y0019909D01*
X0042737Y0019871D01*
X0042785Y0019829D01*
X0042829Y0019785D01*
X0042871Y0019737D01*
X0042909Y0019688D01*
X0042944Y0019636D01*
X0042976Y0019582D01*
X0043005Y0019526D01*
X0043030Y0019468D01*
X0043051Y0019409D01*
X0043069Y0019349D01*
X0043082Y0019287D01*
X0043092Y0019225D01*
X0043098Y0019163D01*
X0043100Y0019100D01*
X0043098Y0019037D01*
X0043092Y0018975D01*
X0043082Y0018913D01*
X0043069Y0018851D01*
X0043051Y0018791D01*
X0043030Y0018732D01*
X0043005Y0018674D01*
X0042976Y0018618D01*
X0042944Y0018564D01*
X0042909Y0018512D01*
X0042871Y0018463D01*
X0042829Y0018415D01*
X0042785Y0018371D01*
X0042737Y0018329D01*
X0042688Y0018291D01*
X0042636Y0018256D01*
X0042582Y0018224D01*
X0042526Y0018195D01*
X0042468Y0018170D01*
X0042409Y0018149D01*
X0042349Y0018131D01*
X0042287Y0018118D01*
X0042225Y0018108D01*
X0042163Y0018102D01*
X0042100Y0018100D01*
X0042037Y0018102D01*
X0041975Y0018108D01*
X0041913Y0018118D01*
X0041851Y0018131D01*
X0041791Y0018149D01*
X0041732Y0018170D01*
X0041674Y0018195D01*
X0041618Y0018224D01*
X0041564Y0018256D01*
X0041512Y0018291D01*
X0041463Y0018329D01*
X0041415Y0018371D01*
X0041371Y0018415D01*
X0041329Y0018463D01*
X0041291Y0018512D01*
X0041256Y0018564D01*
X0041224Y0018618D01*
X0041195Y0018674D01*
X0041170Y0018732D01*
X0041149Y0018791D01*
X0041131Y0018851D01*
X0041118Y0018913D01*
X0041108Y0018975D01*
X0041102Y0019037D01*
X0041100Y0019100D01*
X0056100Y0019100D02*
X0056102Y0019163D01*
X0056108Y0019225D01*
X0056118Y0019287D01*
X0056131Y0019349D01*
X0056149Y0019409D01*
X0056170Y0019468D01*
X0056195Y0019526D01*
X0056224Y0019582D01*
X0056256Y0019636D01*
X0056291Y0019688D01*
X0056329Y0019737D01*
X0056371Y0019785D01*
X0056415Y0019829D01*
X0056463Y0019871D01*
X0056512Y0019909D01*
X0056564Y0019944D01*
X0056618Y0019976D01*
X0056674Y0020005D01*
X0056732Y0020030D01*
X0056791Y0020051D01*
X0056851Y0020069D01*
X0056913Y0020082D01*
X0056975Y0020092D01*
X0057037Y0020098D01*
X0057100Y0020100D01*
X0057163Y0020098D01*
X0057225Y0020092D01*
X0057287Y0020082D01*
X0057349Y0020069D01*
X0057409Y0020051D01*
X0057468Y0020030D01*
X0057526Y0020005D01*
X0057582Y0019976D01*
X0057636Y0019944D01*
X0057688Y0019909D01*
X0057737Y0019871D01*
X0057785Y0019829D01*
X0057829Y0019785D01*
X0057871Y0019737D01*
X0057909Y0019688D01*
X0057944Y0019636D01*
X0057976Y0019582D01*
X0058005Y0019526D01*
X0058030Y0019468D01*
X0058051Y0019409D01*
X0058069Y0019349D01*
X0058082Y0019287D01*
X0058092Y0019225D01*
X0058098Y0019163D01*
X0058100Y0019100D01*
X0058098Y0019037D01*
X0058092Y0018975D01*
X0058082Y0018913D01*
X0058069Y0018851D01*
X0058051Y0018791D01*
X0058030Y0018732D01*
X0058005Y0018674D01*
X0057976Y0018618D01*
X0057944Y0018564D01*
X0057909Y0018512D01*
X0057871Y0018463D01*
X0057829Y0018415D01*
X0057785Y0018371D01*
X0057737Y0018329D01*
X0057688Y0018291D01*
X0057636Y0018256D01*
X0057582Y0018224D01*
X0057526Y0018195D01*
X0057468Y0018170D01*
X0057409Y0018149D01*
X0057349Y0018131D01*
X0057287Y0018118D01*
X0057225Y0018108D01*
X0057163Y0018102D01*
X0057100Y0018100D01*
X0057037Y0018102D01*
X0056975Y0018108D01*
X0056913Y0018118D01*
X0056851Y0018131D01*
X0056791Y0018149D01*
X0056732Y0018170D01*
X0056674Y0018195D01*
X0056618Y0018224D01*
X0056564Y0018256D01*
X0056512Y0018291D01*
X0056463Y0018329D01*
X0056415Y0018371D01*
X0056371Y0018415D01*
X0056329Y0018463D01*
X0056291Y0018512D01*
X0056256Y0018564D01*
X0056224Y0018618D01*
X0056195Y0018674D01*
X0056170Y0018732D01*
X0056149Y0018791D01*
X0056131Y0018851D01*
X0056118Y0018913D01*
X0056108Y0018975D01*
X0056102Y0019037D01*
X0056100Y0019100D01*
X0071100Y0019100D02*
X0071102Y0019163D01*
X0071108Y0019225D01*
X0071118Y0019287D01*
X0071131Y0019349D01*
X0071149Y0019409D01*
X0071170Y0019468D01*
X0071195Y0019526D01*
X0071224Y0019582D01*
X0071256Y0019636D01*
X0071291Y0019688D01*
X0071329Y0019737D01*
X0071371Y0019785D01*
X0071415Y0019829D01*
X0071463Y0019871D01*
X0071512Y0019909D01*
X0071564Y0019944D01*
X0071618Y0019976D01*
X0071674Y0020005D01*
X0071732Y0020030D01*
X0071791Y0020051D01*
X0071851Y0020069D01*
X0071913Y0020082D01*
X0071975Y0020092D01*
X0072037Y0020098D01*
X0072100Y0020100D01*
X0072163Y0020098D01*
X0072225Y0020092D01*
X0072287Y0020082D01*
X0072349Y0020069D01*
X0072409Y0020051D01*
X0072468Y0020030D01*
X0072526Y0020005D01*
X0072582Y0019976D01*
X0072636Y0019944D01*
X0072688Y0019909D01*
X0072737Y0019871D01*
X0072785Y0019829D01*
X0072829Y0019785D01*
X0072871Y0019737D01*
X0072909Y0019688D01*
X0072944Y0019636D01*
X0072976Y0019582D01*
X0073005Y0019526D01*
X0073030Y0019468D01*
X0073051Y0019409D01*
X0073069Y0019349D01*
X0073082Y0019287D01*
X0073092Y0019225D01*
X0073098Y0019163D01*
X0073100Y0019100D01*
X0073098Y0019037D01*
X0073092Y0018975D01*
X0073082Y0018913D01*
X0073069Y0018851D01*
X0073051Y0018791D01*
X0073030Y0018732D01*
X0073005Y0018674D01*
X0072976Y0018618D01*
X0072944Y0018564D01*
X0072909Y0018512D01*
X0072871Y0018463D01*
X0072829Y0018415D01*
X0072785Y0018371D01*
X0072737Y0018329D01*
X0072688Y0018291D01*
X0072636Y0018256D01*
X0072582Y0018224D01*
X0072526Y0018195D01*
X0072468Y0018170D01*
X0072409Y0018149D01*
X0072349Y0018131D01*
X0072287Y0018118D01*
X0072225Y0018108D01*
X0072163Y0018102D01*
X0072100Y0018100D01*
X0072037Y0018102D01*
X0071975Y0018108D01*
X0071913Y0018118D01*
X0071851Y0018131D01*
X0071791Y0018149D01*
X0071732Y0018170D01*
X0071674Y0018195D01*
X0071618Y0018224D01*
X0071564Y0018256D01*
X0071512Y0018291D01*
X0071463Y0018329D01*
X0071415Y0018371D01*
X0071371Y0018415D01*
X0071329Y0018463D01*
X0071291Y0018512D01*
X0071256Y0018564D01*
X0071224Y0018618D01*
X0071195Y0018674D01*
X0071170Y0018732D01*
X0071149Y0018791D01*
X0071131Y0018851D01*
X0071118Y0018913D01*
X0071108Y0018975D01*
X0071102Y0019037D01*
X0071100Y0019100D01*
X0086100Y0019100D02*
X0086102Y0019163D01*
X0086108Y0019225D01*
X0086118Y0019287D01*
X0086131Y0019349D01*
X0086149Y0019409D01*
X0086170Y0019468D01*
X0086195Y0019526D01*
X0086224Y0019582D01*
X0086256Y0019636D01*
X0086291Y0019688D01*
X0086329Y0019737D01*
X0086371Y0019785D01*
X0086415Y0019829D01*
X0086463Y0019871D01*
X0086512Y0019909D01*
X0086564Y0019944D01*
X0086618Y0019976D01*
X0086674Y0020005D01*
X0086732Y0020030D01*
X0086791Y0020051D01*
X0086851Y0020069D01*
X0086913Y0020082D01*
X0086975Y0020092D01*
X0087037Y0020098D01*
X0087100Y0020100D01*
X0087163Y0020098D01*
X0087225Y0020092D01*
X0087287Y0020082D01*
X0087349Y0020069D01*
X0087409Y0020051D01*
X0087468Y0020030D01*
X0087526Y0020005D01*
X0087582Y0019976D01*
X0087636Y0019944D01*
X0087688Y0019909D01*
X0087737Y0019871D01*
X0087785Y0019829D01*
X0087829Y0019785D01*
X0087871Y0019737D01*
X0087909Y0019688D01*
X0087944Y0019636D01*
X0087976Y0019582D01*
X0088005Y0019526D01*
X0088030Y0019468D01*
X0088051Y0019409D01*
X0088069Y0019349D01*
X0088082Y0019287D01*
X0088092Y0019225D01*
X0088098Y0019163D01*
X0088100Y0019100D01*
X0088098Y0019037D01*
X0088092Y0018975D01*
X0088082Y0018913D01*
X0088069Y0018851D01*
X0088051Y0018791D01*
X0088030Y0018732D01*
X0088005Y0018674D01*
X0087976Y0018618D01*
X0087944Y0018564D01*
X0087909Y0018512D01*
X0087871Y0018463D01*
X0087829Y0018415D01*
X0087785Y0018371D01*
X0087737Y0018329D01*
X0087688Y0018291D01*
X0087636Y0018256D01*
X0087582Y0018224D01*
X0087526Y0018195D01*
X0087468Y0018170D01*
X0087409Y0018149D01*
X0087349Y0018131D01*
X0087287Y0018118D01*
X0087225Y0018108D01*
X0087163Y0018102D01*
X0087100Y0018100D01*
X0087037Y0018102D01*
X0086975Y0018108D01*
X0086913Y0018118D01*
X0086851Y0018131D01*
X0086791Y0018149D01*
X0086732Y0018170D01*
X0086674Y0018195D01*
X0086618Y0018224D01*
X0086564Y0018256D01*
X0086512Y0018291D01*
X0086463Y0018329D01*
X0086415Y0018371D01*
X0086371Y0018415D01*
X0086329Y0018463D01*
X0086291Y0018512D01*
X0086256Y0018564D01*
X0086224Y0018618D01*
X0086195Y0018674D01*
X0086170Y0018732D01*
X0086149Y0018791D01*
X0086131Y0018851D01*
X0086118Y0018913D01*
X0086108Y0018975D01*
X0086102Y0019037D01*
X0086100Y0019100D01*
X0101100Y0019100D02*
X0101102Y0019163D01*
X0101108Y0019225D01*
X0101118Y0019287D01*
X0101131Y0019349D01*
X0101149Y0019409D01*
X0101170Y0019468D01*
X0101195Y0019526D01*
X0101224Y0019582D01*
X0101256Y0019636D01*
X0101291Y0019688D01*
X0101329Y0019737D01*
X0101371Y0019785D01*
X0101415Y0019829D01*
X0101463Y0019871D01*
X0101512Y0019909D01*
X0101564Y0019944D01*
X0101618Y0019976D01*
X0101674Y0020005D01*
X0101732Y0020030D01*
X0101791Y0020051D01*
X0101851Y0020069D01*
X0101913Y0020082D01*
X0101975Y0020092D01*
X0102037Y0020098D01*
X0102100Y0020100D01*
X0102163Y0020098D01*
X0102225Y0020092D01*
X0102287Y0020082D01*
X0102349Y0020069D01*
X0102409Y0020051D01*
X0102468Y0020030D01*
X0102526Y0020005D01*
X0102582Y0019976D01*
X0102636Y0019944D01*
X0102688Y0019909D01*
X0102737Y0019871D01*
X0102785Y0019829D01*
X0102829Y0019785D01*
X0102871Y0019737D01*
X0102909Y0019688D01*
X0102944Y0019636D01*
X0102976Y0019582D01*
X0103005Y0019526D01*
X0103030Y0019468D01*
X0103051Y0019409D01*
X0103069Y0019349D01*
X0103082Y0019287D01*
X0103092Y0019225D01*
X0103098Y0019163D01*
X0103100Y0019100D01*
X0103098Y0019037D01*
X0103092Y0018975D01*
X0103082Y0018913D01*
X0103069Y0018851D01*
X0103051Y0018791D01*
X0103030Y0018732D01*
X0103005Y0018674D01*
X0102976Y0018618D01*
X0102944Y0018564D01*
X0102909Y0018512D01*
X0102871Y0018463D01*
X0102829Y0018415D01*
X0102785Y0018371D01*
X0102737Y0018329D01*
X0102688Y0018291D01*
X0102636Y0018256D01*
X0102582Y0018224D01*
X0102526Y0018195D01*
X0102468Y0018170D01*
X0102409Y0018149D01*
X0102349Y0018131D01*
X0102287Y0018118D01*
X0102225Y0018108D01*
X0102163Y0018102D01*
X0102100Y0018100D01*
X0102037Y0018102D01*
X0101975Y0018108D01*
X0101913Y0018118D01*
X0101851Y0018131D01*
X0101791Y0018149D01*
X0101732Y0018170D01*
X0101674Y0018195D01*
X0101618Y0018224D01*
X0101564Y0018256D01*
X0101512Y0018291D01*
X0101463Y0018329D01*
X0101415Y0018371D01*
X0101371Y0018415D01*
X0101329Y0018463D01*
X0101291Y0018512D01*
X0101256Y0018564D01*
X0101224Y0018618D01*
X0101195Y0018674D01*
X0101170Y0018732D01*
X0101149Y0018791D01*
X0101131Y0018851D01*
X0101118Y0018913D01*
X0101108Y0018975D01*
X0101102Y0019037D01*
X0101100Y0019100D01*
X0116100Y0019100D02*
X0116102Y0019163D01*
X0116108Y0019225D01*
X0116118Y0019287D01*
X0116131Y0019349D01*
X0116149Y0019409D01*
X0116170Y0019468D01*
X0116195Y0019526D01*
X0116224Y0019582D01*
X0116256Y0019636D01*
X0116291Y0019688D01*
X0116329Y0019737D01*
X0116371Y0019785D01*
X0116415Y0019829D01*
X0116463Y0019871D01*
X0116512Y0019909D01*
X0116564Y0019944D01*
X0116618Y0019976D01*
X0116674Y0020005D01*
X0116732Y0020030D01*
X0116791Y0020051D01*
X0116851Y0020069D01*
X0116913Y0020082D01*
X0116975Y0020092D01*
X0117037Y0020098D01*
X0117100Y0020100D01*
X0117163Y0020098D01*
X0117225Y0020092D01*
X0117287Y0020082D01*
X0117349Y0020069D01*
X0117409Y0020051D01*
X0117468Y0020030D01*
X0117526Y0020005D01*
X0117582Y0019976D01*
X0117636Y0019944D01*
X0117688Y0019909D01*
X0117737Y0019871D01*
X0117785Y0019829D01*
X0117829Y0019785D01*
X0117871Y0019737D01*
X0117909Y0019688D01*
X0117944Y0019636D01*
X0117976Y0019582D01*
X0118005Y0019526D01*
X0118030Y0019468D01*
X0118051Y0019409D01*
X0118069Y0019349D01*
X0118082Y0019287D01*
X0118092Y0019225D01*
X0118098Y0019163D01*
X0118100Y0019100D01*
X0118098Y0019037D01*
X0118092Y0018975D01*
X0118082Y0018913D01*
X0118069Y0018851D01*
X0118051Y0018791D01*
X0118030Y0018732D01*
X0118005Y0018674D01*
X0117976Y0018618D01*
X0117944Y0018564D01*
X0117909Y0018512D01*
X0117871Y0018463D01*
X0117829Y0018415D01*
X0117785Y0018371D01*
X0117737Y0018329D01*
X0117688Y0018291D01*
X0117636Y0018256D01*
X0117582Y0018224D01*
X0117526Y0018195D01*
X0117468Y0018170D01*
X0117409Y0018149D01*
X0117349Y0018131D01*
X0117287Y0018118D01*
X0117225Y0018108D01*
X0117163Y0018102D01*
X0117100Y0018100D01*
X0117037Y0018102D01*
X0116975Y0018108D01*
X0116913Y0018118D01*
X0116851Y0018131D01*
X0116791Y0018149D01*
X0116732Y0018170D01*
X0116674Y0018195D01*
X0116618Y0018224D01*
X0116564Y0018256D01*
X0116512Y0018291D01*
X0116463Y0018329D01*
X0116415Y0018371D01*
X0116371Y0018415D01*
X0116329Y0018463D01*
X0116291Y0018512D01*
X0116256Y0018564D01*
X0116224Y0018618D01*
X0116195Y0018674D01*
X0116170Y0018732D01*
X0116149Y0018791D01*
X0116131Y0018851D01*
X0116118Y0018913D01*
X0116108Y0018975D01*
X0116102Y0019037D01*
X0116100Y0019100D01*
X0131100Y0019100D02*
X0131102Y0019163D01*
X0131108Y0019225D01*
X0131118Y0019287D01*
X0131131Y0019349D01*
X0131149Y0019409D01*
X0131170Y0019468D01*
X0131195Y0019526D01*
X0131224Y0019582D01*
X0131256Y0019636D01*
X0131291Y0019688D01*
X0131329Y0019737D01*
X0131371Y0019785D01*
X0131415Y0019829D01*
X0131463Y0019871D01*
X0131512Y0019909D01*
X0131564Y0019944D01*
X0131618Y0019976D01*
X0131674Y0020005D01*
X0131732Y0020030D01*
X0131791Y0020051D01*
X0131851Y0020069D01*
X0131913Y0020082D01*
X0131975Y0020092D01*
X0132037Y0020098D01*
X0132100Y0020100D01*
X0132163Y0020098D01*
X0132225Y0020092D01*
X0132287Y0020082D01*
X0132349Y0020069D01*
X0132409Y0020051D01*
X0132468Y0020030D01*
X0132526Y0020005D01*
X0132582Y0019976D01*
X0132636Y0019944D01*
X0132688Y0019909D01*
X0132737Y0019871D01*
X0132785Y0019829D01*
X0132829Y0019785D01*
X0132871Y0019737D01*
X0132909Y0019688D01*
X0132944Y0019636D01*
X0132976Y0019582D01*
X0133005Y0019526D01*
X0133030Y0019468D01*
X0133051Y0019409D01*
X0133069Y0019349D01*
X0133082Y0019287D01*
X0133092Y0019225D01*
X0133098Y0019163D01*
X0133100Y0019100D01*
X0133098Y0019037D01*
X0133092Y0018975D01*
X0133082Y0018913D01*
X0133069Y0018851D01*
X0133051Y0018791D01*
X0133030Y0018732D01*
X0133005Y0018674D01*
X0132976Y0018618D01*
X0132944Y0018564D01*
X0132909Y0018512D01*
X0132871Y0018463D01*
X0132829Y0018415D01*
X0132785Y0018371D01*
X0132737Y0018329D01*
X0132688Y0018291D01*
X0132636Y0018256D01*
X0132582Y0018224D01*
X0132526Y0018195D01*
X0132468Y0018170D01*
X0132409Y0018149D01*
X0132349Y0018131D01*
X0132287Y0018118D01*
X0132225Y0018108D01*
X0132163Y0018102D01*
X0132100Y0018100D01*
X0132037Y0018102D01*
X0131975Y0018108D01*
X0131913Y0018118D01*
X0131851Y0018131D01*
X0131791Y0018149D01*
X0131732Y0018170D01*
X0131674Y0018195D01*
X0131618Y0018224D01*
X0131564Y0018256D01*
X0131512Y0018291D01*
X0131463Y0018329D01*
X0131415Y0018371D01*
X0131371Y0018415D01*
X0131329Y0018463D01*
X0131291Y0018512D01*
X0131256Y0018564D01*
X0131224Y0018618D01*
X0131195Y0018674D01*
X0131170Y0018732D01*
X0131149Y0018791D01*
X0131131Y0018851D01*
X0131118Y0018913D01*
X0131108Y0018975D01*
X0131102Y0019037D01*
X0131100Y0019100D01*
X0146100Y0019100D02*
X0146102Y0019163D01*
X0146108Y0019225D01*
X0146118Y0019287D01*
X0146131Y0019349D01*
X0146149Y0019409D01*
X0146170Y0019468D01*
X0146195Y0019526D01*
X0146224Y0019582D01*
X0146256Y0019636D01*
X0146291Y0019688D01*
X0146329Y0019737D01*
X0146371Y0019785D01*
X0146415Y0019829D01*
X0146463Y0019871D01*
X0146512Y0019909D01*
X0146564Y0019944D01*
X0146618Y0019976D01*
X0146674Y0020005D01*
X0146732Y0020030D01*
X0146791Y0020051D01*
X0146851Y0020069D01*
X0146913Y0020082D01*
X0146975Y0020092D01*
X0147037Y0020098D01*
X0147100Y0020100D01*
X0147163Y0020098D01*
X0147225Y0020092D01*
X0147287Y0020082D01*
X0147349Y0020069D01*
X0147409Y0020051D01*
X0147468Y0020030D01*
X0147526Y0020005D01*
X0147582Y0019976D01*
X0147636Y0019944D01*
X0147688Y0019909D01*
X0147737Y0019871D01*
X0147785Y0019829D01*
X0147829Y0019785D01*
X0147871Y0019737D01*
X0147909Y0019688D01*
X0147944Y0019636D01*
X0147976Y0019582D01*
X0148005Y0019526D01*
X0148030Y0019468D01*
X0148051Y0019409D01*
X0148069Y0019349D01*
X0148082Y0019287D01*
X0148092Y0019225D01*
X0148098Y0019163D01*
X0148100Y0019100D01*
X0148098Y0019037D01*
X0148092Y0018975D01*
X0148082Y0018913D01*
X0148069Y0018851D01*
X0148051Y0018791D01*
X0148030Y0018732D01*
X0148005Y0018674D01*
X0147976Y0018618D01*
X0147944Y0018564D01*
X0147909Y0018512D01*
X0147871Y0018463D01*
X0147829Y0018415D01*
X0147785Y0018371D01*
X0147737Y0018329D01*
X0147688Y0018291D01*
X0147636Y0018256D01*
X0147582Y0018224D01*
X0147526Y0018195D01*
X0147468Y0018170D01*
X0147409Y0018149D01*
X0147349Y0018131D01*
X0147287Y0018118D01*
X0147225Y0018108D01*
X0147163Y0018102D01*
X0147100Y0018100D01*
X0147037Y0018102D01*
X0146975Y0018108D01*
X0146913Y0018118D01*
X0146851Y0018131D01*
X0146791Y0018149D01*
X0146732Y0018170D01*
X0146674Y0018195D01*
X0146618Y0018224D01*
X0146564Y0018256D01*
X0146512Y0018291D01*
X0146463Y0018329D01*
X0146415Y0018371D01*
X0146371Y0018415D01*
X0146329Y0018463D01*
X0146291Y0018512D01*
X0146256Y0018564D01*
X0146224Y0018618D01*
X0146195Y0018674D01*
X0146170Y0018732D01*
X0146149Y0018791D01*
X0146131Y0018851D01*
X0146118Y0018913D01*
X0146108Y0018975D01*
X0146102Y0019037D01*
X0146100Y0019100D01*
X0161100Y0019100D02*
X0161102Y0019163D01*
X0161108Y0019225D01*
X0161118Y0019287D01*
X0161131Y0019349D01*
X0161149Y0019409D01*
X0161170Y0019468D01*
X0161195Y0019526D01*
X0161224Y0019582D01*
X0161256Y0019636D01*
X0161291Y0019688D01*
X0161329Y0019737D01*
X0161371Y0019785D01*
X0161415Y0019829D01*
X0161463Y0019871D01*
X0161512Y0019909D01*
X0161564Y0019944D01*
X0161618Y0019976D01*
X0161674Y0020005D01*
X0161732Y0020030D01*
X0161791Y0020051D01*
X0161851Y0020069D01*
X0161913Y0020082D01*
X0161975Y0020092D01*
X0162037Y0020098D01*
X0162100Y0020100D01*
X0162163Y0020098D01*
X0162225Y0020092D01*
X0162287Y0020082D01*
X0162349Y0020069D01*
X0162409Y0020051D01*
X0162468Y0020030D01*
X0162526Y0020005D01*
X0162582Y0019976D01*
X0162636Y0019944D01*
X0162688Y0019909D01*
X0162737Y0019871D01*
X0162785Y0019829D01*
X0162829Y0019785D01*
X0162871Y0019737D01*
X0162909Y0019688D01*
X0162944Y0019636D01*
X0162976Y0019582D01*
X0163005Y0019526D01*
X0163030Y0019468D01*
X0163051Y0019409D01*
X0163069Y0019349D01*
X0163082Y0019287D01*
X0163092Y0019225D01*
X0163098Y0019163D01*
X0163100Y0019100D01*
X0163098Y0019037D01*
X0163092Y0018975D01*
X0163082Y0018913D01*
X0163069Y0018851D01*
X0163051Y0018791D01*
X0163030Y0018732D01*
X0163005Y0018674D01*
X0162976Y0018618D01*
X0162944Y0018564D01*
X0162909Y0018512D01*
X0162871Y0018463D01*
X0162829Y0018415D01*
X0162785Y0018371D01*
X0162737Y0018329D01*
X0162688Y0018291D01*
X0162636Y0018256D01*
X0162582Y0018224D01*
X0162526Y0018195D01*
X0162468Y0018170D01*
X0162409Y0018149D01*
X0162349Y0018131D01*
X0162287Y0018118D01*
X0162225Y0018108D01*
X0162163Y0018102D01*
X0162100Y0018100D01*
X0162037Y0018102D01*
X0161975Y0018108D01*
X0161913Y0018118D01*
X0161851Y0018131D01*
X0161791Y0018149D01*
X0161732Y0018170D01*
X0161674Y0018195D01*
X0161618Y0018224D01*
X0161564Y0018256D01*
X0161512Y0018291D01*
X0161463Y0018329D01*
X0161415Y0018371D01*
X0161371Y0018415D01*
X0161329Y0018463D01*
X0161291Y0018512D01*
X0161256Y0018564D01*
X0161224Y0018618D01*
X0161195Y0018674D01*
X0161170Y0018732D01*
X0161149Y0018791D01*
X0161131Y0018851D01*
X0161118Y0018913D01*
X0161108Y0018975D01*
X0161102Y0019037D01*
X0161100Y0019100D01*
X0176100Y0019100D02*
X0176102Y0019163D01*
X0176108Y0019225D01*
X0176118Y0019287D01*
X0176131Y0019349D01*
X0176149Y0019409D01*
X0176170Y0019468D01*
X0176195Y0019526D01*
X0176224Y0019582D01*
X0176256Y0019636D01*
X0176291Y0019688D01*
X0176329Y0019737D01*
X0176371Y0019785D01*
X0176415Y0019829D01*
X0176463Y0019871D01*
X0176512Y0019909D01*
X0176564Y0019944D01*
X0176618Y0019976D01*
X0176674Y0020005D01*
X0176732Y0020030D01*
X0176791Y0020051D01*
X0176851Y0020069D01*
X0176913Y0020082D01*
X0176975Y0020092D01*
X0177037Y0020098D01*
X0177100Y0020100D01*
X0177163Y0020098D01*
X0177225Y0020092D01*
X0177287Y0020082D01*
X0177349Y0020069D01*
X0177409Y0020051D01*
X0177468Y0020030D01*
X0177526Y0020005D01*
X0177582Y0019976D01*
X0177636Y0019944D01*
X0177688Y0019909D01*
X0177737Y0019871D01*
X0177785Y0019829D01*
X0177829Y0019785D01*
X0177871Y0019737D01*
X0177909Y0019688D01*
X0177944Y0019636D01*
X0177976Y0019582D01*
X0178005Y0019526D01*
X0178030Y0019468D01*
X0178051Y0019409D01*
X0178069Y0019349D01*
X0178082Y0019287D01*
X0178092Y0019225D01*
X0178098Y0019163D01*
X0178100Y0019100D01*
X0178098Y0019037D01*
X0178092Y0018975D01*
X0178082Y0018913D01*
X0178069Y0018851D01*
X0178051Y0018791D01*
X0178030Y0018732D01*
X0178005Y0018674D01*
X0177976Y0018618D01*
X0177944Y0018564D01*
X0177909Y0018512D01*
X0177871Y0018463D01*
X0177829Y0018415D01*
X0177785Y0018371D01*
X0177737Y0018329D01*
X0177688Y0018291D01*
X0177636Y0018256D01*
X0177582Y0018224D01*
X0177526Y0018195D01*
X0177468Y0018170D01*
X0177409Y0018149D01*
X0177349Y0018131D01*
X0177287Y0018118D01*
X0177225Y0018108D01*
X0177163Y0018102D01*
X0177100Y0018100D01*
X0177037Y0018102D01*
X0176975Y0018108D01*
X0176913Y0018118D01*
X0176851Y0018131D01*
X0176791Y0018149D01*
X0176732Y0018170D01*
X0176674Y0018195D01*
X0176618Y0018224D01*
X0176564Y0018256D01*
X0176512Y0018291D01*
X0176463Y0018329D01*
X0176415Y0018371D01*
X0176371Y0018415D01*
X0176329Y0018463D01*
X0176291Y0018512D01*
X0176256Y0018564D01*
X0176224Y0018618D01*
X0176195Y0018674D01*
X0176170Y0018732D01*
X0176149Y0018791D01*
X0176131Y0018851D01*
X0176118Y0018913D01*
X0176108Y0018975D01*
X0176102Y0019037D01*
X0176100Y0019100D01*
D12*
X0031100Y0009100D02*
X0020600Y0020600D01*
X0030600Y0031100D01*
X0030323Y0031327D01*
X0030039Y0031547D01*
X0029751Y0031760D01*
X0029457Y0031967D01*
X0029159Y0032166D01*
X0028855Y0032357D01*
X0028547Y0032541D01*
X0028235Y0032718D01*
X0027918Y0032886D01*
X0027597Y0033047D01*
X0027273Y0033200D01*
X0026944Y0033345D01*
X0026613Y0033482D01*
X0026278Y0033611D01*
X0025940Y0033732D01*
X0025599Y0033844D01*
X0025255Y0033948D01*
X0024909Y0034043D01*
X0024561Y0034130D01*
X0024211Y0034208D01*
X0023859Y0034278D01*
X0023505Y0034339D01*
X0023150Y0034391D01*
X0022794Y0034435D01*
X0022437Y0034470D01*
X0022079Y0034496D01*
X0021721Y0034513D01*
X0021362Y0034522D01*
X0021003Y0034522D01*
X0020644Y0034513D01*
X0020286Y0034495D01*
X0019928Y0034468D01*
X0019571Y0034433D01*
X0019215Y0034389D01*
X0018860Y0034336D01*
X0018506Y0034275D01*
X0018155Y0034205D01*
X0017804Y0034126D01*
X0017456Y0034039D01*
X0017111Y0033943D01*
X0016767Y0033839D01*
X0016426Y0033726D01*
X0016089Y0033605D01*
X0015754Y0033476D01*
X0015422Y0033339D01*
X0015094Y0033193D01*
X0014770Y0033040D01*
X0014449Y0032879D01*
X0014133Y0032710D01*
X0013820Y0032533D01*
X0013513Y0032348D01*
X0013209Y0032156D01*
X0012911Y0031957D01*
X0012618Y0031751D01*
X0012329Y0031537D01*
X0012046Y0031316D01*
X0011769Y0031089D01*
X0011497Y0030855D01*
X0011231Y0030614D01*
X0010971Y0030366D01*
X0010717Y0030113D01*
X0010469Y0029853D01*
X0010228Y0029587D01*
X0009994Y0029316D01*
X0009766Y0029039D01*
X0009545Y0028756D01*
X0009331Y0028468D01*
X0009124Y0028175D01*
X0008924Y0027876D01*
X0008732Y0027573D01*
X0008547Y0027266D01*
X0008370Y0026954D01*
X0008200Y0026638D01*
X0008039Y0026317D01*
X0007885Y0025993D01*
X0007739Y0025665D01*
X0007601Y0025334D01*
X0007472Y0024999D01*
X0007351Y0024661D01*
X0007238Y0024321D01*
X0007133Y0023977D01*
X0007037Y0023632D01*
X0006949Y0023284D01*
X0006870Y0022934D01*
X0006799Y0022582D01*
X0006738Y0022228D01*
X0006684Y0021874D01*
X0006640Y0021518D01*
X0006604Y0021160D01*
X0006577Y0020803D01*
X0006559Y0020444D01*
X0006549Y0020086D01*
X0006549Y0019727D01*
X0006557Y0019368D01*
X0006574Y0019009D01*
X0006600Y0018652D01*
X0006634Y0018294D01*
X0006677Y0017938D01*
X0006729Y0017583D01*
X0006790Y0017229D01*
X0006859Y0016877D01*
X0006937Y0016527D01*
X0007023Y0016179D01*
X0007118Y0015833D01*
X0007222Y0015489D01*
X0007334Y0015148D01*
X0007454Y0014810D01*
X0007582Y0014475D01*
X0007719Y0014143D01*
X0007863Y0013815D01*
X0008016Y0013490D01*
X0008176Y0013169D01*
X0008345Y0012852D01*
X0008521Y0012539D01*
X0008705Y0012231D01*
X0008896Y0011927D01*
X0009094Y0011628D01*
X0009300Y0011334D01*
X0009513Y0011046D01*
X0009733Y0010762D01*
X0009960Y0010484D01*
X0010194Y0010212D01*
X0010434Y0009945D01*
X0010681Y0009685D01*
X0010933Y0009430D01*
X0011193Y0009182D01*
X0011458Y0008940D01*
X0011729Y0008705D01*
X0012005Y0008476D01*
X0012288Y0008255D01*
X0012575Y0008040D01*
X0012868Y0007832D01*
X0013166Y0007632D01*
X0013468Y0007439D01*
X0013775Y0007254D01*
X0014087Y0007076D01*
X0014403Y0006905D01*
X0014723Y0006743D01*
X0015047Y0006588D01*
X0015374Y0006442D01*
X0015705Y0006303D01*
X0016040Y0006173D01*
X0016377Y0006051D01*
X0016717Y0005937D01*
X0017060Y0005832D01*
X0017406Y0005735D01*
X0017754Y0005646D01*
X0018103Y0005566D01*
X0018455Y0005495D01*
X0018808Y0005432D01*
X0019163Y0005378D01*
X0019519Y0005333D01*
X0019876Y0005296D01*
X0020234Y0005268D01*
X0020592Y0005249D01*
X0020951Y0005239D01*
X0021310Y0005237D01*
X0021669Y0005245D01*
X0022027Y0005261D01*
X0022385Y0005286D01*
X0022742Y0005319D01*
X0023099Y0005362D01*
X0023454Y0005413D01*
X0023808Y0005473D01*
X0024160Y0005541D01*
X0024510Y0005618D01*
X0024859Y0005704D01*
X0025205Y0005798D01*
X0025549Y0005901D01*
X0025890Y0006012D01*
X0026229Y0006131D01*
X0026564Y0006258D01*
X0026896Y0006394D01*
X0027225Y0006538D01*
X0027550Y0006690D01*
X0027871Y0006850D01*
X0028189Y0007017D01*
X0028502Y0007193D01*
X0028811Y0007376D01*
X0029115Y0007566D01*
X0029414Y0007764D01*
X0029708Y0007969D01*
X0029998Y0008181D01*
X0030282Y0008401D01*
X0030560Y0008627D01*
X0030833Y0008860D01*
X0031100Y0009099D01*
D13*
X0156246Y0160931D02*
X0156246Y0196364D01*
X0186954Y0196364D01*
X0186954Y0160931D01*
X0156246Y0160931D01*
X0168647Y0174710D02*
X0166679Y0194395D01*
X0163726Y0194395D02*
X0165694Y0176679D01*
X0168647Y0174710D02*
X0174553Y0174710D01*
X0176521Y0194395D01*
X0179474Y0194395D02*
X0177506Y0178647D01*
X0185380Y0178647D02*
X0183411Y0194395D01*
X0179474Y0194395D01*
X0163726Y0194395D02*
X0159789Y0194395D01*
X0157820Y0176679D01*
M02*
