G75*
%MOIN*%
%OFA0B0*%
%FSLAX25Y25*%
%IPPOS*%
%LPD*%
%AMOC8*
5,1,8,0,0,1.08239X$1,22.5*
%
%ADD10C,0.00000*%
%ADD11R,0.03937X0.04331*%
%ADD12R,0.04331X0.03937*%
%ADD13C,0.05200*%
%ADD14R,0.03150X0.03150*%
%ADD15R,0.06693X0.02756*%
%ADD16R,0.06496X0.03937*%
%ADD17R,0.03937X0.06496*%
%ADD18R,0.03500X0.06950*%
%ADD19R,0.12400X0.06950*%
%ADD20C,0.05150*%
%ADD21C,0.11220*%
%ADD22C,0.07400*%
%ADD23C,0.06693*%
%ADD24C,0.01200*%
%ADD25C,0.02578*%
%ADD26C,0.00600*%
%ADD27C,0.02400*%
D10*
X0001600Y0009474D02*
X0001600Y0190576D01*
X0001602Y0190766D01*
X0001609Y0190956D01*
X0001621Y0191146D01*
X0001637Y0191336D01*
X0001657Y0191525D01*
X0001683Y0191714D01*
X0001712Y0191902D01*
X0001747Y0192089D01*
X0001786Y0192275D01*
X0001829Y0192460D01*
X0001877Y0192645D01*
X0001929Y0192828D01*
X0001985Y0193009D01*
X0002046Y0193189D01*
X0002112Y0193368D01*
X0002181Y0193545D01*
X0002255Y0193721D01*
X0002333Y0193894D01*
X0002416Y0194066D01*
X0002502Y0194235D01*
X0002592Y0194403D01*
X0002687Y0194568D01*
X0002785Y0194731D01*
X0002888Y0194891D01*
X0002994Y0195049D01*
X0003104Y0195204D01*
X0003217Y0195357D01*
X0003335Y0195507D01*
X0003456Y0195653D01*
X0003580Y0195797D01*
X0003708Y0195938D01*
X0003839Y0196076D01*
X0003974Y0196211D01*
X0004112Y0196342D01*
X0004253Y0196470D01*
X0004397Y0196594D01*
X0004543Y0196715D01*
X0004693Y0196833D01*
X0004846Y0196946D01*
X0005001Y0197056D01*
X0005159Y0197162D01*
X0005319Y0197265D01*
X0005482Y0197363D01*
X0005647Y0197458D01*
X0005815Y0197548D01*
X0005984Y0197634D01*
X0006156Y0197717D01*
X0006329Y0197795D01*
X0006505Y0197869D01*
X0006682Y0197938D01*
X0006861Y0198004D01*
X0007041Y0198065D01*
X0007222Y0198121D01*
X0007405Y0198173D01*
X0007590Y0198221D01*
X0007775Y0198264D01*
X0007961Y0198303D01*
X0008148Y0198338D01*
X0008336Y0198367D01*
X0008525Y0198393D01*
X0008714Y0198413D01*
X0008904Y0198429D01*
X0009094Y0198441D01*
X0009284Y0198448D01*
X0009474Y0198450D01*
X0190576Y0198450D01*
X0190766Y0198448D01*
X0190956Y0198441D01*
X0191146Y0198429D01*
X0191336Y0198413D01*
X0191525Y0198393D01*
X0191714Y0198367D01*
X0191902Y0198338D01*
X0192089Y0198303D01*
X0192275Y0198264D01*
X0192460Y0198221D01*
X0192645Y0198173D01*
X0192828Y0198121D01*
X0193009Y0198065D01*
X0193189Y0198004D01*
X0193368Y0197938D01*
X0193545Y0197869D01*
X0193721Y0197795D01*
X0193894Y0197717D01*
X0194066Y0197634D01*
X0194235Y0197548D01*
X0194403Y0197458D01*
X0194568Y0197363D01*
X0194731Y0197265D01*
X0194891Y0197162D01*
X0195049Y0197056D01*
X0195204Y0196946D01*
X0195357Y0196833D01*
X0195507Y0196715D01*
X0195653Y0196594D01*
X0195797Y0196470D01*
X0195938Y0196342D01*
X0196076Y0196211D01*
X0196211Y0196076D01*
X0196342Y0195938D01*
X0196470Y0195797D01*
X0196594Y0195653D01*
X0196715Y0195507D01*
X0196833Y0195357D01*
X0196946Y0195204D01*
X0197056Y0195049D01*
X0197162Y0194891D01*
X0197265Y0194731D01*
X0197363Y0194568D01*
X0197458Y0194403D01*
X0197548Y0194235D01*
X0197634Y0194066D01*
X0197717Y0193894D01*
X0197795Y0193721D01*
X0197869Y0193545D01*
X0197938Y0193368D01*
X0198004Y0193189D01*
X0198065Y0193009D01*
X0198121Y0192828D01*
X0198173Y0192645D01*
X0198221Y0192460D01*
X0198264Y0192275D01*
X0198303Y0192089D01*
X0198338Y0191902D01*
X0198367Y0191714D01*
X0198393Y0191525D01*
X0198413Y0191336D01*
X0198429Y0191146D01*
X0198441Y0190956D01*
X0198448Y0190766D01*
X0198450Y0190576D01*
X0198450Y0009474D01*
X0198448Y0009284D01*
X0198441Y0009094D01*
X0198429Y0008904D01*
X0198413Y0008714D01*
X0198393Y0008525D01*
X0198367Y0008336D01*
X0198338Y0008148D01*
X0198303Y0007961D01*
X0198264Y0007775D01*
X0198221Y0007590D01*
X0198173Y0007405D01*
X0198121Y0007222D01*
X0198065Y0007041D01*
X0198004Y0006861D01*
X0197938Y0006682D01*
X0197869Y0006505D01*
X0197795Y0006329D01*
X0197717Y0006156D01*
X0197634Y0005984D01*
X0197548Y0005815D01*
X0197458Y0005647D01*
X0197363Y0005482D01*
X0197265Y0005319D01*
X0197162Y0005159D01*
X0197056Y0005001D01*
X0196946Y0004846D01*
X0196833Y0004693D01*
X0196715Y0004543D01*
X0196594Y0004397D01*
X0196470Y0004253D01*
X0196342Y0004112D01*
X0196211Y0003974D01*
X0196076Y0003839D01*
X0195938Y0003708D01*
X0195797Y0003580D01*
X0195653Y0003456D01*
X0195507Y0003335D01*
X0195357Y0003217D01*
X0195204Y0003104D01*
X0195049Y0002994D01*
X0194891Y0002888D01*
X0194731Y0002785D01*
X0194568Y0002687D01*
X0194403Y0002592D01*
X0194235Y0002502D01*
X0194066Y0002416D01*
X0193894Y0002333D01*
X0193721Y0002255D01*
X0193545Y0002181D01*
X0193368Y0002112D01*
X0193189Y0002046D01*
X0193009Y0001985D01*
X0192828Y0001929D01*
X0192645Y0001877D01*
X0192460Y0001829D01*
X0192275Y0001786D01*
X0192089Y0001747D01*
X0191902Y0001712D01*
X0191714Y0001683D01*
X0191525Y0001657D01*
X0191336Y0001637D01*
X0191146Y0001621D01*
X0190956Y0001609D01*
X0190766Y0001602D01*
X0190576Y0001600D01*
X0009474Y0001600D01*
X0009284Y0001602D01*
X0009094Y0001609D01*
X0008904Y0001621D01*
X0008714Y0001637D01*
X0008525Y0001657D01*
X0008336Y0001683D01*
X0008148Y0001712D01*
X0007961Y0001747D01*
X0007775Y0001786D01*
X0007590Y0001829D01*
X0007405Y0001877D01*
X0007222Y0001929D01*
X0007041Y0001985D01*
X0006861Y0002046D01*
X0006682Y0002112D01*
X0006505Y0002181D01*
X0006329Y0002255D01*
X0006156Y0002333D01*
X0005984Y0002416D01*
X0005815Y0002502D01*
X0005647Y0002592D01*
X0005482Y0002687D01*
X0005319Y0002785D01*
X0005159Y0002888D01*
X0005001Y0002994D01*
X0004846Y0003104D01*
X0004693Y0003217D01*
X0004543Y0003335D01*
X0004397Y0003456D01*
X0004253Y0003580D01*
X0004112Y0003708D01*
X0003974Y0003839D01*
X0003839Y0003974D01*
X0003708Y0004112D01*
X0003580Y0004253D01*
X0003456Y0004397D01*
X0003335Y0004543D01*
X0003217Y0004693D01*
X0003104Y0004846D01*
X0002994Y0005001D01*
X0002888Y0005159D01*
X0002785Y0005319D01*
X0002687Y0005482D01*
X0002592Y0005647D01*
X0002502Y0005815D01*
X0002416Y0005984D01*
X0002333Y0006156D01*
X0002255Y0006329D01*
X0002181Y0006505D01*
X0002112Y0006682D01*
X0002046Y0006861D01*
X0001985Y0007041D01*
X0001929Y0007222D01*
X0001877Y0007405D01*
X0001829Y0007590D01*
X0001786Y0007775D01*
X0001747Y0007961D01*
X0001712Y0008148D01*
X0001683Y0008336D01*
X0001657Y0008525D01*
X0001637Y0008714D01*
X0001621Y0008904D01*
X0001609Y0009094D01*
X0001602Y0009284D01*
X0001600Y0009474D01*
D11*
X0056600Y0063254D03*
X0056600Y0069946D03*
X0068254Y0021600D03*
X0074946Y0021600D03*
X0116600Y0163254D03*
X0116600Y0169946D03*
X0138254Y0176600D03*
X0144946Y0176600D03*
X0039946Y0171600D03*
X0033254Y0171600D03*
D12*
X0113254Y0091600D03*
X0119946Y0091600D03*
X0153254Y0101600D03*
X0159946Y0101600D03*
X0159946Y0111600D03*
X0153254Y0111600D03*
X0016600Y0029946D03*
X0016600Y0023254D03*
D13*
X0069000Y0041600D02*
X0074200Y0041600D01*
X0074200Y0051600D02*
X0069000Y0051600D01*
X0069000Y0061600D02*
X0074200Y0061600D01*
X0074200Y0071600D02*
X0069000Y0071600D01*
X0069000Y0081600D02*
X0074200Y0081600D01*
X0074200Y0091600D02*
X0069000Y0091600D01*
X0069000Y0101600D02*
X0074200Y0101600D01*
X0074200Y0111600D02*
X0069000Y0111600D01*
X0069000Y0121600D02*
X0074200Y0121600D01*
X0074200Y0131600D02*
X0069000Y0131600D01*
X0069000Y0141600D02*
X0074200Y0141600D01*
X0074200Y0151600D02*
X0069000Y0151600D01*
X0069000Y0161600D02*
X0074200Y0161600D01*
X0074200Y0171600D02*
X0069000Y0171600D01*
X0099000Y0171600D02*
X0104200Y0171600D01*
X0104200Y0161600D02*
X0099000Y0161600D01*
X0099000Y0151600D02*
X0104200Y0151600D01*
X0104200Y0141600D02*
X0099000Y0141600D01*
X0099000Y0131600D02*
X0104200Y0131600D01*
X0104200Y0121600D02*
X0099000Y0121600D01*
X0099000Y0111600D02*
X0104200Y0111600D01*
X0104200Y0101600D02*
X0099000Y0101600D01*
X0099000Y0091600D02*
X0104200Y0091600D01*
X0104200Y0081600D02*
X0099000Y0081600D01*
X0099000Y0071600D02*
X0104200Y0071600D01*
X0104200Y0061600D02*
X0099000Y0061600D01*
X0099000Y0051600D02*
X0104200Y0051600D01*
X0104200Y0041600D02*
X0099000Y0041600D01*
D14*
X0074553Y0011600D03*
X0068647Y0011600D03*
X0138647Y0186600D03*
X0144553Y0186600D03*
D15*
X0056600Y0091324D03*
X0056600Y0086600D03*
X0056600Y0081876D03*
D16*
X0053805Y0024474D03*
X0053805Y0008726D03*
X0029395Y0008726D03*
X0029395Y0024474D03*
D17*
X0024474Y0149395D03*
X0008726Y0149395D03*
X0008726Y0173805D03*
X0024474Y0173805D03*
D18*
X0152500Y0124325D03*
X0161600Y0124325D03*
X0170700Y0124325D03*
D19*
X0161600Y0148875D03*
D20*
X0165301Y0161521D03*
X0168450Y0166246D03*
X0171600Y0161521D03*
X0174750Y0166246D03*
X0177899Y0161521D03*
X0186600Y0039474D03*
X0186600Y0031600D03*
X0186600Y0023726D03*
D21*
X0185970Y0181600D03*
X0157230Y0181600D03*
D22*
X0194100Y0136600D03*
X0194100Y0126600D03*
X0194100Y0116600D03*
X0194100Y0106600D03*
X0194100Y0096600D03*
X0194100Y0086600D03*
X0194100Y0076600D03*
X0194100Y0066600D03*
X0061600Y0186600D03*
X0051600Y0186600D03*
X0041600Y0186600D03*
X0031600Y0186600D03*
X0021600Y0186600D03*
X0011600Y0186600D03*
X0006600Y0136600D03*
X0006600Y0126600D03*
X0006600Y0116600D03*
X0006600Y0106600D03*
X0006600Y0096600D03*
X0006600Y0086600D03*
X0006600Y0076600D03*
X0006600Y0066600D03*
D23*
X0186600Y0047348D03*
X0186600Y0015852D03*
D24*
X0141600Y0056600D02*
X0141600Y0081600D01*
X0146600Y0086600D01*
X0141600Y0096600D02*
X0136600Y0091600D01*
X0136600Y0066600D01*
X0131600Y0061600D01*
X0126600Y0071600D02*
X0131600Y0076600D01*
X0131600Y0101600D01*
X0136600Y0106600D01*
X0136600Y0111600D02*
X0136600Y0151600D01*
X0141600Y0156600D01*
X0139100Y0164100D02*
X0131600Y0156600D01*
X0131600Y0116600D01*
X0126600Y0111600D01*
X0121600Y0116600D02*
X0106600Y0131600D01*
X0101600Y0131600D01*
X0101600Y0141600D02*
X0106600Y0141600D01*
X0121600Y0126600D01*
X0121600Y0136600D02*
X0106600Y0151600D01*
X0101600Y0151600D01*
X0091600Y0161600D02*
X0091600Y0081600D01*
X0101600Y0091600D02*
X0113254Y0091600D01*
X0146600Y0119289D02*
X0157257Y0119289D01*
X0159946Y0116600D01*
X0159946Y0111600D01*
X0159946Y0116600D02*
X0159946Y0122671D01*
X0161600Y0124325D01*
X0170700Y0124325D02*
X0171321Y0124946D01*
X0152988Y0164100D02*
X0160488Y0171600D01*
X0161600Y0171600D01*
X0144946Y0176600D02*
X0144553Y0176600D01*
X0144553Y0186600D01*
X0138647Y0186600D02*
X0131600Y0186600D01*
X0121600Y0181600D02*
X0131600Y0171600D01*
X0116600Y0169946D02*
X0116600Y0176600D01*
X0071600Y0171600D02*
X0066600Y0171600D01*
X0061600Y0176600D01*
X0051600Y0176600D01*
X0046600Y0171600D02*
X0046600Y0146600D01*
X0051600Y0141600D01*
X0071600Y0141600D01*
X0071600Y0131600D02*
X0051600Y0131600D01*
X0041600Y0141600D01*
X0041600Y0166600D01*
X0039946Y0171600D02*
X0034946Y0166600D01*
X0031600Y0166600D01*
X0033254Y0171600D02*
X0033254Y0178254D01*
X0036600Y0181600D01*
X0031049Y0173805D02*
X0024474Y0173805D01*
X0031049Y0173805D02*
X0033254Y0171600D01*
X0021600Y0156600D02*
X0018694Y0153694D01*
X0018694Y0141765D01*
X0006600Y0129670D01*
X0006600Y0126600D01*
X0006600Y0136600D02*
X0006600Y0140356D01*
X0011894Y0145650D01*
X0011894Y0153140D01*
X0011600Y0153435D01*
X0011600Y0156600D01*
X0016600Y0161600D01*
X0061600Y0176600D02*
X0061600Y0186600D01*
X0026600Y0096600D02*
X0031600Y0091600D01*
X0031600Y0066600D01*
X0036600Y0071600D01*
X0031600Y0066600D02*
X0031600Y0026679D01*
X0029395Y0024474D01*
X0022072Y0024474D01*
X0016600Y0023254D01*
X0016600Y0029946D02*
X0016600Y0036600D01*
X0046600Y0066600D02*
X0046600Y0081600D01*
X0041600Y0086600D01*
X0056600Y0081876D02*
X0071324Y0081876D01*
X0071600Y0081600D01*
X0071600Y0091600D02*
X0056876Y0091600D01*
X0056600Y0091324D01*
X0056600Y0063254D02*
X0056600Y0056600D01*
X0076600Y0056600D02*
X0081600Y0051600D01*
X0081600Y0016600D01*
X0076600Y0011600D01*
X0074553Y0011600D01*
X0068647Y0011600D02*
X0068254Y0011994D01*
X0068254Y0021600D01*
X0136600Y0051600D02*
X0141600Y0056600D01*
D25*
X0136600Y0051600D03*
X0131600Y0061600D03*
X0126600Y0071600D03*
X0146600Y0086600D03*
X0141600Y0096600D03*
X0136600Y0106600D03*
X0136600Y0111600D03*
X0126600Y0111600D03*
X0121600Y0116600D03*
X0121600Y0126600D03*
X0121600Y0136600D03*
X0141600Y0156600D03*
X0139100Y0164100D03*
X0131600Y0171600D03*
X0121600Y0181600D03*
X0116600Y0176600D03*
X0131600Y0186600D03*
X0152988Y0164100D03*
X0161600Y0171600D03*
X0146600Y0119289D03*
X0166600Y0076600D03*
X0161600Y0041600D03*
X0171600Y0038726D03*
X0177899Y0040301D03*
X0091600Y0081600D03*
X0076600Y0056600D03*
X0056600Y0056600D03*
X0046600Y0066600D03*
X0036600Y0071600D03*
X0041600Y0086600D03*
X0026600Y0096600D03*
X0016600Y0036600D03*
X0021600Y0156600D03*
X0016600Y0161600D03*
X0031600Y0166600D03*
X0041600Y0166600D03*
X0046600Y0171600D03*
X0051600Y0176600D03*
X0036600Y0181600D03*
X0091600Y0161600D03*
D26*
X0003795Y0006580D02*
X0004967Y0004967D01*
X0006580Y0003795D01*
X0008477Y0003178D01*
X0009474Y0003100D01*
X0190576Y0003100D01*
X0191573Y0003178D01*
X0193470Y0003795D01*
X0195083Y0004967D01*
X0196256Y0006580D01*
X0196872Y0008477D01*
X0196950Y0009474D01*
X0196950Y0062491D01*
X0196721Y0062324D01*
X0196019Y0061966D01*
X0195271Y0061723D01*
X0194494Y0061600D01*
X0194400Y0061600D01*
X0194400Y0066300D01*
X0193800Y0066300D01*
X0193800Y0061600D01*
X0193706Y0061600D01*
X0192929Y0061723D01*
X0192181Y0061966D01*
X0191479Y0062324D01*
X0190843Y0062786D01*
X0190286Y0063343D01*
X0189824Y0063979D01*
X0189466Y0064681D01*
X0189223Y0065429D01*
X0189100Y0066206D01*
X0189100Y0066300D01*
X0193800Y0066300D01*
X0193800Y0066900D01*
X0189100Y0066900D01*
X0189100Y0066994D01*
X0189223Y0067771D01*
X0189466Y0068519D01*
X0189824Y0069221D01*
X0190286Y0069857D01*
X0190843Y0070414D01*
X0191479Y0070876D01*
X0192181Y0071234D01*
X0192902Y0071468D01*
X0191154Y0072192D01*
X0189692Y0073654D01*
X0188900Y0075566D01*
X0188900Y0077634D01*
X0189692Y0079546D01*
X0191154Y0081008D01*
X0192583Y0081600D01*
X0191154Y0082192D01*
X0189692Y0083654D01*
X0188900Y0085566D01*
X0188900Y0087634D01*
X0189692Y0089546D01*
X0191154Y0091008D01*
X0192583Y0091600D01*
X0191154Y0092192D01*
X0189692Y0093654D01*
X0188900Y0095566D01*
X0180599Y0095566D01*
X0180599Y0094968D02*
X0189148Y0094968D01*
X0188900Y0095566D02*
X0188900Y0097634D01*
X0189692Y0099546D01*
X0191154Y0101008D01*
X0192583Y0101600D01*
X0191154Y0102192D01*
X0189692Y0103654D01*
X0188900Y0105566D01*
X0188900Y0107634D01*
X0189692Y0109546D01*
X0191154Y0111008D01*
X0192583Y0111600D01*
X0191154Y0112192D01*
X0189692Y0113654D01*
X0188900Y0115566D01*
X0188900Y0117634D01*
X0189692Y0119546D01*
X0191154Y0121008D01*
X0192583Y0121600D01*
X0191154Y0122192D01*
X0189692Y0123654D01*
X0188900Y0125566D01*
X0188900Y0127634D01*
X0189692Y0129546D01*
X0191154Y0131008D01*
X0192583Y0131600D01*
X0191154Y0132192D01*
X0189692Y0133654D01*
X0188900Y0135566D01*
X0188900Y0137634D01*
X0189692Y0139546D01*
X0191154Y0141008D01*
X0193066Y0141800D01*
X0195134Y0141800D01*
X0196950Y0141048D01*
X0196950Y0190576D01*
X0196872Y0191573D01*
X0196256Y0193470D01*
X0195083Y0195083D01*
X0193470Y0196256D01*
X0191573Y0196872D01*
X0190576Y0196950D01*
X0009474Y0196950D01*
X0008477Y0196872D01*
X0006580Y0196256D01*
X0004967Y0195083D01*
X0003795Y0193470D01*
X0003178Y0191573D01*
X0003100Y0190576D01*
X0003100Y0140454D01*
X0003654Y0141008D01*
X0004727Y0141453D01*
X0007922Y0144647D01*
X0006136Y0144647D01*
X0005257Y0145526D01*
X0005257Y0153265D01*
X0006136Y0154143D01*
X0009500Y0154143D01*
X0009500Y0157470D01*
X0010730Y0158700D01*
X0010730Y0158700D01*
X0013811Y0161781D01*
X0013811Y0162155D01*
X0014236Y0163180D01*
X0015020Y0163964D01*
X0016045Y0164389D01*
X0017155Y0164389D01*
X0018180Y0163964D01*
X0018964Y0163180D01*
X0019389Y0162155D01*
X0019389Y0161045D01*
X0018964Y0160020D01*
X0018180Y0159236D01*
X0017155Y0158811D01*
X0016781Y0158811D01*
X0013700Y0155730D01*
X0013700Y0154305D01*
X0013994Y0154010D01*
X0013994Y0144780D01*
X0009884Y0140670D01*
X0011008Y0139546D01*
X0011740Y0137780D01*
X0016594Y0142635D01*
X0016594Y0154564D01*
X0017825Y0155794D01*
X0018811Y0156781D01*
X0018811Y0157155D01*
X0019236Y0158180D01*
X0020020Y0158964D01*
X0021045Y0159389D01*
X0022155Y0159389D01*
X0023180Y0158964D01*
X0023964Y0158180D01*
X0024389Y0157155D01*
X0024389Y0156045D01*
X0023964Y0155020D01*
X0023180Y0154236D01*
X0022957Y0154143D01*
X0027064Y0154143D01*
X0027943Y0153265D01*
X0027943Y0145526D01*
X0027064Y0144647D01*
X0021884Y0144647D01*
X0021006Y0145526D01*
X0021006Y0153036D01*
X0020794Y0152825D01*
X0020794Y0140895D01*
X0010227Y0130327D01*
X0011008Y0129546D01*
X0011800Y0127634D01*
X0011800Y0125566D01*
X0011008Y0123654D01*
X0009546Y0122192D01*
X0008117Y0121600D01*
X0009546Y0121008D01*
X0011008Y0119546D01*
X0011800Y0117634D01*
X0011800Y0115566D01*
X0011008Y0113654D01*
X0009546Y0112192D01*
X0008117Y0111600D01*
X0009546Y0111008D01*
X0011008Y0109546D01*
X0011800Y0107634D01*
X0011800Y0105566D01*
X0011008Y0103654D01*
X0009546Y0102192D01*
X0008117Y0101600D01*
X0009546Y0101008D01*
X0011008Y0099546D01*
X0011800Y0097634D01*
X0011800Y0095566D01*
X0024009Y0095566D01*
X0023811Y0096045D02*
X0024236Y0095020D01*
X0025020Y0094236D01*
X0026045Y0093811D01*
X0026419Y0093811D01*
X0029500Y0090730D01*
X0029500Y0027943D01*
X0025526Y0027943D01*
X0024647Y0027064D01*
X0024647Y0026574D01*
X0022683Y0026574D01*
X0022464Y0026713D01*
X0021841Y0026574D01*
X0021203Y0026574D01*
X0021019Y0026391D01*
X0019955Y0026153D01*
X0019509Y0026600D01*
X0020265Y0027357D01*
X0020265Y0032536D01*
X0019387Y0033415D01*
X0018700Y0033415D01*
X0018700Y0034756D01*
X0018964Y0035020D01*
X0019389Y0036045D01*
X0019389Y0037155D01*
X0018964Y0038180D01*
X0018180Y0038964D01*
X0017155Y0039389D01*
X0016045Y0039389D01*
X0015020Y0038964D01*
X0014236Y0038180D01*
X0013811Y0037155D01*
X0013811Y0036045D01*
X0014236Y0035020D01*
X0014500Y0034756D01*
X0014500Y0033415D01*
X0013813Y0033415D01*
X0012935Y0032536D01*
X0012935Y0027357D01*
X0013691Y0026600D01*
X0012935Y0025843D01*
X0012935Y0020664D01*
X0013813Y0019785D01*
X0019387Y0019785D01*
X0020265Y0020664D01*
X0020265Y0021919D01*
X0022304Y0022374D01*
X0024647Y0022374D01*
X0024647Y0021884D01*
X0025526Y0021006D01*
X0033265Y0021006D01*
X0034143Y0021884D01*
X0034143Y0027064D01*
X0033700Y0027507D01*
X0033700Y0065730D01*
X0036781Y0068811D01*
X0037155Y0068811D01*
X0038180Y0069236D01*
X0038964Y0070020D01*
X0039389Y0071045D01*
X0039389Y0072155D01*
X0038964Y0073180D01*
X0038180Y0073964D01*
X0037155Y0074389D01*
X0036045Y0074389D01*
X0035020Y0073964D01*
X0034236Y0073180D01*
X0033811Y0072155D01*
X0033811Y0071781D01*
X0033700Y0071670D01*
X0033700Y0092470D01*
X0029389Y0096781D01*
X0029389Y0097155D01*
X0028964Y0098180D01*
X0028180Y0098964D01*
X0027155Y0099389D01*
X0026045Y0099389D01*
X0025020Y0098964D01*
X0024236Y0098180D01*
X0023811Y0097155D01*
X0023811Y0096045D01*
X0023811Y0096165D02*
X0011800Y0096165D01*
X0011800Y0096763D02*
X0023811Y0096763D01*
X0023897Y0097362D02*
X0011800Y0097362D01*
X0011665Y0097960D02*
X0024145Y0097960D01*
X0024615Y0098559D02*
X0011417Y0098559D01*
X0011169Y0099157D02*
X0025486Y0099157D01*
X0027714Y0099157D02*
X0065942Y0099157D01*
X0065971Y0099114D02*
X0066514Y0098571D01*
X0067153Y0098144D01*
X0067862Y0097850D01*
X0068616Y0097700D01*
X0071300Y0097700D01*
X0071300Y0101300D01*
X0071900Y0101300D01*
X0071900Y0101900D01*
X0071300Y0101900D01*
X0071300Y0105500D01*
X0068616Y0105500D01*
X0067862Y0105350D01*
X0067153Y0105056D01*
X0066514Y0104629D01*
X0065971Y0104086D01*
X0065544Y0103447D01*
X0065250Y0102738D01*
X0065100Y0101984D01*
X0065100Y0101900D01*
X0071300Y0101900D01*
X0071300Y0101300D01*
X0065100Y0101300D01*
X0065100Y0101216D01*
X0065250Y0100462D01*
X0065544Y0099753D01*
X0065971Y0099114D01*
X0065543Y0099756D02*
X0010798Y0099756D01*
X0010200Y0100354D02*
X0065295Y0100354D01*
X0065152Y0100953D02*
X0009601Y0100953D01*
X0009445Y0102150D02*
X0065133Y0102150D01*
X0065254Y0102748D02*
X0010102Y0102748D01*
X0010701Y0103347D02*
X0065502Y0103347D01*
X0065877Y0103945D02*
X0011129Y0103945D01*
X0011377Y0104544D02*
X0066429Y0104544D01*
X0067361Y0105142D02*
X0011625Y0105142D01*
X0011800Y0105741D02*
X0089500Y0105741D01*
X0089500Y0106339D02*
X0011800Y0106339D01*
X0011800Y0106938D02*
X0089500Y0106938D01*
X0089500Y0107537D02*
X0075104Y0107537D01*
X0075016Y0107500D02*
X0076522Y0108124D01*
X0077676Y0109278D01*
X0078300Y0110784D01*
X0078300Y0112416D01*
X0077676Y0113922D01*
X0076522Y0115076D01*
X0075016Y0115700D01*
X0068184Y0115700D01*
X0066678Y0115076D01*
X0065524Y0113922D01*
X0064900Y0112416D01*
X0064900Y0110784D01*
X0065524Y0109278D01*
X0066678Y0108124D01*
X0068184Y0107500D01*
X0075016Y0107500D01*
X0076533Y0108135D02*
X0089500Y0108135D01*
X0089500Y0108734D02*
X0077132Y0108734D01*
X0077698Y0109332D02*
X0089500Y0109332D01*
X0089500Y0109931D02*
X0077946Y0109931D01*
X0078194Y0110529D02*
X0089500Y0110529D01*
X0089500Y0111128D02*
X0078300Y0111128D01*
X0078300Y0111726D02*
X0089500Y0111726D01*
X0089500Y0112325D02*
X0078300Y0112325D01*
X0078090Y0112923D02*
X0089500Y0112923D01*
X0089500Y0113522D02*
X0077842Y0113522D01*
X0077478Y0114120D02*
X0089500Y0114120D01*
X0089500Y0114719D02*
X0076880Y0114719D01*
X0075940Y0115317D02*
X0089500Y0115317D01*
X0089500Y0115916D02*
X0011800Y0115916D01*
X0011800Y0116514D02*
X0089500Y0116514D01*
X0089500Y0117113D02*
X0011800Y0117113D01*
X0011768Y0117711D02*
X0067675Y0117711D01*
X0068184Y0117500D02*
X0075016Y0117500D01*
X0076522Y0118124D01*
X0077676Y0119278D01*
X0078300Y0120784D01*
X0078300Y0122416D01*
X0077676Y0123922D01*
X0076522Y0125076D01*
X0075016Y0125700D01*
X0068184Y0125700D01*
X0066678Y0125076D01*
X0065524Y0123922D01*
X0064900Y0122416D01*
X0064900Y0120784D01*
X0065524Y0119278D01*
X0066678Y0118124D01*
X0068184Y0117500D01*
X0066492Y0118310D02*
X0011520Y0118310D01*
X0011272Y0118908D02*
X0065894Y0118908D01*
X0065429Y0119507D02*
X0011024Y0119507D01*
X0010449Y0120105D02*
X0065181Y0120105D01*
X0064933Y0120704D02*
X0009850Y0120704D01*
X0008836Y0121302D02*
X0064900Y0121302D01*
X0064900Y0121901D02*
X0008843Y0121901D01*
X0009853Y0122499D02*
X0064935Y0122499D01*
X0065183Y0123098D02*
X0010452Y0123098D01*
X0011026Y0123696D02*
X0065431Y0123696D01*
X0065897Y0124295D02*
X0011274Y0124295D01*
X0011522Y0124893D02*
X0066495Y0124893D01*
X0067682Y0125492D02*
X0011769Y0125492D01*
X0011800Y0126090D02*
X0089500Y0126090D01*
X0089500Y0125492D02*
X0075518Y0125492D01*
X0076705Y0124893D02*
X0089500Y0124893D01*
X0089500Y0124295D02*
X0077303Y0124295D01*
X0077769Y0123696D02*
X0089500Y0123696D01*
X0089500Y0123098D02*
X0078017Y0123098D01*
X0078265Y0122499D02*
X0089500Y0122499D01*
X0089500Y0121901D02*
X0078300Y0121901D01*
X0078300Y0121302D02*
X0089500Y0121302D01*
X0089500Y0120704D02*
X0078267Y0120704D01*
X0078019Y0120105D02*
X0089500Y0120105D01*
X0089500Y0119507D02*
X0077771Y0119507D01*
X0077306Y0118908D02*
X0089500Y0118908D01*
X0089500Y0118310D02*
X0076708Y0118310D01*
X0075525Y0117711D02*
X0089500Y0117711D01*
X0093700Y0117711D02*
X0097675Y0117711D01*
X0098184Y0117500D02*
X0096678Y0118124D01*
X0095524Y0119278D01*
X0094900Y0120784D01*
X0094900Y0122416D01*
X0095524Y0123922D01*
X0096678Y0125076D01*
X0098184Y0125700D01*
X0105016Y0125700D01*
X0106522Y0125076D01*
X0107676Y0123922D01*
X0108300Y0122416D01*
X0108300Y0120784D01*
X0107676Y0119278D01*
X0106522Y0118124D01*
X0105016Y0117500D01*
X0098184Y0117500D01*
X0098184Y0115700D02*
X0096678Y0115076D01*
X0095524Y0113922D01*
X0094900Y0112416D01*
X0094900Y0110784D01*
X0095524Y0109278D01*
X0096678Y0108124D01*
X0098184Y0107500D01*
X0105016Y0107500D01*
X0106522Y0108124D01*
X0107676Y0109278D01*
X0108300Y0110784D01*
X0108300Y0112416D01*
X0107676Y0113922D01*
X0106522Y0115076D01*
X0105016Y0115700D01*
X0098184Y0115700D01*
X0097260Y0115317D02*
X0093700Y0115317D01*
X0093700Y0114719D02*
X0096320Y0114719D01*
X0095722Y0114120D02*
X0093700Y0114120D01*
X0093700Y0113522D02*
X0095358Y0113522D01*
X0095110Y0112923D02*
X0093700Y0112923D01*
X0093700Y0112325D02*
X0094900Y0112325D01*
X0094900Y0111726D02*
X0093700Y0111726D01*
X0093700Y0111128D02*
X0094900Y0111128D01*
X0095006Y0110529D02*
X0093700Y0110529D01*
X0093700Y0109931D02*
X0095254Y0109931D01*
X0095502Y0109332D02*
X0093700Y0109332D01*
X0093700Y0108734D02*
X0096068Y0108734D01*
X0096667Y0108135D02*
X0093700Y0108135D01*
X0093700Y0107537D02*
X0098096Y0107537D01*
X0098184Y0105700D02*
X0096678Y0105076D01*
X0095524Y0103922D01*
X0094900Y0102416D01*
X0094900Y0100784D01*
X0095524Y0099278D01*
X0096678Y0098124D01*
X0098184Y0097500D01*
X0105016Y0097500D01*
X0106522Y0098124D01*
X0107676Y0099278D01*
X0108300Y0100784D01*
X0108300Y0102416D01*
X0107676Y0103922D01*
X0106522Y0105076D01*
X0105016Y0105700D01*
X0098184Y0105700D01*
X0096838Y0105142D02*
X0093700Y0105142D01*
X0093700Y0104544D02*
X0096146Y0104544D01*
X0095547Y0103945D02*
X0093700Y0103945D01*
X0093700Y0103347D02*
X0095286Y0103347D01*
X0095038Y0102748D02*
X0093700Y0102748D01*
X0093700Y0102150D02*
X0094900Y0102150D01*
X0094900Y0101551D02*
X0093700Y0101551D01*
X0093700Y0100953D02*
X0094900Y0100953D01*
X0095078Y0100354D02*
X0093700Y0100354D01*
X0093700Y0099756D02*
X0095326Y0099756D01*
X0095644Y0099157D02*
X0093700Y0099157D01*
X0093700Y0098559D02*
X0096243Y0098559D01*
X0097073Y0097960D02*
X0093700Y0097960D01*
X0093700Y0097362D02*
X0129500Y0097362D01*
X0129500Y0097960D02*
X0106127Y0097960D01*
X0106957Y0098559D02*
X0129500Y0098559D01*
X0129500Y0099157D02*
X0107556Y0099157D01*
X0107874Y0099756D02*
X0129500Y0099756D01*
X0129500Y0100354D02*
X0108122Y0100354D01*
X0108300Y0100953D02*
X0129500Y0100953D01*
X0129500Y0101551D02*
X0108300Y0101551D01*
X0108300Y0102150D02*
X0129500Y0102150D01*
X0129500Y0102470D02*
X0129500Y0077470D01*
X0126419Y0074389D01*
X0126045Y0074389D01*
X0125020Y0073964D01*
X0124236Y0073180D01*
X0123811Y0072155D01*
X0123811Y0071045D01*
X0124236Y0070020D01*
X0125020Y0069236D01*
X0126045Y0068811D01*
X0127155Y0068811D01*
X0128180Y0069236D01*
X0128964Y0070020D01*
X0129389Y0071045D01*
X0129389Y0071419D01*
X0133700Y0075730D01*
X0133700Y0100730D01*
X0136781Y0103811D01*
X0137155Y0103811D01*
X0138180Y0104236D01*
X0138964Y0105020D01*
X0139389Y0106045D01*
X0139389Y0107155D01*
X0138964Y0108180D01*
X0138180Y0108964D01*
X0137852Y0109100D01*
X0138180Y0109236D01*
X0138964Y0110020D01*
X0139389Y0111045D01*
X0139389Y0112155D01*
X0138964Y0113180D01*
X0138700Y0113444D01*
X0138700Y0150730D01*
X0141781Y0153811D01*
X0142155Y0153811D01*
X0143180Y0154236D01*
X0143964Y0155020D01*
X0144389Y0156045D01*
X0144389Y0157155D01*
X0143964Y0158180D01*
X0143180Y0158964D01*
X0142155Y0159389D01*
X0141045Y0159389D01*
X0140020Y0158964D01*
X0139236Y0158180D01*
X0138811Y0157155D01*
X0138811Y0156781D01*
X0134500Y0152470D01*
X0134500Y0113444D01*
X0134236Y0113180D01*
X0133811Y0112155D01*
X0133811Y0111045D01*
X0134236Y0110020D01*
X0135020Y0109236D01*
X0135348Y0109100D01*
X0135020Y0108964D01*
X0134236Y0108180D01*
X0133811Y0107155D01*
X0133811Y0106781D01*
X0130730Y0103700D01*
X0129500Y0102470D01*
X0129779Y0102748D02*
X0108162Y0102748D01*
X0107914Y0103347D02*
X0130377Y0103347D01*
X0130976Y0103945D02*
X0107653Y0103945D01*
X0107054Y0104544D02*
X0131574Y0104544D01*
X0132173Y0105142D02*
X0106362Y0105142D01*
X0105104Y0107537D02*
X0133969Y0107537D01*
X0133811Y0106938D02*
X0093700Y0106938D01*
X0093700Y0106339D02*
X0133370Y0106339D01*
X0132771Y0105741D02*
X0093700Y0105741D01*
X0089500Y0105142D02*
X0075839Y0105142D01*
X0076047Y0105056D02*
X0075338Y0105350D01*
X0074584Y0105500D01*
X0071900Y0105500D01*
X0071900Y0101900D01*
X0078100Y0101900D01*
X0078100Y0101984D01*
X0077950Y0102738D01*
X0077656Y0103447D01*
X0077229Y0104086D01*
X0076686Y0104629D01*
X0076047Y0105056D01*
X0076771Y0104544D02*
X0089500Y0104544D01*
X0089500Y0103945D02*
X0077323Y0103945D01*
X0077698Y0103347D02*
X0089500Y0103347D01*
X0089500Y0102748D02*
X0077946Y0102748D01*
X0078067Y0102150D02*
X0089500Y0102150D01*
X0089500Y0101551D02*
X0071900Y0101551D01*
X0071900Y0101300D02*
X0078100Y0101300D01*
X0078100Y0101216D01*
X0077950Y0100462D01*
X0077656Y0099753D01*
X0077229Y0099114D01*
X0076686Y0098571D01*
X0076047Y0098144D01*
X0075338Y0097850D01*
X0074584Y0097700D01*
X0071900Y0097700D01*
X0071900Y0101300D01*
X0071900Y0100953D02*
X0071300Y0100953D01*
X0071300Y0101551D02*
X0008235Y0101551D01*
X0011800Y0095566D02*
X0011008Y0093654D01*
X0009546Y0092192D01*
X0008117Y0091600D01*
X0009546Y0091008D01*
X0011008Y0089546D01*
X0011800Y0087634D01*
X0011800Y0085566D01*
X0011008Y0083654D01*
X0009546Y0082192D01*
X0008117Y0081600D01*
X0009546Y0081008D01*
X0011008Y0079546D01*
X0011800Y0077634D01*
X0011800Y0075566D01*
X0011008Y0073654D01*
X0009546Y0072192D01*
X0007798Y0071468D01*
X0008519Y0071234D01*
X0009221Y0070876D01*
X0009857Y0070414D01*
X0010414Y0069857D01*
X0010876Y0069221D01*
X0011234Y0068519D01*
X0011477Y0067771D01*
X0011600Y0066994D01*
X0011600Y0066900D01*
X0006900Y0066900D01*
X0006900Y0066300D01*
X0011600Y0066300D01*
X0011600Y0066206D01*
X0011477Y0065429D01*
X0011234Y0064681D01*
X0010876Y0063979D01*
X0010414Y0063343D01*
X0009857Y0062786D01*
X0009221Y0062324D01*
X0008519Y0061966D01*
X0007771Y0061723D01*
X0006994Y0061600D01*
X0006900Y0061600D01*
X0006900Y0066300D01*
X0006300Y0066300D01*
X0006300Y0061600D01*
X0006206Y0061600D01*
X0005429Y0061723D01*
X0004681Y0061966D01*
X0003979Y0062324D01*
X0003343Y0062786D01*
X0003100Y0063029D01*
X0003100Y0009474D01*
X0003178Y0008477D01*
X0003795Y0006580D01*
X0003934Y0006388D02*
X0024900Y0006388D01*
X0024936Y0006256D02*
X0025107Y0005959D01*
X0025349Y0005717D01*
X0025645Y0005546D01*
X0025976Y0005457D01*
X0029095Y0005457D01*
X0029095Y0008426D01*
X0024847Y0008426D01*
X0024847Y0006586D01*
X0024936Y0006256D01*
X0025277Y0005790D02*
X0004369Y0005790D01*
X0004804Y0005191D02*
X0195246Y0005191D01*
X0195681Y0005790D02*
X0058206Y0005790D01*
X0058553Y0006136D02*
X0057674Y0005257D01*
X0049935Y0005257D01*
X0049057Y0006136D01*
X0049057Y0011316D01*
X0049935Y0012194D01*
X0057674Y0012194D01*
X0058553Y0011316D01*
X0058553Y0006136D01*
X0058553Y0006388D02*
X0196116Y0006388D01*
X0196388Y0006987D02*
X0058553Y0006987D01*
X0058553Y0007585D02*
X0196582Y0007585D01*
X0196777Y0008184D02*
X0058553Y0008184D01*
X0058553Y0008782D02*
X0066194Y0008782D01*
X0066451Y0008525D02*
X0070843Y0008525D01*
X0071600Y0009282D01*
X0072357Y0008525D01*
X0076749Y0008525D01*
X0077628Y0009404D01*
X0077628Y0009658D01*
X0078700Y0010730D01*
X0078700Y0010730D01*
X0083700Y0015730D01*
X0083700Y0052470D01*
X0079389Y0056781D01*
X0079389Y0057155D01*
X0078964Y0058180D01*
X0078180Y0058964D01*
X0077602Y0059204D01*
X0077676Y0059278D01*
X0078300Y0060784D01*
X0078300Y0062416D01*
X0077676Y0063922D01*
X0076522Y0065076D01*
X0075016Y0065700D01*
X0068184Y0065700D01*
X0066678Y0065076D01*
X0065524Y0063922D01*
X0064900Y0062416D01*
X0064900Y0060784D01*
X0065524Y0059278D01*
X0066678Y0058124D01*
X0068184Y0057500D01*
X0073954Y0057500D01*
X0073811Y0057155D01*
X0073811Y0056045D01*
X0073954Y0055700D01*
X0068184Y0055700D01*
X0066678Y0055076D01*
X0065524Y0053922D01*
X0064900Y0052416D01*
X0064900Y0050784D01*
X0065524Y0049278D01*
X0066678Y0048124D01*
X0068184Y0047500D01*
X0075016Y0047500D01*
X0076522Y0048124D01*
X0077676Y0049278D01*
X0078300Y0050784D01*
X0078300Y0051930D01*
X0079500Y0050730D01*
X0079500Y0017470D01*
X0076705Y0014675D01*
X0072357Y0014675D01*
X0071600Y0013918D01*
X0070843Y0014675D01*
X0070354Y0014675D01*
X0070354Y0017935D01*
X0070843Y0017935D01*
X0071722Y0018813D01*
X0071722Y0019099D01*
X0071767Y0018933D01*
X0071938Y0018636D01*
X0072180Y0018394D01*
X0072476Y0018223D01*
X0072807Y0018135D01*
X0074646Y0018135D01*
X0074646Y0021300D01*
X0075246Y0021300D01*
X0075246Y0018135D01*
X0077086Y0018135D01*
X0077417Y0018223D01*
X0077713Y0018394D01*
X0077955Y0018636D01*
X0078126Y0018933D01*
X0078215Y0019263D01*
X0078215Y0021300D01*
X0075246Y0021300D01*
X0075246Y0021900D01*
X0074646Y0021900D01*
X0074646Y0025065D01*
X0072807Y0025065D01*
X0072476Y0024977D01*
X0072180Y0024806D01*
X0071938Y0024564D01*
X0071767Y0024267D01*
X0071722Y0024101D01*
X0071722Y0024387D01*
X0070843Y0025265D01*
X0065664Y0025265D01*
X0064785Y0024387D01*
X0064785Y0018813D01*
X0065664Y0017935D01*
X0066154Y0017935D01*
X0066154Y0014377D01*
X0065572Y0013796D01*
X0065572Y0009404D01*
X0066451Y0008525D01*
X0065596Y0009381D02*
X0058553Y0009381D01*
X0058553Y0009979D02*
X0065572Y0009979D01*
X0065572Y0010578D02*
X0058553Y0010578D01*
X0058553Y0011176D02*
X0065572Y0011176D01*
X0065572Y0011775D02*
X0058094Y0011775D01*
X0065572Y0012373D02*
X0003100Y0012373D01*
X0003100Y0011775D02*
X0025418Y0011775D01*
X0025349Y0011735D02*
X0025107Y0011493D01*
X0024936Y0011196D01*
X0024847Y0010866D01*
X0024847Y0009026D01*
X0029095Y0009026D01*
X0029095Y0008426D01*
X0029695Y0008426D01*
X0029695Y0005457D01*
X0032814Y0005457D01*
X0033145Y0005546D01*
X0033442Y0005717D01*
X0033684Y0005959D01*
X0033855Y0006256D01*
X0033943Y0006586D01*
X0033943Y0008426D01*
X0029695Y0008426D01*
X0029695Y0009026D01*
X0029095Y0009026D01*
X0029095Y0011994D01*
X0025976Y0011994D01*
X0025645Y0011906D01*
X0025349Y0011735D01*
X0024930Y0011176D02*
X0003100Y0011176D01*
X0003100Y0010578D02*
X0024847Y0010578D01*
X0024847Y0009979D02*
X0003100Y0009979D01*
X0003107Y0009381D02*
X0024847Y0009381D01*
X0024847Y0008184D02*
X0003274Y0008184D01*
X0003154Y0008782D02*
X0029095Y0008782D01*
X0029095Y0008184D02*
X0029695Y0008184D01*
X0029695Y0008782D02*
X0049057Y0008782D01*
X0049057Y0008184D02*
X0033943Y0008184D01*
X0033943Y0007585D02*
X0049057Y0007585D01*
X0049057Y0006987D02*
X0033943Y0006987D01*
X0033890Y0006388D02*
X0049057Y0006388D01*
X0049403Y0005790D02*
X0033514Y0005790D01*
X0033943Y0009026D02*
X0029695Y0009026D01*
X0029695Y0011994D01*
X0032814Y0011994D01*
X0033145Y0011906D01*
X0033442Y0011735D01*
X0033684Y0011493D01*
X0033855Y0011196D01*
X0033943Y0010866D01*
X0033943Y0009026D01*
X0033943Y0009381D02*
X0049057Y0009381D01*
X0049057Y0009979D02*
X0033943Y0009979D01*
X0033943Y0010578D02*
X0049057Y0010578D01*
X0049057Y0011176D02*
X0033860Y0011176D01*
X0033372Y0011775D02*
X0049516Y0011775D01*
X0049935Y0021006D02*
X0057674Y0021006D01*
X0058553Y0021884D01*
X0058553Y0027064D01*
X0057674Y0027943D01*
X0049935Y0027943D01*
X0049057Y0027064D01*
X0049057Y0021884D01*
X0049935Y0021006D01*
X0049590Y0021351D02*
X0033610Y0021351D01*
X0034143Y0021949D02*
X0049057Y0021949D01*
X0049057Y0022548D02*
X0034143Y0022548D01*
X0034143Y0023146D02*
X0049057Y0023146D01*
X0049057Y0023745D02*
X0034143Y0023745D01*
X0034143Y0024343D02*
X0049057Y0024343D01*
X0049057Y0024942D02*
X0034143Y0024942D01*
X0034143Y0025540D02*
X0049057Y0025540D01*
X0049057Y0026139D02*
X0034143Y0026139D01*
X0034143Y0026737D02*
X0049057Y0026737D01*
X0049329Y0027336D02*
X0033871Y0027336D01*
X0033700Y0027934D02*
X0049927Y0027934D01*
X0057682Y0027934D02*
X0079500Y0027934D01*
X0079500Y0027336D02*
X0058281Y0027336D01*
X0058553Y0026737D02*
X0079500Y0026737D01*
X0079500Y0026139D02*
X0058553Y0026139D01*
X0058553Y0025540D02*
X0079500Y0025540D01*
X0079500Y0024942D02*
X0077477Y0024942D01*
X0077417Y0024977D02*
X0077086Y0025065D01*
X0075246Y0025065D01*
X0075246Y0021900D01*
X0078215Y0021900D01*
X0078215Y0023937D01*
X0078126Y0024267D01*
X0077955Y0024564D01*
X0077713Y0024806D01*
X0077417Y0024977D01*
X0078082Y0024343D02*
X0079500Y0024343D01*
X0079500Y0023745D02*
X0078215Y0023745D01*
X0078215Y0023146D02*
X0079500Y0023146D01*
X0079500Y0022548D02*
X0078215Y0022548D01*
X0078215Y0021949D02*
X0079500Y0021949D01*
X0079500Y0021351D02*
X0075246Y0021351D01*
X0075246Y0021949D02*
X0074646Y0021949D01*
X0074646Y0022548D02*
X0075246Y0022548D01*
X0075246Y0023146D02*
X0074646Y0023146D01*
X0074646Y0023745D02*
X0075246Y0023745D01*
X0075246Y0024343D02*
X0074646Y0024343D01*
X0074646Y0024942D02*
X0075246Y0024942D01*
X0072416Y0024942D02*
X0071167Y0024942D01*
X0071722Y0024343D02*
X0071811Y0024343D01*
X0074646Y0020752D02*
X0075246Y0020752D01*
X0075246Y0020154D02*
X0074646Y0020154D01*
X0074646Y0019555D02*
X0075246Y0019555D01*
X0075246Y0018957D02*
X0074646Y0018957D01*
X0074646Y0018358D02*
X0075246Y0018358D01*
X0072242Y0018358D02*
X0071267Y0018358D01*
X0071722Y0018957D02*
X0071760Y0018957D01*
X0070354Y0017760D02*
X0079500Y0017760D01*
X0079500Y0018358D02*
X0077651Y0018358D01*
X0078133Y0018957D02*
X0079500Y0018957D01*
X0079500Y0019555D02*
X0078215Y0019555D01*
X0078215Y0020154D02*
X0079500Y0020154D01*
X0079500Y0020752D02*
X0078215Y0020752D01*
X0079191Y0017161D02*
X0070354Y0017161D01*
X0070354Y0016563D02*
X0078593Y0016563D01*
X0077994Y0015964D02*
X0070354Y0015964D01*
X0070354Y0015366D02*
X0077396Y0015366D01*
X0076797Y0014767D02*
X0070354Y0014767D01*
X0071349Y0014169D02*
X0071851Y0014169D01*
X0072100Y0008782D02*
X0071100Y0008782D01*
X0065572Y0012972D02*
X0003100Y0012972D01*
X0003100Y0013570D02*
X0065572Y0013570D01*
X0065945Y0014169D02*
X0003100Y0014169D01*
X0003100Y0014767D02*
X0066154Y0014767D01*
X0066154Y0015366D02*
X0003100Y0015366D01*
X0003100Y0015964D02*
X0066154Y0015964D01*
X0066154Y0016563D02*
X0003100Y0016563D01*
X0003100Y0017161D02*
X0066154Y0017161D01*
X0066154Y0017760D02*
X0003100Y0017760D01*
X0003100Y0018358D02*
X0065240Y0018358D01*
X0064785Y0018957D02*
X0003100Y0018957D01*
X0003100Y0019555D02*
X0064785Y0019555D01*
X0064785Y0020154D02*
X0019755Y0020154D01*
X0020265Y0020752D02*
X0064785Y0020752D01*
X0064785Y0021351D02*
X0058019Y0021351D01*
X0058553Y0021949D02*
X0064785Y0021949D01*
X0064785Y0022548D02*
X0058553Y0022548D01*
X0058553Y0023146D02*
X0064785Y0023146D01*
X0064785Y0023745D02*
X0058553Y0023745D01*
X0058553Y0024343D02*
X0064785Y0024343D01*
X0065340Y0024942D02*
X0058553Y0024942D01*
X0066678Y0038124D02*
X0068184Y0037500D01*
X0075016Y0037500D01*
X0076522Y0038124D01*
X0077676Y0039278D01*
X0078300Y0040784D01*
X0078300Y0042416D01*
X0077676Y0043922D01*
X0076522Y0045076D01*
X0075016Y0045700D01*
X0068184Y0045700D01*
X0066678Y0045076D01*
X0065524Y0043922D01*
X0064900Y0042416D01*
X0064900Y0040784D01*
X0065524Y0039278D01*
X0066678Y0038124D01*
X0066714Y0038109D02*
X0033700Y0038109D01*
X0033700Y0037511D02*
X0068159Y0037511D01*
X0066094Y0038708D02*
X0033700Y0038708D01*
X0033700Y0039306D02*
X0065512Y0039306D01*
X0065264Y0039905D02*
X0033700Y0039905D01*
X0033700Y0040503D02*
X0065016Y0040503D01*
X0064900Y0041102D02*
X0033700Y0041102D01*
X0033700Y0041700D02*
X0064900Y0041700D01*
X0064900Y0042299D02*
X0033700Y0042299D01*
X0033700Y0042897D02*
X0065100Y0042897D01*
X0065347Y0043496D02*
X0033700Y0043496D01*
X0033700Y0044094D02*
X0065696Y0044094D01*
X0066295Y0044693D02*
X0033700Y0044693D01*
X0033700Y0045291D02*
X0067198Y0045291D01*
X0067737Y0047685D02*
X0033700Y0047685D01*
X0033700Y0047087D02*
X0079500Y0047087D01*
X0079500Y0047685D02*
X0075463Y0047685D01*
X0076682Y0048284D02*
X0079500Y0048284D01*
X0079500Y0048882D02*
X0077281Y0048882D01*
X0077760Y0049481D02*
X0079500Y0049481D01*
X0079500Y0050079D02*
X0078008Y0050079D01*
X0078256Y0050678D02*
X0079500Y0050678D01*
X0078954Y0051276D02*
X0078300Y0051276D01*
X0078300Y0051875D02*
X0078355Y0051875D01*
X0081302Y0054868D02*
X0096469Y0054868D01*
X0096678Y0055076D02*
X0095524Y0053922D01*
X0094900Y0052416D01*
X0094900Y0050784D01*
X0095524Y0049278D01*
X0096678Y0048124D01*
X0098184Y0047500D01*
X0105016Y0047500D01*
X0106522Y0048124D01*
X0107676Y0049278D01*
X0108300Y0050784D01*
X0108300Y0052416D01*
X0107676Y0053922D01*
X0106522Y0055076D01*
X0105016Y0055700D01*
X0098184Y0055700D01*
X0096678Y0055076D01*
X0097620Y0055466D02*
X0080704Y0055466D01*
X0080105Y0056065D02*
X0138095Y0056065D01*
X0138693Y0056663D02*
X0079507Y0056663D01*
X0079345Y0057262D02*
X0139292Y0057262D01*
X0139500Y0057470D02*
X0136419Y0054389D01*
X0136045Y0054389D01*
X0135020Y0053964D01*
X0134236Y0053180D01*
X0133811Y0052155D01*
X0133811Y0051045D01*
X0134236Y0050020D01*
X0135020Y0049236D01*
X0136045Y0048811D01*
X0137155Y0048811D01*
X0138180Y0049236D01*
X0138964Y0050020D01*
X0139389Y0051045D01*
X0139389Y0051419D01*
X0142470Y0054500D01*
X0143700Y0055730D01*
X0143700Y0080730D01*
X0146781Y0083811D01*
X0147155Y0083811D01*
X0148180Y0084236D01*
X0148964Y0085020D01*
X0149389Y0086045D01*
X0149389Y0087155D01*
X0148964Y0088180D01*
X0148180Y0088964D01*
X0147155Y0089389D01*
X0146045Y0089389D01*
X0145020Y0088964D01*
X0144236Y0088180D01*
X0143811Y0087155D01*
X0143811Y0086781D01*
X0140730Y0083700D01*
X0139500Y0082470D01*
X0139500Y0057470D01*
X0139500Y0057860D02*
X0105885Y0057860D01*
X0106522Y0058124D02*
X0105016Y0057500D01*
X0098184Y0057500D01*
X0096678Y0058124D01*
X0095524Y0059278D01*
X0094900Y0060784D01*
X0094900Y0062416D01*
X0095524Y0063922D01*
X0096678Y0065076D01*
X0098184Y0065700D01*
X0105016Y0065700D01*
X0106522Y0065076D01*
X0107676Y0063922D01*
X0108300Y0062416D01*
X0108300Y0060784D01*
X0107676Y0059278D01*
X0106522Y0058124D01*
X0106857Y0058459D02*
X0139500Y0058459D01*
X0139500Y0059057D02*
X0132749Y0059057D01*
X0133180Y0059236D02*
X0133964Y0060020D01*
X0134389Y0061045D01*
X0134389Y0061419D01*
X0138700Y0065730D01*
X0138700Y0090730D01*
X0141781Y0093811D01*
X0142155Y0093811D01*
X0143180Y0094236D01*
X0143964Y0095020D01*
X0144389Y0096045D01*
X0144389Y0097155D01*
X0143964Y0098180D01*
X0143180Y0098964D01*
X0142155Y0099389D01*
X0141045Y0099389D01*
X0140020Y0098964D01*
X0139236Y0098180D01*
X0138811Y0097155D01*
X0138811Y0096781D01*
X0134500Y0092470D01*
X0134500Y0067470D01*
X0131419Y0064389D01*
X0131045Y0064389D01*
X0130020Y0063964D01*
X0129236Y0063180D01*
X0128811Y0062155D01*
X0128811Y0061045D01*
X0129236Y0060020D01*
X0130020Y0059236D01*
X0131045Y0058811D01*
X0132155Y0058811D01*
X0133180Y0059236D01*
X0133600Y0059656D02*
X0139500Y0059656D01*
X0139500Y0060254D02*
X0134061Y0060254D01*
X0134309Y0060853D02*
X0139500Y0060853D01*
X0139500Y0061451D02*
X0134421Y0061451D01*
X0135019Y0062050D02*
X0139500Y0062050D01*
X0139500Y0062648D02*
X0135618Y0062648D01*
X0136217Y0063247D02*
X0139500Y0063247D01*
X0139500Y0063845D02*
X0136815Y0063845D01*
X0137414Y0064444D02*
X0139500Y0064444D01*
X0139500Y0065042D02*
X0138012Y0065042D01*
X0138611Y0065641D02*
X0139500Y0065641D01*
X0139500Y0066239D02*
X0138700Y0066239D01*
X0138700Y0066838D02*
X0139500Y0066838D01*
X0139500Y0067436D02*
X0138700Y0067436D01*
X0138700Y0068035D02*
X0139500Y0068035D01*
X0139500Y0068633D02*
X0138700Y0068633D01*
X0138700Y0069232D02*
X0139500Y0069232D01*
X0139500Y0069830D02*
X0138700Y0069830D01*
X0138700Y0070429D02*
X0139500Y0070429D01*
X0139500Y0071027D02*
X0138700Y0071027D01*
X0138700Y0071626D02*
X0139500Y0071626D01*
X0139500Y0072224D02*
X0138700Y0072224D01*
X0138700Y0072823D02*
X0139500Y0072823D01*
X0139500Y0073421D02*
X0138700Y0073421D01*
X0138700Y0074020D02*
X0139500Y0074020D01*
X0139500Y0074618D02*
X0138700Y0074618D01*
X0138700Y0075217D02*
X0139500Y0075217D01*
X0139500Y0075815D02*
X0138700Y0075815D01*
X0138700Y0076414D02*
X0139500Y0076414D01*
X0139500Y0077012D02*
X0138700Y0077012D01*
X0138700Y0077611D02*
X0139500Y0077611D01*
X0139500Y0078209D02*
X0138700Y0078209D01*
X0138700Y0078808D02*
X0139500Y0078808D01*
X0139500Y0079406D02*
X0138700Y0079406D01*
X0138700Y0080005D02*
X0139500Y0080005D01*
X0139500Y0080603D02*
X0138700Y0080603D01*
X0138700Y0081202D02*
X0139500Y0081202D01*
X0139500Y0081801D02*
X0138700Y0081801D01*
X0138700Y0082399D02*
X0139500Y0082399D01*
X0140028Y0082998D02*
X0138700Y0082998D01*
X0138700Y0083596D02*
X0140626Y0083596D01*
X0140730Y0083700D02*
X0140730Y0083700D01*
X0141225Y0084195D02*
X0138700Y0084195D01*
X0138700Y0084793D02*
X0141823Y0084793D01*
X0142422Y0085392D02*
X0138700Y0085392D01*
X0138700Y0085990D02*
X0143020Y0085990D01*
X0143619Y0086589D02*
X0138700Y0086589D01*
X0138700Y0087187D02*
X0143824Y0087187D01*
X0144072Y0087786D02*
X0138700Y0087786D01*
X0138700Y0088384D02*
X0144440Y0088384D01*
X0145064Y0088983D02*
X0138700Y0088983D01*
X0138700Y0089581D02*
X0168900Y0089581D01*
X0168900Y0088983D02*
X0148136Y0088983D01*
X0148760Y0088384D02*
X0168900Y0088384D01*
X0168900Y0087786D02*
X0149128Y0087786D01*
X0149376Y0087187D02*
X0168900Y0087187D01*
X0168900Y0086589D02*
X0149389Y0086589D01*
X0149366Y0085990D02*
X0168900Y0085990D01*
X0168900Y0085392D02*
X0149118Y0085392D01*
X0148737Y0084793D02*
X0168900Y0084793D01*
X0168900Y0084195D02*
X0148081Y0084195D01*
X0146566Y0083596D02*
X0168900Y0083596D01*
X0168900Y0082998D02*
X0145967Y0082998D01*
X0145369Y0082399D02*
X0168900Y0082399D01*
X0168900Y0081801D02*
X0144770Y0081801D01*
X0144172Y0081202D02*
X0168900Y0081202D01*
X0168900Y0080603D02*
X0143700Y0080603D01*
X0143700Y0080005D02*
X0168900Y0080005D01*
X0168900Y0079406D02*
X0143700Y0079406D01*
X0143700Y0078808D02*
X0164864Y0078808D01*
X0165020Y0078964D02*
X0164236Y0078180D01*
X0163811Y0077155D01*
X0163811Y0076045D01*
X0164236Y0075020D01*
X0165020Y0074236D01*
X0166045Y0073811D01*
X0167155Y0073811D01*
X0167370Y0073900D01*
X0168900Y0073900D01*
X0168900Y0044300D01*
X0162370Y0044300D01*
X0162155Y0044389D01*
X0161045Y0044389D01*
X0160020Y0043964D01*
X0159236Y0043180D01*
X0158811Y0042155D01*
X0158811Y0041045D01*
X0159236Y0040020D01*
X0160020Y0039236D01*
X0161045Y0038811D01*
X0162155Y0038811D01*
X0162370Y0038900D01*
X0167608Y0038900D01*
X0169147Y0037361D01*
X0169236Y0037146D01*
X0170020Y0036362D01*
X0171045Y0035937D01*
X0172155Y0035937D01*
X0173180Y0036362D01*
X0173964Y0037146D01*
X0174389Y0038171D01*
X0174389Y0039281D01*
X0174300Y0039496D01*
X0174300Y0123962D01*
X0173950Y0124807D01*
X0173950Y0128421D01*
X0173071Y0129300D01*
X0168329Y0129300D01*
X0167450Y0128421D01*
X0167450Y0120229D01*
X0168329Y0119350D01*
X0168900Y0119350D01*
X0168900Y0104300D01*
X0163502Y0104300D01*
X0162733Y0105068D01*
X0157160Y0105068D01*
X0156459Y0104367D01*
X0156217Y0104609D01*
X0155921Y0104780D01*
X0155590Y0104868D01*
X0153554Y0104868D01*
X0153554Y0101900D01*
X0152954Y0101900D01*
X0152954Y0104868D01*
X0150917Y0104868D01*
X0150586Y0104780D01*
X0150290Y0104609D01*
X0150048Y0104367D01*
X0149877Y0104070D01*
X0149788Y0103740D01*
X0149788Y0101900D01*
X0152953Y0101900D01*
X0152953Y0101300D01*
X0149788Y0101300D01*
X0149788Y0099460D01*
X0149877Y0099130D01*
X0150048Y0098833D01*
X0150290Y0098591D01*
X0150586Y0098420D01*
X0150917Y0098331D01*
X0152954Y0098331D01*
X0152954Y0101300D01*
X0153554Y0101300D01*
X0153554Y0098331D01*
X0155590Y0098331D01*
X0155921Y0098420D01*
X0156217Y0098591D01*
X0156459Y0098833D01*
X0157160Y0098131D01*
X0162733Y0098131D01*
X0163502Y0098900D01*
X0168900Y0098900D01*
X0168900Y0079300D01*
X0167370Y0079300D01*
X0167155Y0079389D01*
X0166045Y0079389D01*
X0165020Y0078964D01*
X0164265Y0078209D02*
X0143700Y0078209D01*
X0143700Y0077611D02*
X0164000Y0077611D01*
X0163811Y0077012D02*
X0143700Y0077012D01*
X0143700Y0076414D02*
X0163811Y0076414D01*
X0163906Y0075815D02*
X0143700Y0075815D01*
X0143700Y0075217D02*
X0164154Y0075217D01*
X0164637Y0074618D02*
X0143700Y0074618D01*
X0143700Y0074020D02*
X0165541Y0074020D01*
X0168900Y0073421D02*
X0143700Y0073421D01*
X0143700Y0072823D02*
X0168900Y0072823D01*
X0168900Y0072224D02*
X0143700Y0072224D01*
X0143700Y0071626D02*
X0168900Y0071626D01*
X0168900Y0071027D02*
X0143700Y0071027D01*
X0143700Y0070429D02*
X0168900Y0070429D01*
X0168900Y0069830D02*
X0143700Y0069830D01*
X0143700Y0069232D02*
X0168900Y0069232D01*
X0168900Y0068633D02*
X0143700Y0068633D01*
X0143700Y0068035D02*
X0168900Y0068035D01*
X0168900Y0067436D02*
X0143700Y0067436D01*
X0143700Y0066838D02*
X0168900Y0066838D01*
X0168900Y0066239D02*
X0143700Y0066239D01*
X0143700Y0065641D02*
X0168900Y0065641D01*
X0168900Y0065042D02*
X0143700Y0065042D01*
X0143700Y0064444D02*
X0168900Y0064444D01*
X0168900Y0063845D02*
X0143700Y0063845D01*
X0143700Y0063247D02*
X0168900Y0063247D01*
X0168900Y0062648D02*
X0143700Y0062648D01*
X0143700Y0062050D02*
X0168900Y0062050D01*
X0168900Y0061451D02*
X0143700Y0061451D01*
X0143700Y0060853D02*
X0168900Y0060853D01*
X0168900Y0060254D02*
X0143700Y0060254D01*
X0143700Y0059656D02*
X0168900Y0059656D01*
X0168900Y0059057D02*
X0143700Y0059057D01*
X0143700Y0058459D02*
X0168900Y0058459D01*
X0168900Y0057860D02*
X0143700Y0057860D01*
X0143700Y0057262D02*
X0168900Y0057262D01*
X0168900Y0056663D02*
X0143700Y0056663D01*
X0143700Y0056065D02*
X0168900Y0056065D01*
X0168900Y0055466D02*
X0143436Y0055466D01*
X0142837Y0054868D02*
X0168900Y0054868D01*
X0168900Y0054269D02*
X0142239Y0054269D01*
X0141640Y0053670D02*
X0168900Y0053670D01*
X0168900Y0053072D02*
X0141042Y0053072D01*
X0140443Y0052473D02*
X0168900Y0052473D01*
X0168900Y0051875D02*
X0139845Y0051875D01*
X0139389Y0051276D02*
X0168900Y0051276D01*
X0168900Y0050678D02*
X0139237Y0050678D01*
X0138989Y0050079D02*
X0168900Y0050079D01*
X0168900Y0049481D02*
X0138425Y0049481D01*
X0137327Y0048882D02*
X0168900Y0048882D01*
X0168900Y0048284D02*
X0106682Y0048284D01*
X0107281Y0048882D02*
X0135873Y0048882D01*
X0134775Y0049481D02*
X0107760Y0049481D01*
X0108008Y0050079D02*
X0134211Y0050079D01*
X0133963Y0050678D02*
X0108256Y0050678D01*
X0108300Y0051276D02*
X0133811Y0051276D01*
X0133811Y0051875D02*
X0108300Y0051875D01*
X0108276Y0052473D02*
X0133943Y0052473D01*
X0134191Y0053072D02*
X0108028Y0053072D01*
X0107780Y0053670D02*
X0134726Y0053670D01*
X0135756Y0054269D02*
X0107329Y0054269D01*
X0106731Y0054868D02*
X0136898Y0054868D01*
X0137496Y0055466D02*
X0105580Y0055466D01*
X0107455Y0059057D02*
X0130451Y0059057D01*
X0129600Y0059656D02*
X0107832Y0059656D01*
X0108080Y0060254D02*
X0129139Y0060254D01*
X0128891Y0060853D02*
X0108300Y0060853D01*
X0108300Y0061451D02*
X0128811Y0061451D01*
X0128811Y0062050D02*
X0108300Y0062050D01*
X0108204Y0062648D02*
X0129015Y0062648D01*
X0129302Y0063247D02*
X0107956Y0063247D01*
X0107708Y0063845D02*
X0129901Y0063845D01*
X0131474Y0064444D02*
X0107155Y0064444D01*
X0106556Y0065042D02*
X0132072Y0065042D01*
X0132671Y0065641D02*
X0105159Y0065641D01*
X0105016Y0067500D02*
X0106522Y0068124D01*
X0107676Y0069278D01*
X0108300Y0070784D01*
X0108300Y0072416D01*
X0107676Y0073922D01*
X0106522Y0075076D01*
X0105016Y0075700D01*
X0098184Y0075700D01*
X0096678Y0075076D01*
X0095524Y0073922D01*
X0094900Y0072416D01*
X0094900Y0070784D01*
X0095524Y0069278D01*
X0096678Y0068124D01*
X0098184Y0067500D01*
X0105016Y0067500D01*
X0106307Y0068035D02*
X0134500Y0068035D01*
X0134500Y0068633D02*
X0107032Y0068633D01*
X0107630Y0069232D02*
X0125029Y0069232D01*
X0124425Y0069830D02*
X0107905Y0069830D01*
X0108153Y0070429D02*
X0124066Y0070429D01*
X0123818Y0071027D02*
X0108300Y0071027D01*
X0108300Y0071626D02*
X0123811Y0071626D01*
X0123840Y0072224D02*
X0108300Y0072224D01*
X0108131Y0072823D02*
X0124088Y0072823D01*
X0124477Y0073421D02*
X0107883Y0073421D01*
X0107578Y0074020D02*
X0125154Y0074020D01*
X0126649Y0074618D02*
X0106980Y0074618D01*
X0106182Y0075217D02*
X0127247Y0075217D01*
X0127846Y0075815D02*
X0048700Y0075815D01*
X0048700Y0075217D02*
X0067018Y0075217D01*
X0066678Y0075076D02*
X0065524Y0073922D01*
X0064900Y0072416D01*
X0064900Y0070784D01*
X0065524Y0069278D01*
X0066678Y0068124D01*
X0068184Y0067500D01*
X0075016Y0067500D01*
X0076522Y0068124D01*
X0077676Y0069278D01*
X0078300Y0070784D01*
X0078300Y0072416D01*
X0077676Y0073922D01*
X0076522Y0075076D01*
X0075016Y0075700D01*
X0068184Y0075700D01*
X0066678Y0075076D01*
X0066220Y0074618D02*
X0048700Y0074618D01*
X0048700Y0074020D02*
X0065622Y0074020D01*
X0065317Y0073421D02*
X0048700Y0073421D01*
X0048700Y0072823D02*
X0053541Y0072823D01*
X0053591Y0072910D02*
X0053420Y0072614D01*
X0053331Y0072283D01*
X0053331Y0070246D01*
X0056300Y0070246D01*
X0056300Y0069646D01*
X0053331Y0069646D01*
X0053331Y0067610D01*
X0053420Y0067279D01*
X0053591Y0066983D01*
X0053833Y0066741D01*
X0053131Y0066040D01*
X0053131Y0060467D01*
X0054010Y0059588D01*
X0054500Y0059588D01*
X0054500Y0058444D01*
X0054236Y0058180D01*
X0053811Y0057155D01*
X0053811Y0056045D01*
X0054236Y0055020D01*
X0055020Y0054236D01*
X0056045Y0053811D01*
X0057155Y0053811D01*
X0058180Y0054236D01*
X0058964Y0055020D01*
X0059389Y0056045D01*
X0059389Y0057155D01*
X0058964Y0058180D01*
X0058700Y0058444D01*
X0058700Y0059588D01*
X0059190Y0059588D01*
X0060068Y0060467D01*
X0060068Y0066040D01*
X0059367Y0066741D01*
X0059609Y0066983D01*
X0059780Y0067279D01*
X0059868Y0067610D01*
X0059868Y0069646D01*
X0056900Y0069646D01*
X0056900Y0070246D01*
X0059868Y0070246D01*
X0059868Y0072283D01*
X0059780Y0072614D01*
X0059609Y0072910D01*
X0059367Y0073152D01*
X0059070Y0073323D01*
X0058740Y0073412D01*
X0056900Y0073412D01*
X0056900Y0070246D01*
X0056300Y0070246D01*
X0056300Y0073412D01*
X0054460Y0073412D01*
X0054130Y0073323D01*
X0053833Y0073152D01*
X0053591Y0072910D01*
X0053331Y0072224D02*
X0048700Y0072224D01*
X0048700Y0071626D02*
X0053331Y0071626D01*
X0053331Y0071027D02*
X0048700Y0071027D01*
X0048700Y0070429D02*
X0053331Y0070429D01*
X0053331Y0069232D02*
X0048700Y0069232D01*
X0048700Y0069830D02*
X0056300Y0069830D01*
X0056300Y0070429D02*
X0056900Y0070429D01*
X0056900Y0071027D02*
X0056300Y0071027D01*
X0056300Y0071626D02*
X0056900Y0071626D01*
X0056900Y0072224D02*
X0056300Y0072224D01*
X0056300Y0072823D02*
X0056900Y0072823D01*
X0056900Y0069830D02*
X0065295Y0069830D01*
X0065047Y0070429D02*
X0059868Y0070429D01*
X0059868Y0071027D02*
X0064900Y0071027D01*
X0064900Y0071626D02*
X0059868Y0071626D01*
X0059868Y0072224D02*
X0064900Y0072224D01*
X0065069Y0072823D02*
X0059659Y0072823D01*
X0059868Y0069232D02*
X0065570Y0069232D01*
X0066168Y0068633D02*
X0059868Y0068633D01*
X0059868Y0068035D02*
X0066893Y0068035D01*
X0068041Y0065641D02*
X0060068Y0065641D01*
X0060068Y0065042D02*
X0066644Y0065042D01*
X0066045Y0064444D02*
X0060068Y0064444D01*
X0060068Y0063845D02*
X0065492Y0063845D01*
X0065244Y0063247D02*
X0060068Y0063247D01*
X0060068Y0062648D02*
X0064996Y0062648D01*
X0064900Y0062050D02*
X0060068Y0062050D01*
X0060068Y0061451D02*
X0064900Y0061451D01*
X0064900Y0060853D02*
X0060068Y0060853D01*
X0059856Y0060254D02*
X0065120Y0060254D01*
X0065368Y0059656D02*
X0059257Y0059656D01*
X0058700Y0059057D02*
X0065745Y0059057D01*
X0066343Y0058459D02*
X0058700Y0058459D01*
X0059097Y0057860D02*
X0067315Y0057860D01*
X0067620Y0055466D02*
X0059149Y0055466D01*
X0059389Y0056065D02*
X0073811Y0056065D01*
X0073811Y0056663D02*
X0059389Y0056663D01*
X0059345Y0057262D02*
X0073855Y0057262D01*
X0077956Y0059057D02*
X0095745Y0059057D01*
X0095368Y0059656D02*
X0077832Y0059656D01*
X0078080Y0060254D02*
X0095120Y0060254D01*
X0094900Y0060853D02*
X0078300Y0060853D01*
X0078300Y0061451D02*
X0094900Y0061451D01*
X0094900Y0062050D02*
X0078300Y0062050D01*
X0078204Y0062648D02*
X0094996Y0062648D01*
X0095244Y0063247D02*
X0077956Y0063247D01*
X0077708Y0063845D02*
X0095492Y0063845D01*
X0096045Y0064444D02*
X0077155Y0064444D01*
X0076556Y0065042D02*
X0096644Y0065042D01*
X0098041Y0065641D02*
X0075159Y0065641D01*
X0076307Y0068035D02*
X0096893Y0068035D01*
X0096168Y0068633D02*
X0077032Y0068633D01*
X0077630Y0069232D02*
X0095570Y0069232D01*
X0095295Y0069830D02*
X0077905Y0069830D01*
X0078153Y0070429D02*
X0095047Y0070429D01*
X0094900Y0071027D02*
X0078300Y0071027D01*
X0078300Y0071626D02*
X0094900Y0071626D01*
X0094900Y0072224D02*
X0078300Y0072224D01*
X0078131Y0072823D02*
X0095069Y0072823D01*
X0095317Y0073421D02*
X0077883Y0073421D01*
X0077578Y0074020D02*
X0095622Y0074020D01*
X0096220Y0074618D02*
X0076980Y0074618D01*
X0076182Y0075217D02*
X0097018Y0075217D01*
X0097862Y0077850D02*
X0098616Y0077700D01*
X0101300Y0077700D01*
X0101300Y0081300D01*
X0101900Y0081300D01*
X0101900Y0081900D01*
X0101300Y0081900D01*
X0101300Y0085500D01*
X0098616Y0085500D01*
X0097862Y0085350D01*
X0097153Y0085056D01*
X0096514Y0084629D01*
X0095971Y0084086D01*
X0095544Y0083447D01*
X0095250Y0082738D01*
X0095100Y0081984D01*
X0095100Y0081900D01*
X0101300Y0081900D01*
X0101300Y0081300D01*
X0095100Y0081300D01*
X0095100Y0081216D01*
X0095250Y0080462D01*
X0095544Y0079753D01*
X0095971Y0079114D01*
X0096514Y0078571D01*
X0097153Y0078144D01*
X0097862Y0077850D01*
X0097054Y0078209D02*
X0076608Y0078209D01*
X0076522Y0078124D02*
X0077676Y0079278D01*
X0078300Y0080784D01*
X0078300Y0082416D01*
X0077676Y0083922D01*
X0076522Y0085076D01*
X0075016Y0085700D01*
X0068184Y0085700D01*
X0066678Y0085076D01*
X0065577Y0083976D01*
X0061346Y0083976D01*
X0060942Y0084379D01*
X0060987Y0084424D01*
X0061158Y0084720D01*
X0061246Y0085051D01*
X0061246Y0086300D01*
X0056900Y0086300D01*
X0056900Y0086900D01*
X0061246Y0086900D01*
X0061246Y0088149D01*
X0061158Y0088480D01*
X0060987Y0088776D01*
X0060942Y0088821D01*
X0061446Y0089325D01*
X0061446Y0089500D01*
X0065432Y0089500D01*
X0065524Y0089278D01*
X0066678Y0088124D01*
X0068184Y0087500D01*
X0075016Y0087500D01*
X0076522Y0088124D01*
X0077676Y0089278D01*
X0078300Y0090784D01*
X0078300Y0092416D01*
X0077676Y0093922D01*
X0076522Y0095076D01*
X0075016Y0095700D01*
X0068184Y0095700D01*
X0066678Y0095076D01*
X0065524Y0093922D01*
X0065432Y0093700D01*
X0061070Y0093700D01*
X0060568Y0094202D01*
X0052632Y0094202D01*
X0051754Y0093324D01*
X0051754Y0089325D01*
X0052258Y0088821D01*
X0052213Y0088776D01*
X0052042Y0088480D01*
X0051954Y0088149D01*
X0051954Y0086900D01*
X0056300Y0086900D01*
X0056300Y0086300D01*
X0051954Y0086300D01*
X0051954Y0085051D01*
X0052042Y0084720D01*
X0052213Y0084424D01*
X0052258Y0084379D01*
X0051754Y0083875D01*
X0051754Y0079876D01*
X0052632Y0078998D01*
X0060568Y0078998D01*
X0061346Y0079776D01*
X0065318Y0079776D01*
X0065524Y0079278D01*
X0066678Y0078124D01*
X0068184Y0077500D01*
X0075016Y0077500D01*
X0076522Y0078124D01*
X0077206Y0078808D02*
X0096277Y0078808D01*
X0095775Y0079406D02*
X0093351Y0079406D01*
X0093180Y0079236D02*
X0093964Y0080020D01*
X0094389Y0081045D01*
X0094389Y0082155D01*
X0093964Y0083180D01*
X0093700Y0083444D01*
X0093700Y0159756D01*
X0093964Y0160020D01*
X0094389Y0161045D01*
X0094389Y0162155D01*
X0093964Y0163180D01*
X0093180Y0163964D01*
X0092155Y0164389D01*
X0091045Y0164389D01*
X0090020Y0163964D01*
X0089236Y0163180D01*
X0088811Y0162155D01*
X0088811Y0161045D01*
X0089236Y0160020D01*
X0089500Y0159756D01*
X0089500Y0083444D01*
X0089236Y0083180D01*
X0088811Y0082155D01*
X0088811Y0081045D01*
X0089236Y0080020D01*
X0090020Y0079236D01*
X0091045Y0078811D01*
X0092155Y0078811D01*
X0093180Y0079236D01*
X0093949Y0080005D02*
X0095439Y0080005D01*
X0095222Y0080603D02*
X0094206Y0080603D01*
X0094389Y0081202D02*
X0095103Y0081202D01*
X0094389Y0081801D02*
X0101300Y0081801D01*
X0101300Y0082399D02*
X0101900Y0082399D01*
X0101900Y0081900D02*
X0101900Y0085500D01*
X0104584Y0085500D01*
X0105338Y0085350D01*
X0106047Y0085056D01*
X0106686Y0084629D01*
X0107229Y0084086D01*
X0107656Y0083447D01*
X0107950Y0082738D01*
X0108100Y0081984D01*
X0108100Y0081900D01*
X0101900Y0081900D01*
X0101900Y0081801D02*
X0129500Y0081801D01*
X0129500Y0082399D02*
X0108017Y0082399D01*
X0107842Y0082998D02*
X0129500Y0082998D01*
X0129500Y0083596D02*
X0107557Y0083596D01*
X0107121Y0084195D02*
X0129500Y0084195D01*
X0129500Y0084793D02*
X0106441Y0084793D01*
X0105129Y0085392D02*
X0129500Y0085392D01*
X0129500Y0085990D02*
X0093700Y0085990D01*
X0093700Y0085392D02*
X0098071Y0085392D01*
X0096759Y0084793D02*
X0093700Y0084793D01*
X0093700Y0084195D02*
X0096079Y0084195D01*
X0095643Y0083596D02*
X0093700Y0083596D01*
X0094040Y0082998D02*
X0095358Y0082998D01*
X0095183Y0082399D02*
X0094288Y0082399D01*
X0093700Y0086589D02*
X0129500Y0086589D01*
X0129500Y0087187D02*
X0093700Y0087187D01*
X0093700Y0087786D02*
X0097495Y0087786D01*
X0098184Y0087500D02*
X0096678Y0088124D01*
X0095524Y0089278D01*
X0094900Y0090784D01*
X0094900Y0092416D01*
X0095524Y0093922D01*
X0096678Y0095076D01*
X0098184Y0095700D01*
X0105016Y0095700D01*
X0106522Y0095076D01*
X0107676Y0093922D01*
X0107768Y0093700D01*
X0109588Y0093700D01*
X0109588Y0094190D01*
X0110467Y0095068D01*
X0116040Y0095068D01*
X0116741Y0094367D01*
X0116983Y0094609D01*
X0117279Y0094780D01*
X0117610Y0094868D01*
X0119646Y0094868D01*
X0119646Y0091900D01*
X0120246Y0091900D01*
X0120246Y0094868D01*
X0122283Y0094868D01*
X0122614Y0094780D01*
X0122910Y0094609D01*
X0123152Y0094367D01*
X0123323Y0094070D01*
X0123412Y0093740D01*
X0123412Y0091900D01*
X0120246Y0091900D01*
X0120246Y0091300D01*
X0120246Y0088331D01*
X0122283Y0088331D01*
X0122614Y0088420D01*
X0122910Y0088591D01*
X0123152Y0088833D01*
X0123323Y0089130D01*
X0123412Y0089460D01*
X0123412Y0091300D01*
X0120246Y0091300D01*
X0119646Y0091300D01*
X0119646Y0088331D01*
X0117610Y0088331D01*
X0117279Y0088420D01*
X0116983Y0088591D01*
X0116741Y0088833D01*
X0116040Y0088131D01*
X0110467Y0088131D01*
X0109588Y0089010D01*
X0109588Y0089500D01*
X0107768Y0089500D01*
X0107676Y0089278D01*
X0106522Y0088124D01*
X0105016Y0087500D01*
X0098184Y0087500D01*
X0096418Y0088384D02*
X0093700Y0088384D01*
X0093700Y0088983D02*
X0095819Y0088983D01*
X0095398Y0089581D02*
X0093700Y0089581D01*
X0093700Y0090180D02*
X0095151Y0090180D01*
X0094903Y0090778D02*
X0093700Y0090778D01*
X0093700Y0091377D02*
X0094900Y0091377D01*
X0094900Y0091975D02*
X0093700Y0091975D01*
X0093700Y0092574D02*
X0094966Y0092574D01*
X0095213Y0093172D02*
X0093700Y0093172D01*
X0093700Y0093771D02*
X0095461Y0093771D01*
X0095971Y0094369D02*
X0093700Y0094369D01*
X0093700Y0094968D02*
X0096570Y0094968D01*
X0097862Y0095566D02*
X0093700Y0095566D01*
X0093700Y0096165D02*
X0129500Y0096165D01*
X0129500Y0096763D02*
X0093700Y0096763D01*
X0089500Y0096763D02*
X0029407Y0096763D01*
X0029303Y0097362D02*
X0089500Y0097362D01*
X0089500Y0097960D02*
X0075604Y0097960D01*
X0076668Y0098559D02*
X0089500Y0098559D01*
X0089500Y0099157D02*
X0077258Y0099157D01*
X0077657Y0099756D02*
X0089500Y0099756D01*
X0089500Y0100354D02*
X0077905Y0100354D01*
X0078048Y0100953D02*
X0089500Y0100953D01*
X0089500Y0096165D02*
X0030005Y0096165D01*
X0030604Y0095566D02*
X0067862Y0095566D01*
X0066570Y0094968D02*
X0031202Y0094968D01*
X0031801Y0094369D02*
X0065971Y0094369D01*
X0065461Y0093771D02*
X0060999Y0093771D01*
X0061104Y0088983D02*
X0065819Y0088983D01*
X0066418Y0088384D02*
X0061183Y0088384D01*
X0061246Y0087786D02*
X0067495Y0087786D01*
X0067440Y0085392D02*
X0061246Y0085392D01*
X0061246Y0085990D02*
X0089500Y0085990D01*
X0089500Y0085392D02*
X0075760Y0085392D01*
X0076805Y0084793D02*
X0089500Y0084793D01*
X0089500Y0084195D02*
X0077404Y0084195D01*
X0077811Y0083596D02*
X0089500Y0083596D01*
X0089160Y0082998D02*
X0078059Y0082998D01*
X0078300Y0082399D02*
X0088912Y0082399D01*
X0088811Y0081801D02*
X0078300Y0081801D01*
X0078300Y0081202D02*
X0088811Y0081202D01*
X0088994Y0080603D02*
X0078225Y0080603D01*
X0077977Y0080005D02*
X0089251Y0080005D01*
X0089849Y0079406D02*
X0077729Y0079406D01*
X0075283Y0077611D02*
X0129500Y0077611D01*
X0129500Y0078209D02*
X0106145Y0078209D01*
X0106047Y0078144D02*
X0106686Y0078571D01*
X0107229Y0079114D01*
X0107656Y0079753D01*
X0107950Y0080462D01*
X0108100Y0081216D01*
X0108100Y0081300D01*
X0101900Y0081300D01*
X0101900Y0077700D01*
X0104584Y0077700D01*
X0105338Y0077850D01*
X0106047Y0078144D01*
X0106923Y0078808D02*
X0129500Y0078808D01*
X0129500Y0079406D02*
X0107425Y0079406D01*
X0107761Y0080005D02*
X0129500Y0080005D01*
X0129500Y0080603D02*
X0107978Y0080603D01*
X0108097Y0081202D02*
X0129500Y0081202D01*
X0133700Y0081202D02*
X0134500Y0081202D01*
X0134500Y0080603D02*
X0133700Y0080603D01*
X0133700Y0080005D02*
X0134500Y0080005D01*
X0134500Y0079406D02*
X0133700Y0079406D01*
X0133700Y0078808D02*
X0134500Y0078808D01*
X0134500Y0078209D02*
X0133700Y0078209D01*
X0133700Y0077611D02*
X0134500Y0077611D01*
X0134500Y0077012D02*
X0133700Y0077012D01*
X0133700Y0076414D02*
X0134500Y0076414D01*
X0134500Y0075815D02*
X0133700Y0075815D01*
X0133187Y0075217D02*
X0134500Y0075217D01*
X0134500Y0074618D02*
X0132588Y0074618D01*
X0131990Y0074020D02*
X0134500Y0074020D01*
X0134500Y0073421D02*
X0131391Y0073421D01*
X0130793Y0072823D02*
X0134500Y0072823D01*
X0134500Y0072224D02*
X0130194Y0072224D01*
X0129596Y0071626D02*
X0134500Y0071626D01*
X0134500Y0071027D02*
X0129382Y0071027D01*
X0129134Y0070429D02*
X0134500Y0070429D01*
X0134500Y0069830D02*
X0128774Y0069830D01*
X0128171Y0069232D02*
X0134500Y0069232D01*
X0134466Y0067436D02*
X0059822Y0067436D01*
X0059464Y0066838D02*
X0133868Y0066838D01*
X0133269Y0066239D02*
X0059869Y0066239D01*
X0053736Y0066838D02*
X0049389Y0066838D01*
X0049389Y0067155D02*
X0049389Y0066045D01*
X0048964Y0065020D01*
X0048180Y0064236D01*
X0047155Y0063811D01*
X0046045Y0063811D01*
X0045020Y0064236D01*
X0044236Y0065020D01*
X0043811Y0066045D01*
X0043811Y0067155D01*
X0044236Y0068180D01*
X0044500Y0068444D01*
X0044500Y0080730D01*
X0041419Y0083811D01*
X0041045Y0083811D01*
X0040020Y0084236D01*
X0039236Y0085020D01*
X0038811Y0086045D01*
X0038811Y0087155D01*
X0039236Y0088180D01*
X0040020Y0088964D01*
X0041045Y0089389D01*
X0042155Y0089389D01*
X0043180Y0088964D01*
X0043964Y0088180D01*
X0044389Y0087155D01*
X0044389Y0086781D01*
X0047470Y0083700D01*
X0048700Y0082470D01*
X0048700Y0068444D01*
X0048964Y0068180D01*
X0049389Y0067155D01*
X0049272Y0067436D02*
X0053378Y0067436D01*
X0053331Y0068035D02*
X0049024Y0068035D01*
X0048700Y0068633D02*
X0053331Y0068633D01*
X0053330Y0066239D02*
X0049389Y0066239D01*
X0049221Y0065641D02*
X0053131Y0065641D01*
X0053131Y0065042D02*
X0048973Y0065042D01*
X0048388Y0064444D02*
X0053131Y0064444D01*
X0053131Y0063845D02*
X0047237Y0063845D01*
X0045963Y0063845D02*
X0033700Y0063845D01*
X0033700Y0063247D02*
X0053131Y0063247D01*
X0053131Y0062648D02*
X0033700Y0062648D01*
X0033700Y0062050D02*
X0053131Y0062050D01*
X0053131Y0061451D02*
X0033700Y0061451D01*
X0033700Y0060853D02*
X0053131Y0060853D01*
X0053344Y0060254D02*
X0033700Y0060254D01*
X0033700Y0059656D02*
X0053943Y0059656D01*
X0054500Y0059057D02*
X0033700Y0059057D01*
X0033700Y0058459D02*
X0054500Y0058459D01*
X0054103Y0057860D02*
X0033700Y0057860D01*
X0033700Y0057262D02*
X0053855Y0057262D01*
X0053811Y0056663D02*
X0033700Y0056663D01*
X0033700Y0056065D02*
X0053811Y0056065D01*
X0054051Y0055466D02*
X0033700Y0055466D01*
X0033700Y0054868D02*
X0054388Y0054868D01*
X0054987Y0054269D02*
X0033700Y0054269D01*
X0033700Y0053670D02*
X0065420Y0053670D01*
X0065172Y0053072D02*
X0033700Y0053072D01*
X0033700Y0052473D02*
X0064924Y0052473D01*
X0064900Y0051875D02*
X0033700Y0051875D01*
X0033700Y0051276D02*
X0064900Y0051276D01*
X0064944Y0050678D02*
X0033700Y0050678D01*
X0033700Y0050079D02*
X0065192Y0050079D01*
X0065440Y0049481D02*
X0033700Y0049481D01*
X0033700Y0048882D02*
X0065919Y0048882D01*
X0066518Y0048284D02*
X0033700Y0048284D01*
X0033700Y0046488D02*
X0079500Y0046488D01*
X0079500Y0045890D02*
X0033700Y0045890D01*
X0029500Y0045890D02*
X0003100Y0045890D01*
X0003100Y0046488D02*
X0029500Y0046488D01*
X0029500Y0047087D02*
X0003100Y0047087D01*
X0003100Y0047685D02*
X0029500Y0047685D01*
X0029500Y0048284D02*
X0003100Y0048284D01*
X0003100Y0048882D02*
X0029500Y0048882D01*
X0029500Y0049481D02*
X0003100Y0049481D01*
X0003100Y0050079D02*
X0029500Y0050079D01*
X0029500Y0050678D02*
X0003100Y0050678D01*
X0003100Y0051276D02*
X0029500Y0051276D01*
X0029500Y0051875D02*
X0003100Y0051875D01*
X0003100Y0052473D02*
X0029500Y0052473D01*
X0029500Y0053072D02*
X0003100Y0053072D01*
X0003100Y0053670D02*
X0029500Y0053670D01*
X0029500Y0054269D02*
X0003100Y0054269D01*
X0003100Y0054868D02*
X0029500Y0054868D01*
X0029500Y0055466D02*
X0003100Y0055466D01*
X0003100Y0056065D02*
X0029500Y0056065D01*
X0029500Y0056663D02*
X0003100Y0056663D01*
X0003100Y0057262D02*
X0029500Y0057262D01*
X0029500Y0057860D02*
X0003100Y0057860D01*
X0003100Y0058459D02*
X0029500Y0058459D01*
X0029500Y0059057D02*
X0003100Y0059057D01*
X0003100Y0059656D02*
X0029500Y0059656D01*
X0029500Y0060254D02*
X0003100Y0060254D01*
X0003100Y0060853D02*
X0029500Y0060853D01*
X0029500Y0061451D02*
X0003100Y0061451D01*
X0003100Y0062050D02*
X0004517Y0062050D01*
X0003533Y0062648D02*
X0003100Y0062648D01*
X0006300Y0062648D02*
X0006900Y0062648D01*
X0006900Y0062050D02*
X0006300Y0062050D01*
X0006300Y0063247D02*
X0006900Y0063247D01*
X0006900Y0063845D02*
X0006300Y0063845D01*
X0006300Y0064444D02*
X0006900Y0064444D01*
X0006900Y0065042D02*
X0006300Y0065042D01*
X0006300Y0065641D02*
X0006900Y0065641D01*
X0006900Y0066239D02*
X0006300Y0066239D01*
X0006900Y0066838D02*
X0029500Y0066838D01*
X0029500Y0067436D02*
X0011530Y0067436D01*
X0011391Y0068035D02*
X0029500Y0068035D01*
X0029500Y0068633D02*
X0011176Y0068633D01*
X0010868Y0069232D02*
X0029500Y0069232D01*
X0029500Y0069830D02*
X0010433Y0069830D01*
X0009837Y0070429D02*
X0029500Y0070429D01*
X0029500Y0071027D02*
X0008924Y0071027D01*
X0008180Y0071626D02*
X0029500Y0071626D01*
X0029500Y0072224D02*
X0009578Y0072224D01*
X0010177Y0072823D02*
X0029500Y0072823D01*
X0029500Y0073421D02*
X0010775Y0073421D01*
X0011160Y0074020D02*
X0029500Y0074020D01*
X0029500Y0074618D02*
X0011408Y0074618D01*
X0011656Y0075217D02*
X0029500Y0075217D01*
X0029500Y0075815D02*
X0011800Y0075815D01*
X0011800Y0076414D02*
X0029500Y0076414D01*
X0029500Y0077012D02*
X0011800Y0077012D01*
X0011800Y0077611D02*
X0029500Y0077611D01*
X0029500Y0078209D02*
X0011562Y0078209D01*
X0011314Y0078808D02*
X0029500Y0078808D01*
X0029500Y0079406D02*
X0011066Y0079406D01*
X0010549Y0080005D02*
X0029500Y0080005D01*
X0029500Y0080603D02*
X0009950Y0080603D01*
X0009078Y0081202D02*
X0029500Y0081202D01*
X0029500Y0081801D02*
X0008601Y0081801D01*
X0009753Y0082399D02*
X0029500Y0082399D01*
X0029500Y0082998D02*
X0010351Y0082998D01*
X0010950Y0083596D02*
X0029500Y0083596D01*
X0029500Y0084195D02*
X0011232Y0084195D01*
X0011480Y0084793D02*
X0029500Y0084793D01*
X0029500Y0085392D02*
X0011728Y0085392D01*
X0011800Y0085990D02*
X0029500Y0085990D01*
X0029500Y0086589D02*
X0011800Y0086589D01*
X0011800Y0087187D02*
X0029500Y0087187D01*
X0029500Y0087786D02*
X0011737Y0087786D01*
X0011489Y0088384D02*
X0029500Y0088384D01*
X0029500Y0088983D02*
X0011242Y0088983D01*
X0010973Y0089581D02*
X0029500Y0089581D01*
X0029500Y0090180D02*
X0010374Y0090180D01*
X0009776Y0090778D02*
X0029452Y0090778D01*
X0028853Y0091377D02*
X0008656Y0091377D01*
X0009023Y0091975D02*
X0028255Y0091975D01*
X0027656Y0092574D02*
X0009928Y0092574D01*
X0010526Y0093172D02*
X0027058Y0093172D01*
X0026459Y0093771D02*
X0011057Y0093771D01*
X0011304Y0094369D02*
X0024887Y0094369D01*
X0024288Y0094968D02*
X0011552Y0094968D01*
X0011800Y0107537D02*
X0068096Y0107537D01*
X0066667Y0108135D02*
X0011593Y0108135D01*
X0011345Y0108734D02*
X0066068Y0108734D01*
X0065502Y0109332D02*
X0011097Y0109332D01*
X0010623Y0109931D02*
X0065254Y0109931D01*
X0065006Y0110529D02*
X0010025Y0110529D01*
X0009258Y0111128D02*
X0064900Y0111128D01*
X0064900Y0111726D02*
X0008422Y0111726D01*
X0009679Y0112325D02*
X0064900Y0112325D01*
X0065110Y0112923D02*
X0010277Y0112923D01*
X0010876Y0113522D02*
X0065358Y0113522D01*
X0065722Y0114120D02*
X0011201Y0114120D01*
X0011449Y0114719D02*
X0066320Y0114719D01*
X0067260Y0115317D02*
X0011697Y0115317D01*
X0011800Y0126689D02*
X0089500Y0126689D01*
X0089500Y0127287D02*
X0011800Y0127287D01*
X0011696Y0127886D02*
X0067253Y0127886D01*
X0066678Y0128124D02*
X0068184Y0127500D01*
X0075016Y0127500D01*
X0076522Y0128124D01*
X0077676Y0129278D01*
X0078300Y0130784D01*
X0078300Y0132416D01*
X0077676Y0133922D01*
X0076522Y0135076D01*
X0075016Y0135700D01*
X0068184Y0135700D01*
X0066678Y0135076D01*
X0065524Y0133922D01*
X0065432Y0133700D01*
X0052470Y0133700D01*
X0043700Y0142470D01*
X0043700Y0164756D01*
X0043964Y0165020D01*
X0044389Y0166045D01*
X0044389Y0167155D01*
X0043964Y0168180D01*
X0043373Y0168771D01*
X0043415Y0168813D01*
X0043415Y0174387D01*
X0042536Y0175265D01*
X0037357Y0175265D01*
X0036600Y0174509D01*
X0035843Y0175265D01*
X0035354Y0175265D01*
X0035354Y0177384D01*
X0036781Y0178811D01*
X0037155Y0178811D01*
X0038180Y0179236D01*
X0038964Y0180020D01*
X0039389Y0181045D01*
X0039389Y0182115D01*
X0039681Y0181966D01*
X0040429Y0181723D01*
X0041206Y0181600D01*
X0041300Y0181600D01*
X0041300Y0186300D01*
X0041900Y0186300D01*
X0041900Y0181600D01*
X0041994Y0181600D01*
X0042771Y0181723D01*
X0043519Y0181966D01*
X0044221Y0182324D01*
X0044857Y0182786D01*
X0045414Y0183343D01*
X0045876Y0183979D01*
X0046234Y0184681D01*
X0046468Y0185402D01*
X0047192Y0183654D01*
X0048654Y0182192D01*
X0050566Y0181400D01*
X0052634Y0181400D01*
X0054546Y0182192D01*
X0056008Y0183654D01*
X0056600Y0185083D01*
X0057192Y0183654D01*
X0058654Y0182192D01*
X0059500Y0181841D01*
X0059500Y0178700D01*
X0053444Y0178700D01*
X0053180Y0178964D01*
X0052155Y0179389D01*
X0051045Y0179389D01*
X0050020Y0178964D01*
X0049236Y0178180D01*
X0048811Y0177155D01*
X0048811Y0176045D01*
X0049236Y0175020D01*
X0050020Y0174236D01*
X0051045Y0173811D01*
X0052155Y0173811D01*
X0053180Y0174236D01*
X0053444Y0174500D01*
X0060730Y0174500D01*
X0064500Y0170730D01*
X0065221Y0170009D01*
X0065524Y0169278D01*
X0066678Y0168124D01*
X0068184Y0167500D01*
X0075016Y0167500D01*
X0076522Y0168124D01*
X0077676Y0169278D01*
X0078300Y0170784D01*
X0078300Y0172416D01*
X0077676Y0173922D01*
X0076522Y0175076D01*
X0075016Y0175700D01*
X0068184Y0175700D01*
X0066678Y0175076D01*
X0066386Y0174784D01*
X0063700Y0177470D01*
X0063700Y0181841D01*
X0064546Y0182192D01*
X0066008Y0183654D01*
X0066800Y0185566D01*
X0066800Y0187634D01*
X0066008Y0189546D01*
X0064546Y0191008D01*
X0062634Y0191800D01*
X0060566Y0191800D01*
X0058654Y0191008D01*
X0057192Y0189546D01*
X0056600Y0188117D01*
X0056008Y0189546D01*
X0054546Y0191008D01*
X0052634Y0191800D01*
X0050566Y0191800D01*
X0048654Y0191008D01*
X0047192Y0189546D01*
X0046468Y0187798D01*
X0046234Y0188519D01*
X0045876Y0189221D01*
X0045414Y0189857D01*
X0044857Y0190414D01*
X0044221Y0190876D01*
X0043519Y0191234D01*
X0042771Y0191477D01*
X0041994Y0191600D01*
X0041900Y0191600D01*
X0041900Y0186900D01*
X0041300Y0186900D01*
X0041300Y0191600D01*
X0041206Y0191600D01*
X0040429Y0191477D01*
X0039681Y0191234D01*
X0038979Y0190876D01*
X0038343Y0190414D01*
X0037786Y0189857D01*
X0037324Y0189221D01*
X0036966Y0188519D01*
X0036732Y0187798D01*
X0036008Y0189546D01*
X0034546Y0191008D01*
X0032634Y0191800D01*
X0030566Y0191800D01*
X0028654Y0191008D01*
X0027192Y0189546D01*
X0026600Y0188117D01*
X0026008Y0189546D01*
X0024546Y0191008D01*
X0022634Y0191800D01*
X0020566Y0191800D01*
X0018654Y0191008D01*
X0017192Y0189546D01*
X0016600Y0188117D01*
X0016008Y0189546D01*
X0014546Y0191008D01*
X0012634Y0191800D01*
X0010566Y0191800D01*
X0008654Y0191008D01*
X0007192Y0189546D01*
X0006400Y0187634D01*
X0006400Y0185566D01*
X0007192Y0183654D01*
X0008654Y0182192D01*
X0010566Y0181400D01*
X0012634Y0181400D01*
X0014546Y0182192D01*
X0016008Y0183654D01*
X0016600Y0185083D01*
X0017192Y0183654D01*
X0018654Y0182192D01*
X0020566Y0181400D01*
X0022634Y0181400D01*
X0024546Y0182192D01*
X0026008Y0183654D01*
X0026600Y0185083D01*
X0027192Y0183654D01*
X0028654Y0182192D01*
X0030566Y0181400D01*
X0032634Y0181400D01*
X0033811Y0181887D01*
X0033811Y0181781D01*
X0032384Y0180354D01*
X0031154Y0179123D01*
X0031154Y0175905D01*
X0027943Y0175905D01*
X0027943Y0177674D01*
X0027064Y0178553D01*
X0021884Y0178553D01*
X0021006Y0177674D01*
X0021006Y0169935D01*
X0021884Y0169057D01*
X0027064Y0169057D01*
X0027943Y0169935D01*
X0027943Y0171705D01*
X0029785Y0171705D01*
X0029785Y0168813D01*
X0029827Y0168771D01*
X0029236Y0168180D01*
X0028811Y0167155D01*
X0028811Y0166045D01*
X0029236Y0165020D01*
X0030020Y0164236D01*
X0031045Y0163811D01*
X0032155Y0163811D01*
X0033180Y0164236D01*
X0033444Y0164500D01*
X0035816Y0164500D01*
X0037046Y0165730D01*
X0039051Y0167735D01*
X0038811Y0167155D01*
X0038811Y0166045D01*
X0039236Y0165020D01*
X0039500Y0164756D01*
X0039500Y0140730D01*
X0050730Y0129500D01*
X0065432Y0129500D01*
X0065524Y0129278D01*
X0066678Y0128124D01*
X0066317Y0128484D02*
X0011448Y0128484D01*
X0011200Y0129083D02*
X0065719Y0129083D01*
X0065503Y0133871D02*
X0052299Y0133871D01*
X0051700Y0134470D02*
X0066071Y0134470D01*
X0066670Y0135068D02*
X0051102Y0135068D01*
X0050503Y0135667D02*
X0068104Y0135667D01*
X0068184Y0137500D02*
X0066678Y0138124D01*
X0065524Y0139278D01*
X0065432Y0139500D01*
X0050730Y0139500D01*
X0049500Y0140730D01*
X0044500Y0145730D01*
X0044500Y0169756D01*
X0044236Y0170020D01*
X0043811Y0171045D01*
X0043811Y0172155D01*
X0044236Y0173180D01*
X0045020Y0173964D01*
X0046045Y0174389D01*
X0047155Y0174389D01*
X0048180Y0173964D01*
X0048964Y0173180D01*
X0049389Y0172155D01*
X0049389Y0171045D01*
X0048964Y0170020D01*
X0048700Y0169756D01*
X0048700Y0147470D01*
X0052470Y0143700D01*
X0065432Y0143700D01*
X0065524Y0143922D01*
X0066678Y0145076D01*
X0068184Y0145700D01*
X0075016Y0145700D01*
X0076522Y0145076D01*
X0077676Y0143922D01*
X0078300Y0142416D01*
X0078300Y0140784D01*
X0077676Y0139278D01*
X0076522Y0138124D01*
X0075016Y0137500D01*
X0068184Y0137500D01*
X0066831Y0138061D02*
X0048109Y0138061D01*
X0047511Y0138659D02*
X0066143Y0138659D01*
X0065544Y0139258D02*
X0046912Y0139258D01*
X0046314Y0139856D02*
X0050374Y0139856D01*
X0049776Y0140455D02*
X0045715Y0140455D01*
X0045117Y0141053D02*
X0049177Y0141053D01*
X0048578Y0141652D02*
X0044518Y0141652D01*
X0043920Y0142250D02*
X0047980Y0142250D01*
X0047381Y0142849D02*
X0043700Y0142849D01*
X0043700Y0143447D02*
X0046783Y0143447D01*
X0046184Y0144046D02*
X0043700Y0144046D01*
X0043700Y0144644D02*
X0045586Y0144644D01*
X0044987Y0145243D02*
X0043700Y0145243D01*
X0043700Y0145841D02*
X0044500Y0145841D01*
X0044500Y0146440D02*
X0043700Y0146440D01*
X0043700Y0147038D02*
X0044500Y0147038D01*
X0044500Y0147637D02*
X0043700Y0147637D01*
X0043700Y0148235D02*
X0044500Y0148235D01*
X0044500Y0148834D02*
X0043700Y0148834D01*
X0043700Y0149432D02*
X0044500Y0149432D01*
X0044500Y0150031D02*
X0043700Y0150031D01*
X0043700Y0150629D02*
X0044500Y0150629D01*
X0044500Y0151228D02*
X0043700Y0151228D01*
X0043700Y0151826D02*
X0044500Y0151826D01*
X0044500Y0152425D02*
X0043700Y0152425D01*
X0043700Y0153023D02*
X0044500Y0153023D01*
X0044500Y0153622D02*
X0043700Y0153622D01*
X0043700Y0154220D02*
X0044500Y0154220D01*
X0044500Y0154819D02*
X0043700Y0154819D01*
X0043700Y0155417D02*
X0044500Y0155417D01*
X0044500Y0156016D02*
X0043700Y0156016D01*
X0043700Y0156614D02*
X0044500Y0156614D01*
X0044500Y0157213D02*
X0043700Y0157213D01*
X0043700Y0157811D02*
X0044500Y0157811D01*
X0044500Y0158410D02*
X0043700Y0158410D01*
X0043700Y0159008D02*
X0044500Y0159008D01*
X0044500Y0159607D02*
X0043700Y0159607D01*
X0043700Y0160205D02*
X0044500Y0160205D01*
X0044500Y0160804D02*
X0043700Y0160804D01*
X0043700Y0161403D02*
X0044500Y0161403D01*
X0044500Y0162001D02*
X0043700Y0162001D01*
X0043700Y0162600D02*
X0044500Y0162600D01*
X0044500Y0163198D02*
X0043700Y0163198D01*
X0043700Y0163797D02*
X0044500Y0163797D01*
X0044500Y0164395D02*
X0043700Y0164395D01*
X0043938Y0164994D02*
X0044500Y0164994D01*
X0044500Y0165592D02*
X0044201Y0165592D01*
X0044389Y0166191D02*
X0044500Y0166191D01*
X0044500Y0166789D02*
X0044389Y0166789D01*
X0044293Y0167388D02*
X0044500Y0167388D01*
X0044500Y0167986D02*
X0044045Y0167986D01*
X0044500Y0168585D02*
X0043560Y0168585D01*
X0043415Y0169183D02*
X0044500Y0169183D01*
X0044474Y0169782D02*
X0043415Y0169782D01*
X0043415Y0170380D02*
X0044086Y0170380D01*
X0043839Y0170979D02*
X0043415Y0170979D01*
X0043415Y0171577D02*
X0043811Y0171577D01*
X0043820Y0172176D02*
X0043415Y0172176D01*
X0043415Y0172774D02*
X0044068Y0172774D01*
X0044429Y0173373D02*
X0043415Y0173373D01*
X0043415Y0173971D02*
X0045037Y0173971D01*
X0043232Y0174570D02*
X0049686Y0174570D01*
X0049174Y0175168D02*
X0042633Y0175168D01*
X0037260Y0175168D02*
X0035940Y0175168D01*
X0035354Y0175767D02*
X0048926Y0175767D01*
X0048811Y0176365D02*
X0035354Y0176365D01*
X0035354Y0176964D02*
X0048811Y0176964D01*
X0048980Y0177562D02*
X0035532Y0177562D01*
X0036131Y0178161D02*
X0049228Y0178161D01*
X0049815Y0178759D02*
X0036729Y0178759D01*
X0038302Y0179358D02*
X0050970Y0179358D01*
X0052230Y0179358D02*
X0059500Y0179358D01*
X0059500Y0179956D02*
X0038901Y0179956D01*
X0039186Y0180555D02*
X0059500Y0180555D01*
X0059500Y0181153D02*
X0039389Y0181153D01*
X0039389Y0181752D02*
X0040341Y0181752D01*
X0041300Y0181752D02*
X0041900Y0181752D01*
X0041900Y0182350D02*
X0041300Y0182350D01*
X0041300Y0182949D02*
X0041900Y0182949D01*
X0041900Y0183547D02*
X0041300Y0183547D01*
X0041300Y0184146D02*
X0041900Y0184146D01*
X0041900Y0184744D02*
X0041300Y0184744D01*
X0041300Y0185343D02*
X0041900Y0185343D01*
X0041900Y0185941D02*
X0041300Y0185941D01*
X0041300Y0187139D02*
X0041900Y0187139D01*
X0041900Y0187737D02*
X0041300Y0187737D01*
X0041300Y0188336D02*
X0041900Y0188336D01*
X0041900Y0188934D02*
X0041300Y0188934D01*
X0041300Y0189533D02*
X0041900Y0189533D01*
X0041900Y0190131D02*
X0041300Y0190131D01*
X0041300Y0190730D02*
X0041900Y0190730D01*
X0041900Y0191328D02*
X0041300Y0191328D01*
X0039971Y0191328D02*
X0033774Y0191328D01*
X0034824Y0190730D02*
X0038777Y0190730D01*
X0038060Y0190131D02*
X0035423Y0190131D01*
X0036014Y0189533D02*
X0037550Y0189533D01*
X0037178Y0188934D02*
X0036262Y0188934D01*
X0036510Y0188336D02*
X0036907Y0188336D01*
X0043229Y0191328D02*
X0049426Y0191328D01*
X0048376Y0190730D02*
X0044423Y0190730D01*
X0045140Y0190131D02*
X0047777Y0190131D01*
X0047186Y0189533D02*
X0045650Y0189533D01*
X0046022Y0188934D02*
X0046938Y0188934D01*
X0046690Y0188336D02*
X0046293Y0188336D01*
X0046449Y0185343D02*
X0046492Y0185343D01*
X0046254Y0184744D02*
X0046740Y0184744D01*
X0046988Y0184146D02*
X0045961Y0184146D01*
X0045563Y0183547D02*
X0047299Y0183547D01*
X0047897Y0182949D02*
X0045020Y0182949D01*
X0044257Y0182350D02*
X0048496Y0182350D01*
X0049716Y0181752D02*
X0042859Y0181752D01*
X0033782Y0181752D02*
X0033484Y0181752D01*
X0033184Y0181153D02*
X0003100Y0181153D01*
X0003100Y0180555D02*
X0032585Y0180555D01*
X0031987Y0179956D02*
X0003100Y0179956D01*
X0003100Y0179358D02*
X0031388Y0179358D01*
X0031154Y0178759D02*
X0003100Y0178759D01*
X0003100Y0178161D02*
X0006077Y0178161D01*
X0005959Y0178093D02*
X0005717Y0177851D01*
X0005546Y0177555D01*
X0005457Y0177224D01*
X0005457Y0174105D01*
X0008426Y0174105D01*
X0008426Y0178353D01*
X0006586Y0178353D01*
X0006256Y0178264D01*
X0005959Y0178093D01*
X0005551Y0177562D02*
X0003100Y0177562D01*
X0003100Y0176964D02*
X0005457Y0176964D01*
X0005457Y0176365D02*
X0003100Y0176365D01*
X0003100Y0175767D02*
X0005457Y0175767D01*
X0005457Y0175168D02*
X0003100Y0175168D01*
X0003100Y0174570D02*
X0005457Y0174570D01*
X0005457Y0173505D02*
X0005457Y0170386D01*
X0005546Y0170055D01*
X0005717Y0169758D01*
X0005959Y0169516D01*
X0006256Y0169345D01*
X0006586Y0169257D01*
X0008426Y0169257D01*
X0008426Y0173505D01*
X0005457Y0173505D01*
X0005457Y0173373D02*
X0003100Y0173373D01*
X0003100Y0173971D02*
X0008426Y0173971D01*
X0008426Y0174105D02*
X0008426Y0173505D01*
X0009026Y0173505D01*
X0009026Y0174105D01*
X0008426Y0174105D01*
X0008426Y0174570D02*
X0009026Y0174570D01*
X0009026Y0174105D02*
X0009026Y0178353D01*
X0010866Y0178353D01*
X0011196Y0178264D01*
X0011493Y0178093D01*
X0011735Y0177851D01*
X0011906Y0177555D01*
X0011994Y0177224D01*
X0011994Y0174105D01*
X0009026Y0174105D01*
X0009026Y0173971D02*
X0021006Y0173971D01*
X0021006Y0173373D02*
X0011994Y0173373D01*
X0011994Y0173505D02*
X0011994Y0170386D01*
X0011906Y0170055D01*
X0011735Y0169758D01*
X0011493Y0169516D01*
X0011196Y0169345D01*
X0010866Y0169257D01*
X0009026Y0169257D01*
X0009026Y0173505D01*
X0011994Y0173505D01*
X0011994Y0172774D02*
X0021006Y0172774D01*
X0021006Y0172176D02*
X0011994Y0172176D01*
X0011994Y0171577D02*
X0021006Y0171577D01*
X0021006Y0170979D02*
X0011994Y0170979D01*
X0011993Y0170380D02*
X0021006Y0170380D01*
X0021159Y0169782D02*
X0011748Y0169782D01*
X0009026Y0169782D02*
X0008426Y0169782D01*
X0008426Y0170380D02*
X0009026Y0170380D01*
X0009026Y0170979D02*
X0008426Y0170979D01*
X0008426Y0171577D02*
X0009026Y0171577D01*
X0009026Y0172176D02*
X0008426Y0172176D01*
X0008426Y0172774D02*
X0009026Y0172774D01*
X0009026Y0173373D02*
X0008426Y0173373D01*
X0008426Y0175168D02*
X0009026Y0175168D01*
X0009026Y0175767D02*
X0008426Y0175767D01*
X0008426Y0176365D02*
X0009026Y0176365D01*
X0009026Y0176964D02*
X0008426Y0176964D01*
X0008426Y0177562D02*
X0009026Y0177562D01*
X0009026Y0178161D02*
X0008426Y0178161D01*
X0011375Y0178161D02*
X0021492Y0178161D01*
X0021006Y0177562D02*
X0011901Y0177562D01*
X0011994Y0176964D02*
X0021006Y0176964D01*
X0021006Y0176365D02*
X0011994Y0176365D01*
X0011994Y0175767D02*
X0021006Y0175767D01*
X0021006Y0175168D02*
X0011994Y0175168D01*
X0011994Y0174570D02*
X0021006Y0174570D01*
X0021758Y0169183D02*
X0003100Y0169183D01*
X0003100Y0168585D02*
X0029640Y0168585D01*
X0029785Y0169183D02*
X0027190Y0169183D01*
X0027789Y0169782D02*
X0029785Y0169782D01*
X0029785Y0170380D02*
X0027943Y0170380D01*
X0027943Y0170979D02*
X0029785Y0170979D01*
X0029785Y0171577D02*
X0027943Y0171577D01*
X0029155Y0167986D02*
X0003100Y0167986D01*
X0003100Y0167388D02*
X0028907Y0167388D01*
X0028811Y0166789D02*
X0003100Y0166789D01*
X0003100Y0166191D02*
X0028811Y0166191D01*
X0028999Y0165592D02*
X0003100Y0165592D01*
X0003100Y0164994D02*
X0029262Y0164994D01*
X0029861Y0164395D02*
X0003100Y0164395D01*
X0003100Y0163797D02*
X0014852Y0163797D01*
X0014254Y0163198D02*
X0003100Y0163198D01*
X0003100Y0162600D02*
X0013995Y0162600D01*
X0013811Y0162001D02*
X0003100Y0162001D01*
X0003100Y0161403D02*
X0013433Y0161403D01*
X0012834Y0160804D02*
X0003100Y0160804D01*
X0003100Y0160205D02*
X0012236Y0160205D01*
X0011637Y0159607D02*
X0003100Y0159607D01*
X0003100Y0159008D02*
X0011039Y0159008D01*
X0010440Y0158410D02*
X0003100Y0158410D01*
X0003100Y0157811D02*
X0009842Y0157811D01*
X0009500Y0157213D02*
X0003100Y0157213D01*
X0003100Y0156614D02*
X0009500Y0156614D01*
X0009500Y0156016D02*
X0003100Y0156016D01*
X0003100Y0155417D02*
X0009500Y0155417D01*
X0009500Y0154819D02*
X0003100Y0154819D01*
X0003100Y0154220D02*
X0009500Y0154220D01*
X0005615Y0153622D02*
X0003100Y0153622D01*
X0003100Y0153023D02*
X0005257Y0153023D01*
X0005257Y0152425D02*
X0003100Y0152425D01*
X0003100Y0151826D02*
X0005257Y0151826D01*
X0005257Y0151228D02*
X0003100Y0151228D01*
X0003100Y0150629D02*
X0005257Y0150629D01*
X0005257Y0150031D02*
X0003100Y0150031D01*
X0003100Y0149432D02*
X0005257Y0149432D01*
X0005257Y0148834D02*
X0003100Y0148834D01*
X0003100Y0148235D02*
X0005257Y0148235D01*
X0005257Y0147637D02*
X0003100Y0147637D01*
X0003100Y0147038D02*
X0005257Y0147038D01*
X0005257Y0146440D02*
X0003100Y0146440D01*
X0003100Y0145841D02*
X0005257Y0145841D01*
X0005541Y0145243D02*
X0003100Y0145243D01*
X0003100Y0144644D02*
X0007919Y0144644D01*
X0007320Y0144046D02*
X0003100Y0144046D01*
X0003100Y0143447D02*
X0006722Y0143447D01*
X0006123Y0142849D02*
X0003100Y0142849D01*
X0003100Y0142250D02*
X0005525Y0142250D01*
X0004926Y0141652D02*
X0003100Y0141652D01*
X0003100Y0141053D02*
X0003763Y0141053D01*
X0003100Y0140455D02*
X0003101Y0140455D01*
X0010099Y0140455D02*
X0014414Y0140455D01*
X0013816Y0139856D02*
X0010698Y0139856D01*
X0011128Y0139258D02*
X0013217Y0139258D01*
X0012619Y0138659D02*
X0011376Y0138659D01*
X0011623Y0138061D02*
X0012020Y0138061D01*
X0010267Y0141053D02*
X0015013Y0141053D01*
X0015611Y0141652D02*
X0010866Y0141652D01*
X0011464Y0142250D02*
X0016210Y0142250D01*
X0016594Y0142849D02*
X0012063Y0142849D01*
X0012661Y0143447D02*
X0016594Y0143447D01*
X0016594Y0144046D02*
X0013260Y0144046D01*
X0013858Y0144644D02*
X0016594Y0144644D01*
X0016594Y0145243D02*
X0013994Y0145243D01*
X0013994Y0145841D02*
X0016594Y0145841D01*
X0016594Y0146440D02*
X0013994Y0146440D01*
X0013994Y0147038D02*
X0016594Y0147038D01*
X0016594Y0147637D02*
X0013994Y0147637D01*
X0013994Y0148235D02*
X0016594Y0148235D01*
X0016594Y0148834D02*
X0013994Y0148834D01*
X0013994Y0149432D02*
X0016594Y0149432D01*
X0016594Y0150031D02*
X0013994Y0150031D01*
X0013994Y0150629D02*
X0016594Y0150629D01*
X0016594Y0151228D02*
X0013994Y0151228D01*
X0013994Y0151826D02*
X0016594Y0151826D01*
X0016594Y0152425D02*
X0013994Y0152425D01*
X0013994Y0153023D02*
X0016594Y0153023D01*
X0016594Y0153622D02*
X0013994Y0153622D01*
X0013784Y0154220D02*
X0016594Y0154220D01*
X0016849Y0154819D02*
X0013700Y0154819D01*
X0013700Y0155417D02*
X0017448Y0155417D01*
X0018046Y0156016D02*
X0013986Y0156016D01*
X0014584Y0156614D02*
X0018645Y0156614D01*
X0018835Y0157213D02*
X0015183Y0157213D01*
X0015781Y0157811D02*
X0019083Y0157811D01*
X0019466Y0158410D02*
X0016380Y0158410D01*
X0017631Y0159008D02*
X0020127Y0159008D01*
X0019041Y0160205D02*
X0039500Y0160205D01*
X0039500Y0159607D02*
X0018551Y0159607D01*
X0019289Y0160804D02*
X0039500Y0160804D01*
X0039500Y0161403D02*
X0019389Y0161403D01*
X0019389Y0162001D02*
X0039500Y0162001D01*
X0039500Y0162600D02*
X0019205Y0162600D01*
X0018946Y0163198D02*
X0039500Y0163198D01*
X0039500Y0163797D02*
X0018348Y0163797D01*
X0023073Y0159008D02*
X0039500Y0159008D01*
X0039500Y0158410D02*
X0023734Y0158410D01*
X0024117Y0157811D02*
X0039500Y0157811D01*
X0039500Y0157213D02*
X0024365Y0157213D01*
X0024389Y0156614D02*
X0039500Y0156614D01*
X0039500Y0156016D02*
X0024377Y0156016D01*
X0024129Y0155417D02*
X0039500Y0155417D01*
X0039500Y0154819D02*
X0023763Y0154819D01*
X0023143Y0154220D02*
X0039500Y0154220D01*
X0039500Y0153622D02*
X0027585Y0153622D01*
X0027943Y0153023D02*
X0039500Y0153023D01*
X0039500Y0152425D02*
X0027943Y0152425D01*
X0027943Y0151826D02*
X0039500Y0151826D01*
X0039500Y0151228D02*
X0027943Y0151228D01*
X0027943Y0150629D02*
X0039500Y0150629D01*
X0039500Y0150031D02*
X0027943Y0150031D01*
X0027943Y0149432D02*
X0039500Y0149432D01*
X0039500Y0148834D02*
X0027943Y0148834D01*
X0027943Y0148235D02*
X0039500Y0148235D01*
X0039500Y0147637D02*
X0027943Y0147637D01*
X0027943Y0147038D02*
X0039500Y0147038D01*
X0039500Y0146440D02*
X0027943Y0146440D01*
X0027943Y0145841D02*
X0039500Y0145841D01*
X0039500Y0145243D02*
X0027659Y0145243D01*
X0021289Y0145243D02*
X0020794Y0145243D01*
X0020794Y0145841D02*
X0021006Y0145841D01*
X0021006Y0146440D02*
X0020794Y0146440D01*
X0020794Y0147038D02*
X0021006Y0147038D01*
X0021006Y0147637D02*
X0020794Y0147637D01*
X0020794Y0148235D02*
X0021006Y0148235D01*
X0021006Y0148834D02*
X0020794Y0148834D01*
X0020794Y0149432D02*
X0021006Y0149432D01*
X0021006Y0150031D02*
X0020794Y0150031D01*
X0020794Y0150629D02*
X0021006Y0150629D01*
X0021006Y0151228D02*
X0020794Y0151228D01*
X0020794Y0151826D02*
X0021006Y0151826D01*
X0021006Y0152425D02*
X0020794Y0152425D01*
X0020993Y0153023D02*
X0021006Y0153023D01*
X0020794Y0144644D02*
X0039500Y0144644D01*
X0039500Y0144046D02*
X0020794Y0144046D01*
X0020794Y0143447D02*
X0039500Y0143447D01*
X0039500Y0142849D02*
X0020794Y0142849D01*
X0020794Y0142250D02*
X0039500Y0142250D01*
X0039500Y0141652D02*
X0020794Y0141652D01*
X0020794Y0141053D02*
X0039500Y0141053D01*
X0039776Y0140455D02*
X0020354Y0140455D01*
X0019756Y0139856D02*
X0040374Y0139856D01*
X0040973Y0139258D02*
X0019157Y0139258D01*
X0018559Y0138659D02*
X0041571Y0138659D01*
X0042170Y0138061D02*
X0017960Y0138061D01*
X0017362Y0137462D02*
X0042768Y0137462D01*
X0043367Y0136864D02*
X0016763Y0136864D01*
X0016165Y0136265D02*
X0043965Y0136265D01*
X0044564Y0135667D02*
X0015566Y0135667D01*
X0014968Y0135068D02*
X0045162Y0135068D01*
X0045761Y0134470D02*
X0014369Y0134470D01*
X0013770Y0133871D02*
X0046359Y0133871D01*
X0046958Y0133272D02*
X0013172Y0133272D01*
X0012573Y0132674D02*
X0047556Y0132674D01*
X0048155Y0132075D02*
X0011975Y0132075D01*
X0011376Y0131477D02*
X0048753Y0131477D01*
X0049352Y0130878D02*
X0010778Y0130878D01*
X0010274Y0130280D02*
X0049950Y0130280D01*
X0050549Y0129681D02*
X0010872Y0129681D01*
X0028585Y0098559D02*
X0066532Y0098559D01*
X0067596Y0097960D02*
X0029055Y0097960D01*
X0032399Y0093771D02*
X0052201Y0093771D01*
X0051754Y0093172D02*
X0032998Y0093172D01*
X0033596Y0092574D02*
X0051754Y0092574D01*
X0051754Y0091975D02*
X0033700Y0091975D01*
X0033700Y0091377D02*
X0051754Y0091377D01*
X0051754Y0090778D02*
X0033700Y0090778D01*
X0033700Y0090180D02*
X0051754Y0090180D01*
X0051754Y0089581D02*
X0033700Y0089581D01*
X0033700Y0088983D02*
X0040064Y0088983D01*
X0039440Y0088384D02*
X0033700Y0088384D01*
X0033700Y0087786D02*
X0039072Y0087786D01*
X0038824Y0087187D02*
X0033700Y0087187D01*
X0033700Y0086589D02*
X0038811Y0086589D01*
X0038834Y0085990D02*
X0033700Y0085990D01*
X0033700Y0085392D02*
X0039082Y0085392D01*
X0039463Y0084793D02*
X0033700Y0084793D01*
X0033700Y0084195D02*
X0040119Y0084195D01*
X0041634Y0083596D02*
X0033700Y0083596D01*
X0033700Y0082998D02*
X0042233Y0082998D01*
X0042831Y0082399D02*
X0033700Y0082399D01*
X0033700Y0081801D02*
X0043430Y0081801D01*
X0044028Y0081202D02*
X0033700Y0081202D01*
X0033700Y0080603D02*
X0044500Y0080603D01*
X0044500Y0080005D02*
X0033700Y0080005D01*
X0033700Y0079406D02*
X0044500Y0079406D01*
X0044500Y0078808D02*
X0033700Y0078808D01*
X0033700Y0078209D02*
X0044500Y0078209D01*
X0044500Y0077611D02*
X0033700Y0077611D01*
X0033700Y0077012D02*
X0044500Y0077012D01*
X0044500Y0076414D02*
X0033700Y0076414D01*
X0033700Y0075815D02*
X0044500Y0075815D01*
X0044500Y0075217D02*
X0033700Y0075217D01*
X0033700Y0074618D02*
X0044500Y0074618D01*
X0044500Y0074020D02*
X0038046Y0074020D01*
X0038723Y0073421D02*
X0044500Y0073421D01*
X0044500Y0072823D02*
X0039112Y0072823D01*
X0039360Y0072224D02*
X0044500Y0072224D01*
X0044500Y0071626D02*
X0039389Y0071626D01*
X0039382Y0071027D02*
X0044500Y0071027D01*
X0044500Y0070429D02*
X0039134Y0070429D01*
X0038774Y0069830D02*
X0044500Y0069830D01*
X0044500Y0069232D02*
X0038171Y0069232D01*
X0036603Y0068633D02*
X0044500Y0068633D01*
X0044176Y0068035D02*
X0036005Y0068035D01*
X0035406Y0067436D02*
X0043928Y0067436D01*
X0043811Y0066838D02*
X0034808Y0066838D01*
X0034209Y0066239D02*
X0043811Y0066239D01*
X0043979Y0065641D02*
X0033700Y0065641D01*
X0033700Y0065042D02*
X0044226Y0065042D01*
X0044812Y0064444D02*
X0033700Y0064444D01*
X0029500Y0064444D02*
X0011113Y0064444D01*
X0011351Y0065042D02*
X0029500Y0065042D01*
X0029500Y0065641D02*
X0011510Y0065641D01*
X0011600Y0066239D02*
X0029500Y0066239D01*
X0029500Y0063845D02*
X0010779Y0063845D01*
X0010318Y0063247D02*
X0029500Y0063247D01*
X0029500Y0062648D02*
X0009667Y0062648D01*
X0008683Y0062050D02*
X0029500Y0062050D01*
X0033700Y0072224D02*
X0033840Y0072224D01*
X0033700Y0072823D02*
X0034088Y0072823D01*
X0033700Y0073421D02*
X0034477Y0073421D01*
X0035154Y0074020D02*
X0033700Y0074020D01*
X0045180Y0085990D02*
X0051954Y0085990D01*
X0051954Y0085392D02*
X0045778Y0085392D01*
X0046377Y0084793D02*
X0052023Y0084793D01*
X0052073Y0084195D02*
X0046975Y0084195D01*
X0047574Y0083596D02*
X0051754Y0083596D01*
X0051754Y0082998D02*
X0048172Y0082998D01*
X0048700Y0082399D02*
X0051754Y0082399D01*
X0051754Y0081801D02*
X0048700Y0081801D01*
X0048700Y0081202D02*
X0051754Y0081202D01*
X0051754Y0080603D02*
X0048700Y0080603D01*
X0048700Y0080005D02*
X0051754Y0080005D01*
X0052223Y0079406D02*
X0048700Y0079406D01*
X0048700Y0078808D02*
X0065994Y0078808D01*
X0065471Y0079406D02*
X0060977Y0079406D01*
X0061127Y0084195D02*
X0065796Y0084195D01*
X0066395Y0084793D02*
X0061177Y0084793D01*
X0061246Y0087187D02*
X0089500Y0087187D01*
X0089500Y0086589D02*
X0056900Y0086589D01*
X0056300Y0086589D02*
X0044581Y0086589D01*
X0044376Y0087187D02*
X0051954Y0087187D01*
X0051954Y0087786D02*
X0044128Y0087786D01*
X0043760Y0088384D02*
X0052017Y0088384D01*
X0052096Y0088983D02*
X0043136Y0088983D01*
X0048700Y0078209D02*
X0066592Y0078209D01*
X0067917Y0077611D02*
X0048700Y0077611D01*
X0048700Y0077012D02*
X0129043Y0077012D01*
X0128444Y0076414D02*
X0048700Y0076414D01*
X0058812Y0054868D02*
X0066469Y0054868D01*
X0065871Y0054269D02*
X0058213Y0054269D01*
X0075041Y0037511D02*
X0079500Y0037511D01*
X0079500Y0038109D02*
X0076486Y0038109D01*
X0077106Y0038708D02*
X0079500Y0038708D01*
X0079500Y0039306D02*
X0077688Y0039306D01*
X0077936Y0039905D02*
X0079500Y0039905D01*
X0079500Y0040503D02*
X0078184Y0040503D01*
X0078300Y0041102D02*
X0079500Y0041102D01*
X0079500Y0041700D02*
X0078300Y0041700D01*
X0078300Y0042299D02*
X0079500Y0042299D01*
X0079500Y0042897D02*
X0078100Y0042897D01*
X0077853Y0043496D02*
X0079500Y0043496D01*
X0079500Y0044094D02*
X0077504Y0044094D01*
X0076905Y0044693D02*
X0079500Y0044693D01*
X0079500Y0045291D02*
X0076002Y0045291D01*
X0083700Y0045291D02*
X0097198Y0045291D01*
X0096678Y0045076D02*
X0095524Y0043922D01*
X0094900Y0042416D01*
X0094900Y0040784D01*
X0095524Y0039278D01*
X0096678Y0038124D01*
X0098184Y0037500D01*
X0105016Y0037500D01*
X0106522Y0038124D01*
X0107676Y0039278D01*
X0108300Y0040784D01*
X0108300Y0042416D01*
X0107676Y0043922D01*
X0106522Y0045076D01*
X0105016Y0045700D01*
X0098184Y0045700D01*
X0096678Y0045076D01*
X0096295Y0044693D02*
X0083700Y0044693D01*
X0083700Y0044094D02*
X0095696Y0044094D01*
X0095347Y0043496D02*
X0083700Y0043496D01*
X0083700Y0042897D02*
X0095100Y0042897D01*
X0094900Y0042299D02*
X0083700Y0042299D01*
X0083700Y0041700D02*
X0094900Y0041700D01*
X0094900Y0041102D02*
X0083700Y0041102D01*
X0083700Y0040503D02*
X0095016Y0040503D01*
X0095264Y0039905D02*
X0083700Y0039905D01*
X0083700Y0039306D02*
X0095512Y0039306D01*
X0096094Y0038708D02*
X0083700Y0038708D01*
X0083700Y0038109D02*
X0096714Y0038109D01*
X0098159Y0037511D02*
X0083700Y0037511D01*
X0083700Y0036912D02*
X0169470Y0036912D01*
X0168997Y0037511D02*
X0105041Y0037511D01*
X0106486Y0038109D02*
X0168398Y0038109D01*
X0167800Y0038708D02*
X0107106Y0038708D01*
X0107688Y0039306D02*
X0159950Y0039306D01*
X0159351Y0039905D02*
X0107936Y0039905D01*
X0108184Y0040503D02*
X0159036Y0040503D01*
X0158811Y0041102D02*
X0108300Y0041102D01*
X0108300Y0041700D02*
X0158811Y0041700D01*
X0158871Y0042299D02*
X0108300Y0042299D01*
X0108100Y0042897D02*
X0159119Y0042897D01*
X0159552Y0043496D02*
X0107853Y0043496D01*
X0107504Y0044094D02*
X0160334Y0044094D01*
X0168900Y0044693D02*
X0106905Y0044693D01*
X0106002Y0045291D02*
X0168900Y0045291D01*
X0168900Y0045890D02*
X0083700Y0045890D01*
X0083700Y0046488D02*
X0168900Y0046488D01*
X0168900Y0047087D02*
X0083700Y0047087D01*
X0083700Y0047685D02*
X0097737Y0047685D01*
X0096518Y0048284D02*
X0083700Y0048284D01*
X0083700Y0048882D02*
X0095919Y0048882D01*
X0095440Y0049481D02*
X0083700Y0049481D01*
X0083700Y0050079D02*
X0095192Y0050079D01*
X0094944Y0050678D02*
X0083700Y0050678D01*
X0083700Y0051276D02*
X0094900Y0051276D01*
X0094900Y0051875D02*
X0083700Y0051875D01*
X0083696Y0052473D02*
X0094924Y0052473D01*
X0095172Y0053072D02*
X0083098Y0053072D01*
X0082499Y0053670D02*
X0095420Y0053670D01*
X0095871Y0054269D02*
X0081901Y0054269D01*
X0079097Y0057860D02*
X0097315Y0057860D01*
X0096343Y0058459D02*
X0078686Y0058459D01*
X0079500Y0036912D02*
X0033700Y0036912D01*
X0033700Y0036314D02*
X0079500Y0036314D01*
X0079500Y0035715D02*
X0033700Y0035715D01*
X0033700Y0035117D02*
X0079500Y0035117D01*
X0079500Y0034518D02*
X0033700Y0034518D01*
X0033700Y0033920D02*
X0079500Y0033920D01*
X0079500Y0033321D02*
X0033700Y0033321D01*
X0033700Y0032723D02*
X0079500Y0032723D01*
X0079500Y0032124D02*
X0033700Y0032124D01*
X0033700Y0031526D02*
X0079500Y0031526D01*
X0079500Y0030927D02*
X0033700Y0030927D01*
X0033700Y0030329D02*
X0079500Y0030329D01*
X0079500Y0029730D02*
X0033700Y0029730D01*
X0033700Y0029132D02*
X0079500Y0029132D01*
X0079500Y0028533D02*
X0033700Y0028533D01*
X0029500Y0028533D02*
X0020265Y0028533D01*
X0020265Y0027934D02*
X0025518Y0027934D01*
X0024919Y0027336D02*
X0020245Y0027336D01*
X0019646Y0026737D02*
X0024647Y0026737D01*
X0020265Y0029132D02*
X0029500Y0029132D01*
X0029500Y0029730D02*
X0020265Y0029730D01*
X0020265Y0030329D02*
X0029500Y0030329D01*
X0029500Y0030927D02*
X0020265Y0030927D01*
X0020265Y0031526D02*
X0029500Y0031526D01*
X0029500Y0032124D02*
X0020265Y0032124D01*
X0020079Y0032723D02*
X0029500Y0032723D01*
X0029500Y0033321D02*
X0019481Y0033321D01*
X0018700Y0033920D02*
X0029500Y0033920D01*
X0029500Y0034518D02*
X0018700Y0034518D01*
X0019004Y0035117D02*
X0029500Y0035117D01*
X0029500Y0035715D02*
X0019252Y0035715D01*
X0019389Y0036314D02*
X0029500Y0036314D01*
X0029500Y0036912D02*
X0019389Y0036912D01*
X0019242Y0037511D02*
X0029500Y0037511D01*
X0029500Y0038109D02*
X0018994Y0038109D01*
X0018436Y0038708D02*
X0029500Y0038708D01*
X0029500Y0039306D02*
X0017355Y0039306D01*
X0015845Y0039306D02*
X0003100Y0039306D01*
X0003100Y0038708D02*
X0014763Y0038708D01*
X0014206Y0038109D02*
X0003100Y0038109D01*
X0003100Y0037511D02*
X0013958Y0037511D01*
X0013811Y0036912D02*
X0003100Y0036912D01*
X0003100Y0036314D02*
X0013811Y0036314D01*
X0013948Y0035715D02*
X0003100Y0035715D01*
X0003100Y0035117D02*
X0014196Y0035117D01*
X0014500Y0034518D02*
X0003100Y0034518D01*
X0003100Y0033920D02*
X0014500Y0033920D01*
X0013719Y0033321D02*
X0003100Y0033321D01*
X0003100Y0032723D02*
X0013121Y0032723D01*
X0012935Y0032124D02*
X0003100Y0032124D01*
X0003100Y0031526D02*
X0012935Y0031526D01*
X0012935Y0030927D02*
X0003100Y0030927D01*
X0003100Y0030329D02*
X0012935Y0030329D01*
X0012935Y0029730D02*
X0003100Y0029730D01*
X0003100Y0029132D02*
X0012935Y0029132D01*
X0012935Y0028533D02*
X0003100Y0028533D01*
X0003100Y0027934D02*
X0012935Y0027934D01*
X0012955Y0027336D02*
X0003100Y0027336D01*
X0003100Y0026737D02*
X0013554Y0026737D01*
X0013230Y0026139D02*
X0003100Y0026139D01*
X0003100Y0025540D02*
X0012935Y0025540D01*
X0012935Y0024942D02*
X0003100Y0024942D01*
X0003100Y0024343D02*
X0012935Y0024343D01*
X0012935Y0023745D02*
X0003100Y0023745D01*
X0003100Y0023146D02*
X0012935Y0023146D01*
X0012935Y0022548D02*
X0003100Y0022548D01*
X0003100Y0021949D02*
X0012935Y0021949D01*
X0012935Y0021351D02*
X0003100Y0021351D01*
X0003100Y0020752D02*
X0012935Y0020752D01*
X0013445Y0020154D02*
X0003100Y0020154D01*
X0003468Y0007585D02*
X0024847Y0007585D01*
X0024847Y0006987D02*
X0003663Y0006987D01*
X0005482Y0004593D02*
X0194568Y0004593D01*
X0193744Y0003994D02*
X0006306Y0003994D01*
X0007809Y0003396D02*
X0192242Y0003396D01*
X0196896Y0008782D02*
X0077006Y0008782D01*
X0077604Y0009381D02*
X0196943Y0009381D01*
X0196950Y0009979D02*
X0077949Y0009979D01*
X0078548Y0010578D02*
X0196950Y0010578D01*
X0196950Y0011176D02*
X0187976Y0011176D01*
X0187564Y0011006D02*
X0189345Y0011743D01*
X0190709Y0013107D01*
X0191446Y0014888D01*
X0191446Y0016816D01*
X0190709Y0018597D01*
X0189345Y0019961D01*
X0188751Y0020207D01*
X0188908Y0020272D01*
X0190054Y0021418D01*
X0190675Y0022915D01*
X0190675Y0024537D01*
X0190054Y0026034D01*
X0188908Y0027180D01*
X0187743Y0027663D01*
X0188908Y0028146D01*
X0190054Y0029292D01*
X0190675Y0030789D01*
X0190675Y0032411D01*
X0190054Y0033908D01*
X0188908Y0035054D01*
X0187743Y0035537D01*
X0188908Y0036020D01*
X0190054Y0037166D01*
X0190675Y0038663D01*
X0190675Y0040285D01*
X0190054Y0041782D01*
X0188908Y0042928D01*
X0188751Y0042993D01*
X0189345Y0043239D01*
X0190709Y0044603D01*
X0191446Y0046384D01*
X0191446Y0048312D01*
X0190709Y0050093D01*
X0189345Y0051457D01*
X0187564Y0052194D01*
X0185636Y0052194D01*
X0183855Y0051457D01*
X0182491Y0050093D01*
X0181754Y0048312D01*
X0181754Y0046384D01*
X0182491Y0044603D01*
X0183855Y0043239D01*
X0184449Y0042993D01*
X0184292Y0042928D01*
X0183146Y0041782D01*
X0182525Y0040285D01*
X0182525Y0038663D01*
X0183146Y0037166D01*
X0184292Y0036020D01*
X0185457Y0035537D01*
X0184292Y0035054D01*
X0183146Y0033908D01*
X0182525Y0032411D01*
X0182525Y0030789D01*
X0183146Y0029292D01*
X0184292Y0028146D01*
X0185457Y0027663D01*
X0184292Y0027180D01*
X0183146Y0026034D01*
X0182525Y0024537D01*
X0182525Y0022915D01*
X0183146Y0021418D01*
X0184292Y0020272D01*
X0184449Y0020207D01*
X0183855Y0019961D01*
X0182491Y0018597D01*
X0181754Y0016816D01*
X0181754Y0014888D01*
X0182491Y0013107D01*
X0183855Y0011743D01*
X0185636Y0011006D01*
X0187564Y0011006D01*
X0189377Y0011775D02*
X0196950Y0011775D01*
X0196950Y0012373D02*
X0189975Y0012373D01*
X0190574Y0012972D02*
X0196950Y0012972D01*
X0196950Y0013570D02*
X0190901Y0013570D01*
X0191149Y0014169D02*
X0196950Y0014169D01*
X0196950Y0014767D02*
X0191396Y0014767D01*
X0191446Y0015366D02*
X0196950Y0015366D01*
X0196950Y0015964D02*
X0191446Y0015964D01*
X0191446Y0016563D02*
X0196950Y0016563D01*
X0196950Y0017161D02*
X0191303Y0017161D01*
X0191055Y0017760D02*
X0196950Y0017760D01*
X0196950Y0018358D02*
X0190808Y0018358D01*
X0190349Y0018957D02*
X0196950Y0018957D01*
X0196950Y0019555D02*
X0189751Y0019555D01*
X0188879Y0020154D02*
X0196950Y0020154D01*
X0196950Y0020752D02*
X0189389Y0020752D01*
X0189988Y0021351D02*
X0196950Y0021351D01*
X0196950Y0021949D02*
X0190275Y0021949D01*
X0190523Y0022548D02*
X0196950Y0022548D01*
X0196950Y0023146D02*
X0190675Y0023146D01*
X0190675Y0023745D02*
X0196950Y0023745D01*
X0196950Y0024343D02*
X0190675Y0024343D01*
X0190507Y0024942D02*
X0196950Y0024942D01*
X0196950Y0025540D02*
X0190259Y0025540D01*
X0189950Y0026139D02*
X0196950Y0026139D01*
X0196950Y0026737D02*
X0189351Y0026737D01*
X0188533Y0027336D02*
X0196950Y0027336D01*
X0196950Y0027934D02*
X0188399Y0027934D01*
X0189296Y0028533D02*
X0196950Y0028533D01*
X0196950Y0029132D02*
X0189894Y0029132D01*
X0190236Y0029730D02*
X0196950Y0029730D01*
X0196950Y0030329D02*
X0190484Y0030329D01*
X0190675Y0030927D02*
X0196950Y0030927D01*
X0196950Y0031526D02*
X0190675Y0031526D01*
X0190675Y0032124D02*
X0196950Y0032124D01*
X0196950Y0032723D02*
X0190546Y0032723D01*
X0190298Y0033321D02*
X0196950Y0033321D01*
X0196950Y0033920D02*
X0190043Y0033920D01*
X0189445Y0034518D02*
X0196950Y0034518D01*
X0196950Y0035117D02*
X0188758Y0035117D01*
X0188173Y0035715D02*
X0196950Y0035715D01*
X0196950Y0036314D02*
X0189202Y0036314D01*
X0189801Y0036912D02*
X0196950Y0036912D01*
X0196950Y0037511D02*
X0190197Y0037511D01*
X0190445Y0038109D02*
X0196950Y0038109D01*
X0196950Y0038708D02*
X0190675Y0038708D01*
X0190675Y0039306D02*
X0196950Y0039306D01*
X0196950Y0039905D02*
X0190675Y0039905D01*
X0190584Y0040503D02*
X0196950Y0040503D01*
X0196950Y0041102D02*
X0190336Y0041102D01*
X0190088Y0041700D02*
X0196950Y0041700D01*
X0196950Y0042299D02*
X0189538Y0042299D01*
X0188939Y0042897D02*
X0196950Y0042897D01*
X0196950Y0043496D02*
X0189602Y0043496D01*
X0190200Y0044094D02*
X0196950Y0044094D01*
X0196950Y0044693D02*
X0190746Y0044693D01*
X0190994Y0045291D02*
X0196950Y0045291D01*
X0196950Y0045890D02*
X0191242Y0045890D01*
X0191446Y0046488D02*
X0196950Y0046488D01*
X0196950Y0047087D02*
X0191446Y0047087D01*
X0191446Y0047685D02*
X0196950Y0047685D01*
X0196950Y0048284D02*
X0191446Y0048284D01*
X0191210Y0048882D02*
X0196950Y0048882D01*
X0196950Y0049481D02*
X0190962Y0049481D01*
X0190714Y0050079D02*
X0196950Y0050079D01*
X0196950Y0050678D02*
X0190124Y0050678D01*
X0189525Y0051276D02*
X0196950Y0051276D01*
X0196950Y0051875D02*
X0188335Y0051875D01*
X0184865Y0051875D02*
X0180599Y0051875D01*
X0180599Y0052473D02*
X0196950Y0052473D01*
X0196950Y0053072D02*
X0180599Y0053072D01*
X0180599Y0053670D02*
X0196950Y0053670D01*
X0196950Y0054269D02*
X0180599Y0054269D01*
X0180599Y0054868D02*
X0196950Y0054868D01*
X0196950Y0055466D02*
X0180599Y0055466D01*
X0180599Y0056065D02*
X0196950Y0056065D01*
X0196950Y0056663D02*
X0180599Y0056663D01*
X0180599Y0057262D02*
X0196950Y0057262D01*
X0196950Y0057860D02*
X0180599Y0057860D01*
X0180599Y0058459D02*
X0196950Y0058459D01*
X0196950Y0059057D02*
X0180599Y0059057D01*
X0180599Y0059656D02*
X0196950Y0059656D01*
X0196950Y0060254D02*
X0180599Y0060254D01*
X0180599Y0060853D02*
X0196950Y0060853D01*
X0196950Y0061451D02*
X0180599Y0061451D01*
X0180599Y0062050D02*
X0192017Y0062050D01*
X0191033Y0062648D02*
X0180599Y0062648D01*
X0180599Y0063247D02*
X0190382Y0063247D01*
X0189921Y0063845D02*
X0180599Y0063845D01*
X0180599Y0064444D02*
X0189587Y0064444D01*
X0189349Y0065042D02*
X0180599Y0065042D01*
X0180599Y0065641D02*
X0189190Y0065641D01*
X0189100Y0066239D02*
X0180599Y0066239D01*
X0180599Y0066838D02*
X0193800Y0066838D01*
X0193800Y0066239D02*
X0194400Y0066239D01*
X0194400Y0065641D02*
X0193800Y0065641D01*
X0193800Y0065042D02*
X0194400Y0065042D01*
X0194400Y0064444D02*
X0193800Y0064444D01*
X0193800Y0063845D02*
X0194400Y0063845D01*
X0194400Y0063247D02*
X0193800Y0063247D01*
X0193800Y0062648D02*
X0194400Y0062648D01*
X0194400Y0062050D02*
X0193800Y0062050D01*
X0196183Y0062050D02*
X0196950Y0062050D01*
X0189170Y0067436D02*
X0180599Y0067436D01*
X0180599Y0068035D02*
X0189309Y0068035D01*
X0189524Y0068633D02*
X0180599Y0068633D01*
X0180599Y0069232D02*
X0189832Y0069232D01*
X0190267Y0069830D02*
X0180599Y0069830D01*
X0180599Y0070429D02*
X0190863Y0070429D01*
X0191776Y0071027D02*
X0180599Y0071027D01*
X0180599Y0071626D02*
X0192520Y0071626D01*
X0191122Y0072224D02*
X0180599Y0072224D01*
X0180599Y0072823D02*
X0190523Y0072823D01*
X0189925Y0073421D02*
X0180599Y0073421D01*
X0180599Y0074020D02*
X0189540Y0074020D01*
X0189292Y0074618D02*
X0180599Y0074618D01*
X0180599Y0075217D02*
X0189044Y0075217D01*
X0188900Y0075815D02*
X0180599Y0075815D01*
X0180599Y0076414D02*
X0188900Y0076414D01*
X0188900Y0077012D02*
X0180599Y0077012D01*
X0180599Y0077611D02*
X0188900Y0077611D01*
X0189138Y0078209D02*
X0180599Y0078209D01*
X0180599Y0078808D02*
X0189386Y0078808D01*
X0189634Y0079406D02*
X0180599Y0079406D01*
X0180599Y0080005D02*
X0190151Y0080005D01*
X0190750Y0080603D02*
X0180599Y0080603D01*
X0180599Y0081202D02*
X0191622Y0081202D01*
X0192099Y0081801D02*
X0180599Y0081801D01*
X0180599Y0082399D02*
X0190947Y0082399D01*
X0190349Y0082998D02*
X0180599Y0082998D01*
X0180599Y0083596D02*
X0189750Y0083596D01*
X0189468Y0084195D02*
X0180599Y0084195D01*
X0180599Y0084793D02*
X0189220Y0084793D01*
X0188972Y0085392D02*
X0180599Y0085392D01*
X0180599Y0085990D02*
X0188900Y0085990D01*
X0188900Y0086589D02*
X0180599Y0086589D01*
X0180599Y0087187D02*
X0188900Y0087187D01*
X0188963Y0087786D02*
X0180599Y0087786D01*
X0180599Y0088384D02*
X0189211Y0088384D01*
X0189458Y0088983D02*
X0180599Y0088983D01*
X0180599Y0089581D02*
X0189727Y0089581D01*
X0190326Y0090180D02*
X0180599Y0090180D01*
X0180599Y0090778D02*
X0190924Y0090778D01*
X0192044Y0091377D02*
X0180599Y0091377D01*
X0180599Y0091975D02*
X0191677Y0091975D01*
X0190772Y0092574D02*
X0180599Y0092574D01*
X0180599Y0093172D02*
X0190174Y0093172D01*
X0189643Y0093771D02*
X0180599Y0093771D01*
X0180599Y0094369D02*
X0189396Y0094369D01*
X0188900Y0096165D02*
X0180599Y0096165D01*
X0180599Y0096763D02*
X0188900Y0096763D01*
X0188900Y0097362D02*
X0180599Y0097362D01*
X0180599Y0097960D02*
X0189035Y0097960D01*
X0189283Y0098559D02*
X0180599Y0098559D01*
X0180599Y0099157D02*
X0189531Y0099157D01*
X0189902Y0099756D02*
X0180599Y0099756D01*
X0180599Y0100354D02*
X0190500Y0100354D01*
X0191099Y0100953D02*
X0180599Y0100953D01*
X0180599Y0101551D02*
X0192465Y0101551D01*
X0191255Y0102150D02*
X0180599Y0102150D01*
X0180599Y0102748D02*
X0190598Y0102748D01*
X0189999Y0103347D02*
X0180599Y0103347D01*
X0180599Y0103945D02*
X0189571Y0103945D01*
X0189323Y0104544D02*
X0180599Y0104544D01*
X0180599Y0105142D02*
X0189075Y0105142D01*
X0188900Y0105741D02*
X0180599Y0105741D01*
X0180599Y0106339D02*
X0188900Y0106339D01*
X0188900Y0106938D02*
X0180599Y0106938D01*
X0180599Y0107537D02*
X0188900Y0107537D01*
X0189107Y0108135D02*
X0180599Y0108135D01*
X0180599Y0108734D02*
X0189355Y0108734D01*
X0189603Y0109332D02*
X0180599Y0109332D01*
X0180599Y0109931D02*
X0190077Y0109931D01*
X0190675Y0110529D02*
X0180599Y0110529D01*
X0180599Y0111128D02*
X0191442Y0111128D01*
X0192278Y0111726D02*
X0180599Y0111726D01*
X0180599Y0112325D02*
X0191021Y0112325D01*
X0190423Y0112923D02*
X0180599Y0112923D01*
X0180599Y0113522D02*
X0189824Y0113522D01*
X0189499Y0114120D02*
X0180599Y0114120D01*
X0180599Y0114719D02*
X0189251Y0114719D01*
X0189003Y0115317D02*
X0180599Y0115317D01*
X0180599Y0115916D02*
X0188900Y0115916D01*
X0188900Y0116514D02*
X0180599Y0116514D01*
X0180599Y0117113D02*
X0188900Y0117113D01*
X0188932Y0117711D02*
X0180599Y0117711D01*
X0180599Y0118310D02*
X0189180Y0118310D01*
X0189428Y0118908D02*
X0180599Y0118908D01*
X0180599Y0119507D02*
X0189676Y0119507D01*
X0190251Y0120105D02*
X0180599Y0120105D01*
X0180599Y0120704D02*
X0190850Y0120704D01*
X0191864Y0121302D02*
X0180599Y0121302D01*
X0180599Y0121901D02*
X0191857Y0121901D01*
X0190847Y0122499D02*
X0180599Y0122499D01*
X0180599Y0123098D02*
X0190248Y0123098D01*
X0189674Y0123696D02*
X0180599Y0123696D01*
X0180599Y0124295D02*
X0189426Y0124295D01*
X0189178Y0124893D02*
X0180599Y0124893D01*
X0180599Y0125492D02*
X0188931Y0125492D01*
X0188900Y0126090D02*
X0180599Y0126090D01*
X0180599Y0126689D02*
X0188900Y0126689D01*
X0188900Y0127287D02*
X0180599Y0127287D01*
X0180599Y0127886D02*
X0189004Y0127886D01*
X0189252Y0128484D02*
X0180599Y0128484D01*
X0180599Y0129083D02*
X0189500Y0129083D01*
X0189828Y0129681D02*
X0180599Y0129681D01*
X0180599Y0130280D02*
X0190426Y0130280D01*
X0191025Y0130878D02*
X0180599Y0130878D01*
X0180599Y0131477D02*
X0192286Y0131477D01*
X0191435Y0132075D02*
X0180599Y0132075D01*
X0180599Y0132674D02*
X0190672Y0132674D01*
X0190074Y0133272D02*
X0180599Y0133272D01*
X0180599Y0133871D02*
X0189602Y0133871D01*
X0189354Y0134470D02*
X0180599Y0134470D01*
X0180599Y0135068D02*
X0189106Y0135068D01*
X0188900Y0135667D02*
X0180599Y0135667D01*
X0180599Y0136265D02*
X0188900Y0136265D01*
X0188900Y0136864D02*
X0180599Y0136864D01*
X0180599Y0137462D02*
X0188900Y0137462D01*
X0189077Y0138061D02*
X0180599Y0138061D01*
X0180599Y0138659D02*
X0189324Y0138659D01*
X0189572Y0139258D02*
X0180599Y0139258D01*
X0180599Y0139856D02*
X0190002Y0139856D01*
X0190601Y0140455D02*
X0180599Y0140455D01*
X0180599Y0141053D02*
X0191263Y0141053D01*
X0192708Y0141652D02*
X0180599Y0141652D01*
X0180599Y0142250D02*
X0196950Y0142250D01*
X0196950Y0141652D02*
X0195492Y0141652D01*
X0196937Y0141053D02*
X0196950Y0141053D01*
X0196950Y0142849D02*
X0180599Y0142849D01*
X0180599Y0143447D02*
X0196950Y0143447D01*
X0196950Y0144046D02*
X0180599Y0144046D01*
X0180599Y0144644D02*
X0196950Y0144644D01*
X0196950Y0145243D02*
X0180599Y0145243D01*
X0180599Y0145841D02*
X0196950Y0145841D01*
X0196950Y0146440D02*
X0180599Y0146440D01*
X0180599Y0147038D02*
X0196950Y0147038D01*
X0196950Y0147637D02*
X0180599Y0147637D01*
X0180599Y0148235D02*
X0196950Y0148235D01*
X0196950Y0148834D02*
X0180599Y0148834D01*
X0180599Y0149432D02*
X0196950Y0149432D01*
X0196950Y0150031D02*
X0180599Y0150031D01*
X0180599Y0150629D02*
X0196950Y0150629D01*
X0196950Y0151228D02*
X0180599Y0151228D01*
X0180599Y0151826D02*
X0196950Y0151826D01*
X0196950Y0152425D02*
X0180599Y0152425D01*
X0180599Y0153023D02*
X0196950Y0153023D01*
X0196950Y0153622D02*
X0180599Y0153622D01*
X0180599Y0154220D02*
X0196950Y0154220D01*
X0196950Y0154819D02*
X0180599Y0154819D01*
X0180599Y0155417D02*
X0196950Y0155417D01*
X0196950Y0156016D02*
X0180599Y0156016D01*
X0180599Y0156614D02*
X0196950Y0156614D01*
X0196950Y0157213D02*
X0180599Y0157213D01*
X0180599Y0157811D02*
X0196950Y0157811D01*
X0196950Y0158410D02*
X0180599Y0158410D01*
X0180599Y0158459D02*
X0181354Y0159213D01*
X0181974Y0160711D01*
X0181974Y0162332D01*
X0181354Y0163829D01*
X0180207Y0164976D01*
X0178824Y0165549D01*
X0178824Y0167056D01*
X0178204Y0168554D01*
X0177058Y0169700D01*
X0175560Y0170320D01*
X0173939Y0170320D01*
X0172441Y0169700D01*
X0171600Y0168859D01*
X0170759Y0169700D01*
X0169261Y0170320D01*
X0167640Y0170320D01*
X0166142Y0169700D01*
X0164996Y0168554D01*
X0164376Y0167056D01*
X0164376Y0165435D01*
X0164432Y0165299D01*
X0164171Y0165247D01*
X0163465Y0164955D01*
X0162831Y0164531D01*
X0162291Y0163991D01*
X0161867Y0163357D01*
X0161575Y0162651D01*
X0161426Y0161903D01*
X0161426Y0161821D01*
X0165001Y0161821D01*
X0165001Y0161221D01*
X0165601Y0161221D01*
X0165601Y0157646D01*
X0165682Y0157646D01*
X0166431Y0157795D01*
X0167136Y0158087D01*
X0167771Y0158512D01*
X0168309Y0159050D01*
X0169292Y0158067D01*
X0170789Y0157446D01*
X0172411Y0157446D01*
X0173908Y0158067D01*
X0174750Y0158908D01*
X0175199Y0158459D01*
X0175199Y0041070D01*
X0175110Y0040856D01*
X0175110Y0039746D01*
X0175535Y0038721D01*
X0176319Y0037936D01*
X0177344Y0037512D01*
X0178454Y0037512D01*
X0179479Y0037936D01*
X0180264Y0038721D01*
X0180688Y0039746D01*
X0180688Y0040856D01*
X0180599Y0041070D01*
X0180599Y0158459D01*
X0181149Y0159008D02*
X0196950Y0159008D01*
X0196950Y0159607D02*
X0181517Y0159607D01*
X0181765Y0160205D02*
X0196950Y0160205D01*
X0196950Y0160804D02*
X0181974Y0160804D01*
X0181974Y0161403D02*
X0196950Y0161403D01*
X0196950Y0162001D02*
X0181974Y0162001D01*
X0181863Y0162600D02*
X0196950Y0162600D01*
X0196950Y0163198D02*
X0181615Y0163198D01*
X0181367Y0163797D02*
X0196950Y0163797D01*
X0196950Y0164395D02*
X0180788Y0164395D01*
X0180164Y0164994D02*
X0196950Y0164994D01*
X0196950Y0165592D02*
X0178824Y0165592D01*
X0178824Y0166191D02*
X0196950Y0166191D01*
X0196950Y0166789D02*
X0178824Y0166789D01*
X0178687Y0167388D02*
X0196950Y0167388D01*
X0196950Y0167986D02*
X0178439Y0167986D01*
X0178173Y0168585D02*
X0196950Y0168585D01*
X0196950Y0169183D02*
X0177575Y0169183D01*
X0176861Y0169782D02*
X0196950Y0169782D01*
X0196950Y0170380D02*
X0164113Y0170380D01*
X0163964Y0170020D02*
X0164389Y0171045D01*
X0164389Y0172155D01*
X0163964Y0173180D01*
X0163180Y0173964D01*
X0162155Y0174389D01*
X0161045Y0174389D01*
X0160020Y0173964D01*
X0159756Y0173700D01*
X0159618Y0173700D01*
X0158388Y0172470D01*
X0152807Y0166889D01*
X0152433Y0166889D01*
X0151408Y0166464D01*
X0150624Y0165680D01*
X0150199Y0164655D01*
X0150199Y0163545D01*
X0150624Y0162520D01*
X0151408Y0161736D01*
X0152433Y0161311D01*
X0153543Y0161311D01*
X0154568Y0161736D01*
X0155353Y0162520D01*
X0155777Y0163545D01*
X0155777Y0163919D01*
X0160779Y0168921D01*
X0161045Y0168811D01*
X0162155Y0168811D01*
X0163180Y0169236D01*
X0163964Y0170020D01*
X0163726Y0169782D02*
X0166339Y0169782D01*
X0165625Y0169183D02*
X0163053Y0169183D01*
X0165027Y0168585D02*
X0160443Y0168585D01*
X0159844Y0167986D02*
X0164761Y0167986D01*
X0164513Y0167388D02*
X0159246Y0167388D01*
X0158647Y0166789D02*
X0164376Y0166789D01*
X0164376Y0166191D02*
X0158049Y0166191D01*
X0157450Y0165592D02*
X0164376Y0165592D01*
X0163558Y0164994D02*
X0156852Y0164994D01*
X0156253Y0164395D02*
X0162695Y0164395D01*
X0162161Y0163797D02*
X0155777Y0163797D01*
X0155633Y0163198D02*
X0161801Y0163198D01*
X0161565Y0162600D02*
X0155385Y0162600D01*
X0154833Y0162001D02*
X0161446Y0162001D01*
X0161426Y0161221D02*
X0161426Y0161140D01*
X0161575Y0160391D01*
X0161867Y0159686D01*
X0162291Y0159051D01*
X0162831Y0158512D01*
X0163465Y0158087D01*
X0164171Y0157795D01*
X0164919Y0157646D01*
X0165001Y0157646D01*
X0165001Y0161221D01*
X0161426Y0161221D01*
X0161493Y0160804D02*
X0138774Y0160804D01*
X0139281Y0161311D02*
X0139655Y0161311D01*
X0140680Y0161736D01*
X0141464Y0162520D01*
X0141889Y0163545D01*
X0141889Y0164655D01*
X0141464Y0165680D01*
X0140680Y0166464D01*
X0139655Y0166889D01*
X0138545Y0166889D01*
X0137520Y0166464D01*
X0136736Y0165680D01*
X0136311Y0164655D01*
X0136311Y0164281D01*
X0129500Y0157470D01*
X0129500Y0117470D01*
X0126419Y0114389D01*
X0126045Y0114389D01*
X0125020Y0113964D01*
X0124236Y0113180D01*
X0123811Y0112155D01*
X0123811Y0111045D01*
X0124236Y0110020D01*
X0125020Y0109236D01*
X0126045Y0108811D01*
X0127155Y0108811D01*
X0128180Y0109236D01*
X0128964Y0110020D01*
X0129389Y0111045D01*
X0129389Y0111419D01*
X0132470Y0114500D01*
X0133700Y0115730D01*
X0133700Y0155730D01*
X0139281Y0161311D01*
X0139876Y0161403D02*
X0152213Y0161403D01*
X0151143Y0162001D02*
X0140945Y0162001D01*
X0141497Y0162600D02*
X0150591Y0162600D01*
X0150343Y0163198D02*
X0141745Y0163198D01*
X0141889Y0163797D02*
X0150199Y0163797D01*
X0150199Y0164395D02*
X0141889Y0164395D01*
X0141749Y0164994D02*
X0150340Y0164994D01*
X0150587Y0165592D02*
X0141501Y0165592D01*
X0140954Y0166191D02*
X0151135Y0166191D01*
X0152192Y0166789D02*
X0139896Y0166789D01*
X0138304Y0166789D02*
X0119698Y0166789D01*
X0119367Y0166459D02*
X0120068Y0167160D01*
X0120068Y0172733D01*
X0119190Y0173612D01*
X0118700Y0173612D01*
X0118700Y0174756D01*
X0118964Y0175020D01*
X0119389Y0176045D01*
X0119389Y0177155D01*
X0118964Y0178180D01*
X0118180Y0178964D01*
X0117155Y0179389D01*
X0116045Y0179389D01*
X0115020Y0178964D01*
X0114236Y0178180D01*
X0113811Y0177155D01*
X0113811Y0176045D01*
X0114236Y0175020D01*
X0114500Y0174756D01*
X0114500Y0173612D01*
X0114010Y0173612D01*
X0113131Y0172733D01*
X0113131Y0167160D01*
X0113833Y0166459D01*
X0113591Y0166217D01*
X0113420Y0165921D01*
X0113331Y0165590D01*
X0113331Y0163554D01*
X0116300Y0163554D01*
X0116300Y0162954D01*
X0113331Y0162954D01*
X0113331Y0160917D01*
X0113420Y0160586D01*
X0113591Y0160290D01*
X0113833Y0160048D01*
X0114130Y0159877D01*
X0114460Y0159788D01*
X0116300Y0159788D01*
X0116300Y0162953D01*
X0116900Y0162953D01*
X0116900Y0159788D01*
X0118740Y0159788D01*
X0119070Y0159877D01*
X0119367Y0160048D01*
X0119609Y0160290D01*
X0119780Y0160586D01*
X0119868Y0160917D01*
X0119868Y0162954D01*
X0116900Y0162954D01*
X0116900Y0163554D01*
X0119868Y0163554D01*
X0119868Y0165590D01*
X0119780Y0165921D01*
X0119609Y0166217D01*
X0119367Y0166459D01*
X0119624Y0166191D02*
X0137246Y0166191D01*
X0136699Y0165592D02*
X0119868Y0165592D01*
X0119868Y0164994D02*
X0136451Y0164994D01*
X0136311Y0164395D02*
X0119868Y0164395D01*
X0119868Y0163797D02*
X0135827Y0163797D01*
X0135228Y0163198D02*
X0116900Y0163198D01*
X0116900Y0162600D02*
X0116300Y0162600D01*
X0116300Y0163198D02*
X0107759Y0163198D01*
X0107656Y0163447D02*
X0107229Y0164086D01*
X0106686Y0164629D01*
X0106047Y0165056D01*
X0105338Y0165350D01*
X0104584Y0165500D01*
X0101900Y0165500D01*
X0101900Y0161900D01*
X0101300Y0161900D01*
X0101300Y0165500D01*
X0098616Y0165500D01*
X0097862Y0165350D01*
X0097153Y0165056D01*
X0096514Y0164629D01*
X0095971Y0164086D01*
X0095544Y0163447D01*
X0095250Y0162738D01*
X0095100Y0161984D01*
X0095100Y0161900D01*
X0101300Y0161900D01*
X0101300Y0161300D01*
X0101900Y0161300D01*
X0101900Y0161900D01*
X0108100Y0161900D01*
X0108100Y0161984D01*
X0107950Y0162738D01*
X0107656Y0163447D01*
X0107423Y0163797D02*
X0113331Y0163797D01*
X0113331Y0164395D02*
X0106920Y0164395D01*
X0106141Y0164994D02*
X0113331Y0164994D01*
X0113332Y0165592D02*
X0075276Y0165592D01*
X0075016Y0165700D02*
X0076522Y0165076D01*
X0077676Y0163922D01*
X0078300Y0162416D01*
X0078300Y0160784D01*
X0077676Y0159278D01*
X0076522Y0158124D01*
X0075016Y0157500D01*
X0068184Y0157500D01*
X0066678Y0158124D01*
X0065524Y0159278D01*
X0064900Y0160784D01*
X0064900Y0162416D01*
X0065524Y0163922D01*
X0066678Y0165076D01*
X0068184Y0165700D01*
X0075016Y0165700D01*
X0076605Y0164994D02*
X0097059Y0164994D01*
X0096280Y0164395D02*
X0077203Y0164395D01*
X0077728Y0163797D02*
X0089852Y0163797D01*
X0089254Y0163198D02*
X0077976Y0163198D01*
X0078224Y0162600D02*
X0088995Y0162600D01*
X0088811Y0162001D02*
X0078300Y0162001D01*
X0078300Y0161403D02*
X0088811Y0161403D01*
X0088911Y0160804D02*
X0078300Y0160804D01*
X0078060Y0160205D02*
X0089159Y0160205D01*
X0089500Y0159607D02*
X0077812Y0159607D01*
X0077407Y0159008D02*
X0089500Y0159008D01*
X0089500Y0158410D02*
X0076808Y0158410D01*
X0075767Y0157811D02*
X0089500Y0157811D01*
X0089500Y0157213D02*
X0048700Y0157213D01*
X0048700Y0157811D02*
X0067433Y0157811D01*
X0066392Y0158410D02*
X0048700Y0158410D01*
X0048700Y0159008D02*
X0065793Y0159008D01*
X0065388Y0159607D02*
X0048700Y0159607D01*
X0048700Y0160205D02*
X0065140Y0160205D01*
X0064900Y0160804D02*
X0048700Y0160804D01*
X0048700Y0161403D02*
X0064900Y0161403D01*
X0064900Y0162001D02*
X0048700Y0162001D01*
X0048700Y0162600D02*
X0064976Y0162600D01*
X0065224Y0163198D02*
X0048700Y0163198D01*
X0048700Y0163797D02*
X0065472Y0163797D01*
X0065997Y0164395D02*
X0048700Y0164395D01*
X0048700Y0164994D02*
X0066595Y0164994D01*
X0067924Y0165592D02*
X0048700Y0165592D01*
X0048700Y0166191D02*
X0113576Y0166191D01*
X0113502Y0166789D02*
X0048700Y0166789D01*
X0048700Y0167388D02*
X0113131Y0167388D01*
X0113131Y0167986D02*
X0106189Y0167986D01*
X0106522Y0168124D02*
X0107676Y0169278D01*
X0108300Y0170784D01*
X0108300Y0172416D01*
X0107676Y0173922D01*
X0106522Y0175076D01*
X0105016Y0175700D01*
X0098184Y0175700D01*
X0096678Y0175076D01*
X0095524Y0173922D01*
X0094900Y0172416D01*
X0094900Y0170784D01*
X0095524Y0169278D01*
X0096678Y0168124D01*
X0098184Y0167500D01*
X0105016Y0167500D01*
X0106522Y0168124D01*
X0106983Y0168585D02*
X0113131Y0168585D01*
X0113131Y0169183D02*
X0107581Y0169183D01*
X0107885Y0169782D02*
X0113131Y0169782D01*
X0113131Y0170380D02*
X0108133Y0170380D01*
X0108300Y0170979D02*
X0113131Y0170979D01*
X0113131Y0171577D02*
X0108300Y0171577D01*
X0108300Y0172176D02*
X0113131Y0172176D01*
X0113173Y0172774D02*
X0108151Y0172774D01*
X0107904Y0173373D02*
X0113771Y0173373D01*
X0114500Y0173971D02*
X0107627Y0173971D01*
X0107028Y0174570D02*
X0114500Y0174570D01*
X0114174Y0175168D02*
X0106299Y0175168D01*
X0113811Y0176365D02*
X0064805Y0176365D01*
X0065403Y0175767D02*
X0113926Y0175767D01*
X0113811Y0176964D02*
X0064206Y0176964D01*
X0063700Y0177562D02*
X0113980Y0177562D01*
X0114228Y0178161D02*
X0063700Y0178161D01*
X0063700Y0178759D02*
X0114815Y0178759D01*
X0115970Y0179358D02*
X0063700Y0179358D01*
X0063700Y0179956D02*
X0119299Y0179956D01*
X0119236Y0180020D02*
X0120020Y0179236D01*
X0121045Y0178811D01*
X0121419Y0178811D01*
X0128811Y0171419D01*
X0128811Y0171045D01*
X0129236Y0170020D01*
X0130020Y0169236D01*
X0131045Y0168811D01*
X0132155Y0168811D01*
X0133180Y0169236D01*
X0133964Y0170020D01*
X0134389Y0171045D01*
X0134389Y0172155D01*
X0133964Y0173180D01*
X0133180Y0173964D01*
X0132155Y0174389D01*
X0131781Y0174389D01*
X0124389Y0181781D01*
X0124389Y0182155D01*
X0123964Y0183180D01*
X0123180Y0183964D01*
X0122155Y0184389D01*
X0121045Y0184389D01*
X0120020Y0183964D01*
X0119236Y0183180D01*
X0118811Y0182155D01*
X0118811Y0181045D01*
X0119236Y0180020D01*
X0119014Y0180555D02*
X0063700Y0180555D01*
X0063700Y0181153D02*
X0118811Y0181153D01*
X0118811Y0181752D02*
X0063700Y0181752D01*
X0064704Y0182350D02*
X0118892Y0182350D01*
X0119140Y0182949D02*
X0065303Y0182949D01*
X0065901Y0183547D02*
X0119603Y0183547D01*
X0120459Y0184146D02*
X0066212Y0184146D01*
X0066460Y0184744D02*
X0129511Y0184744D01*
X0129236Y0185020D02*
X0130020Y0184236D01*
X0131045Y0183811D01*
X0132155Y0183811D01*
X0133180Y0184236D01*
X0133444Y0184500D01*
X0135572Y0184500D01*
X0135572Y0184404D01*
X0136451Y0183525D01*
X0140843Y0183525D01*
X0141600Y0184282D01*
X0142357Y0183525D01*
X0142453Y0183525D01*
X0142453Y0180265D01*
X0142357Y0180265D01*
X0141478Y0179387D01*
X0141478Y0179101D01*
X0141433Y0179267D01*
X0141262Y0179564D01*
X0141020Y0179806D01*
X0140724Y0179977D01*
X0140393Y0180065D01*
X0138554Y0180065D01*
X0138554Y0176900D01*
X0137954Y0176900D01*
X0137954Y0180065D01*
X0136114Y0180065D01*
X0135783Y0179977D01*
X0135487Y0179806D01*
X0135245Y0179564D01*
X0135074Y0179267D01*
X0134985Y0178937D01*
X0134985Y0176900D01*
X0137953Y0176900D01*
X0137953Y0176300D01*
X0134985Y0176300D01*
X0134985Y0174263D01*
X0135074Y0173933D01*
X0135245Y0173636D01*
X0135487Y0173394D01*
X0135783Y0173223D01*
X0136114Y0173135D01*
X0137954Y0173135D01*
X0137954Y0176300D01*
X0138554Y0176300D01*
X0138554Y0173135D01*
X0140393Y0173135D01*
X0140724Y0173223D01*
X0141020Y0173394D01*
X0141262Y0173636D01*
X0141433Y0173933D01*
X0141478Y0174099D01*
X0141478Y0173813D01*
X0142357Y0172935D01*
X0147536Y0172935D01*
X0148415Y0173813D01*
X0148415Y0179387D01*
X0147536Y0180265D01*
X0146653Y0180265D01*
X0146653Y0183525D01*
X0146749Y0183525D01*
X0147628Y0184404D01*
X0147628Y0188796D01*
X0146749Y0189675D01*
X0142357Y0189675D01*
X0141600Y0188918D01*
X0140843Y0189675D01*
X0136451Y0189675D01*
X0135572Y0188796D01*
X0135572Y0188700D01*
X0133444Y0188700D01*
X0133180Y0188964D01*
X0132155Y0189389D01*
X0131045Y0189389D01*
X0130020Y0188964D01*
X0129236Y0188180D01*
X0128811Y0187155D01*
X0128811Y0186045D01*
X0129236Y0185020D01*
X0129102Y0185343D02*
X0066708Y0185343D01*
X0066800Y0185941D02*
X0128854Y0185941D01*
X0128811Y0186540D02*
X0066800Y0186540D01*
X0066800Y0187139D02*
X0128811Y0187139D01*
X0129052Y0187737D02*
X0066757Y0187737D01*
X0066510Y0188336D02*
X0129391Y0188336D01*
X0129990Y0188934D02*
X0066262Y0188934D01*
X0066014Y0189533D02*
X0136309Y0189533D01*
X0135710Y0188934D02*
X0133210Y0188934D01*
X0132963Y0184146D02*
X0135830Y0184146D01*
X0136429Y0183547D02*
X0123597Y0183547D01*
X0124060Y0182949D02*
X0142453Y0182949D01*
X0142453Y0182350D02*
X0124308Y0182350D01*
X0124418Y0181752D02*
X0142453Y0181752D01*
X0142453Y0181153D02*
X0125016Y0181153D01*
X0125615Y0180555D02*
X0142453Y0180555D01*
X0142048Y0179956D02*
X0140759Y0179956D01*
X0141381Y0179358D02*
X0141478Y0179358D01*
X0138554Y0179358D02*
X0137954Y0179358D01*
X0137954Y0179956D02*
X0138554Y0179956D01*
X0138554Y0178759D02*
X0137954Y0178759D01*
X0137954Y0178161D02*
X0138554Y0178161D01*
X0138554Y0177562D02*
X0137954Y0177562D01*
X0137954Y0176964D02*
X0138554Y0176964D01*
X0137953Y0176365D02*
X0129805Y0176365D01*
X0130403Y0175767D02*
X0134985Y0175767D01*
X0134985Y0175168D02*
X0131002Y0175168D01*
X0131600Y0174570D02*
X0134985Y0174570D01*
X0135063Y0173971D02*
X0133163Y0173971D01*
X0133771Y0173373D02*
X0135524Y0173373D01*
X0134132Y0172774D02*
X0158693Y0172774D01*
X0159291Y0173373D02*
X0147974Y0173373D01*
X0148415Y0173971D02*
X0160037Y0173971D01*
X0160282Y0175168D02*
X0182918Y0175168D01*
X0181942Y0175572D02*
X0184556Y0174490D01*
X0187384Y0174490D01*
X0189998Y0175572D01*
X0191998Y0177572D01*
X0193080Y0180186D01*
X0193080Y0183014D01*
X0191998Y0185628D01*
X0189998Y0187628D01*
X0187384Y0188710D01*
X0184556Y0188710D01*
X0181942Y0187628D01*
X0179942Y0185628D01*
X0178860Y0183014D01*
X0178860Y0180186D01*
X0179942Y0177572D01*
X0181942Y0175572D01*
X0181748Y0175767D02*
X0161452Y0175767D01*
X0161258Y0175572D02*
X0163258Y0177572D01*
X0164340Y0180186D01*
X0164340Y0183014D01*
X0163258Y0185628D01*
X0161258Y0187628D01*
X0158644Y0188710D01*
X0155816Y0188710D01*
X0153202Y0187628D01*
X0151202Y0185628D01*
X0150120Y0183014D01*
X0150120Y0180186D01*
X0151202Y0177572D01*
X0153202Y0175572D01*
X0155816Y0174490D01*
X0158644Y0174490D01*
X0161258Y0175572D01*
X0162051Y0176365D02*
X0181149Y0176365D01*
X0180551Y0176964D02*
X0162649Y0176964D01*
X0163248Y0177562D02*
X0179952Y0177562D01*
X0179699Y0178161D02*
X0163501Y0178161D01*
X0163749Y0178759D02*
X0179451Y0178759D01*
X0179203Y0179358D02*
X0163997Y0179358D01*
X0164245Y0179956D02*
X0178955Y0179956D01*
X0178860Y0180555D02*
X0164340Y0180555D01*
X0164340Y0181153D02*
X0178860Y0181153D01*
X0178860Y0181752D02*
X0164340Y0181752D01*
X0164340Y0182350D02*
X0178860Y0182350D01*
X0178860Y0182949D02*
X0164340Y0182949D01*
X0164119Y0183547D02*
X0179081Y0183547D01*
X0179329Y0184146D02*
X0163871Y0184146D01*
X0163623Y0184744D02*
X0179577Y0184744D01*
X0179824Y0185343D02*
X0163376Y0185343D01*
X0162944Y0185941D02*
X0180256Y0185941D01*
X0180855Y0186540D02*
X0162345Y0186540D01*
X0161747Y0187139D02*
X0181453Y0187139D01*
X0182206Y0187737D02*
X0160994Y0187737D01*
X0159549Y0188336D02*
X0183651Y0188336D01*
X0188289Y0188336D02*
X0196950Y0188336D01*
X0196950Y0188934D02*
X0147490Y0188934D01*
X0147628Y0188336D02*
X0154911Y0188336D01*
X0153466Y0187737D02*
X0147628Y0187737D01*
X0147628Y0187139D02*
X0152713Y0187139D01*
X0152115Y0186540D02*
X0147628Y0186540D01*
X0147628Y0185941D02*
X0151516Y0185941D01*
X0151084Y0185343D02*
X0147628Y0185343D01*
X0147628Y0184744D02*
X0150836Y0184744D01*
X0150588Y0184146D02*
X0147370Y0184146D01*
X0146771Y0183547D02*
X0150341Y0183547D01*
X0150120Y0182949D02*
X0146653Y0182949D01*
X0146653Y0182350D02*
X0150120Y0182350D01*
X0150120Y0181752D02*
X0146653Y0181752D01*
X0146653Y0181153D02*
X0150120Y0181153D01*
X0150120Y0180555D02*
X0146653Y0180555D01*
X0147845Y0179956D02*
X0150215Y0179956D01*
X0150463Y0179358D02*
X0148415Y0179358D01*
X0148415Y0178759D02*
X0150710Y0178759D01*
X0150958Y0178161D02*
X0148415Y0178161D01*
X0148415Y0177562D02*
X0151212Y0177562D01*
X0151811Y0176964D02*
X0148415Y0176964D01*
X0148415Y0176365D02*
X0152409Y0176365D01*
X0153008Y0175767D02*
X0148415Y0175767D01*
X0148415Y0175168D02*
X0154177Y0175168D01*
X0155622Y0174570D02*
X0148415Y0174570D01*
X0141919Y0173373D02*
X0140983Y0173373D01*
X0141444Y0173971D02*
X0141478Y0173971D01*
X0138554Y0173971D02*
X0137954Y0173971D01*
X0137954Y0173373D02*
X0138554Y0173373D01*
X0138554Y0174570D02*
X0137954Y0174570D01*
X0137954Y0175168D02*
X0138554Y0175168D01*
X0138554Y0175767D02*
X0137954Y0175767D01*
X0134985Y0176964D02*
X0129206Y0176964D01*
X0128608Y0177562D02*
X0134985Y0177562D01*
X0134985Y0178161D02*
X0128009Y0178161D01*
X0127410Y0178759D02*
X0134985Y0178759D01*
X0135126Y0179358D02*
X0126812Y0179358D01*
X0126213Y0179956D02*
X0135748Y0179956D01*
X0140866Y0183547D02*
X0142334Y0183547D01*
X0141736Y0184146D02*
X0141464Y0184146D01*
X0141584Y0188934D02*
X0141616Y0188934D01*
X0142214Y0189533D02*
X0140986Y0189533D01*
X0146891Y0189533D02*
X0196950Y0189533D01*
X0196950Y0190131D02*
X0065423Y0190131D01*
X0064824Y0190730D02*
X0196938Y0190730D01*
X0196891Y0191328D02*
X0063774Y0191328D01*
X0059426Y0191328D02*
X0053774Y0191328D01*
X0054824Y0190730D02*
X0058376Y0190730D01*
X0057777Y0190131D02*
X0055423Y0190131D01*
X0056014Y0189533D02*
X0057186Y0189533D01*
X0056938Y0188934D02*
X0056262Y0188934D01*
X0056510Y0188336D02*
X0056690Y0188336D01*
X0056740Y0184744D02*
X0056460Y0184744D01*
X0056212Y0184146D02*
X0056988Y0184146D01*
X0057299Y0183547D02*
X0055901Y0183547D01*
X0055303Y0182949D02*
X0057897Y0182949D01*
X0058496Y0182350D02*
X0054704Y0182350D01*
X0053484Y0181752D02*
X0059500Y0181752D01*
X0059500Y0178759D02*
X0053385Y0178759D01*
X0052542Y0173971D02*
X0061259Y0173971D01*
X0061857Y0173373D02*
X0048771Y0173373D01*
X0049132Y0172774D02*
X0062456Y0172774D01*
X0063054Y0172176D02*
X0049380Y0172176D01*
X0049389Y0171577D02*
X0063653Y0171577D01*
X0064251Y0170979D02*
X0049361Y0170979D01*
X0049113Y0170380D02*
X0064850Y0170380D01*
X0065315Y0169782D02*
X0048726Y0169782D01*
X0048700Y0169183D02*
X0065619Y0169183D01*
X0066217Y0168585D02*
X0048700Y0168585D01*
X0048700Y0167986D02*
X0067011Y0167986D01*
X0066901Y0175168D02*
X0066002Y0175168D01*
X0076299Y0175168D02*
X0096901Y0175168D01*
X0096172Y0174570D02*
X0077028Y0174570D01*
X0077627Y0173971D02*
X0095573Y0173971D01*
X0095296Y0173373D02*
X0077904Y0173373D01*
X0078151Y0172774D02*
X0095049Y0172774D01*
X0094900Y0172176D02*
X0078300Y0172176D01*
X0078300Y0171577D02*
X0094900Y0171577D01*
X0094900Y0170979D02*
X0078300Y0170979D01*
X0078133Y0170380D02*
X0095067Y0170380D01*
X0095315Y0169782D02*
X0077885Y0169782D01*
X0077581Y0169183D02*
X0095619Y0169183D01*
X0096217Y0168585D02*
X0076983Y0168585D01*
X0076189Y0167986D02*
X0097011Y0167986D01*
X0095777Y0163797D02*
X0093348Y0163797D01*
X0093946Y0163198D02*
X0095441Y0163198D01*
X0095222Y0162600D02*
X0094205Y0162600D01*
X0094389Y0162001D02*
X0095103Y0162001D01*
X0095100Y0161300D02*
X0095100Y0161216D01*
X0095250Y0160462D01*
X0095544Y0159753D01*
X0095971Y0159114D01*
X0096514Y0158571D01*
X0097153Y0158144D01*
X0097862Y0157850D01*
X0098616Y0157700D01*
X0101300Y0157700D01*
X0101300Y0161300D01*
X0095100Y0161300D01*
X0095182Y0160804D02*
X0094289Y0160804D01*
X0094389Y0161403D02*
X0101300Y0161403D01*
X0101300Y0162001D02*
X0101900Y0162001D01*
X0101900Y0161403D02*
X0113331Y0161403D01*
X0113331Y0162001D02*
X0108097Y0162001D01*
X0107978Y0162600D02*
X0113331Y0162600D01*
X0113362Y0160804D02*
X0108018Y0160804D01*
X0107950Y0160462D02*
X0108100Y0161216D01*
X0108100Y0161300D01*
X0101900Y0161300D01*
X0101900Y0157700D01*
X0104584Y0157700D01*
X0105338Y0157850D01*
X0106047Y0158144D01*
X0106686Y0158571D01*
X0107229Y0159114D01*
X0107656Y0159753D01*
X0107950Y0160462D01*
X0107844Y0160205D02*
X0113676Y0160205D01*
X0116300Y0160205D02*
X0116900Y0160205D01*
X0116900Y0160804D02*
X0116300Y0160804D01*
X0116300Y0161403D02*
X0116900Y0161403D01*
X0116900Y0162001D02*
X0116300Y0162001D01*
X0119868Y0162001D02*
X0134031Y0162001D01*
X0133433Y0161403D02*
X0119868Y0161403D01*
X0119838Y0160804D02*
X0132834Y0160804D01*
X0132236Y0160205D02*
X0119524Y0160205D01*
X0119868Y0162600D02*
X0134630Y0162600D01*
X0137577Y0159607D02*
X0161920Y0159607D01*
X0161652Y0160205D02*
X0138175Y0160205D01*
X0136978Y0159008D02*
X0140127Y0159008D01*
X0139466Y0158410D02*
X0136380Y0158410D01*
X0135781Y0157811D02*
X0139083Y0157811D01*
X0138835Y0157213D02*
X0135183Y0157213D01*
X0134584Y0156614D02*
X0138645Y0156614D01*
X0138046Y0156016D02*
X0133986Y0156016D01*
X0133700Y0155417D02*
X0137448Y0155417D01*
X0136849Y0154819D02*
X0133700Y0154819D01*
X0133700Y0154220D02*
X0136251Y0154220D01*
X0135652Y0153622D02*
X0133700Y0153622D01*
X0133700Y0153023D02*
X0135054Y0153023D01*
X0134500Y0152425D02*
X0133700Y0152425D01*
X0133700Y0151826D02*
X0134500Y0151826D01*
X0134500Y0151228D02*
X0133700Y0151228D01*
X0133700Y0150629D02*
X0134500Y0150629D01*
X0134500Y0150031D02*
X0133700Y0150031D01*
X0133700Y0149432D02*
X0134500Y0149432D01*
X0134500Y0148834D02*
X0133700Y0148834D01*
X0133700Y0148235D02*
X0134500Y0148235D01*
X0134500Y0147637D02*
X0133700Y0147637D01*
X0133700Y0147038D02*
X0134500Y0147038D01*
X0134500Y0146440D02*
X0133700Y0146440D01*
X0133700Y0145841D02*
X0134500Y0145841D01*
X0134500Y0145243D02*
X0133700Y0145243D01*
X0133700Y0144644D02*
X0134500Y0144644D01*
X0134500Y0144046D02*
X0133700Y0144046D01*
X0133700Y0143447D02*
X0134500Y0143447D01*
X0134500Y0142849D02*
X0133700Y0142849D01*
X0133700Y0142250D02*
X0134500Y0142250D01*
X0134500Y0141652D02*
X0133700Y0141652D01*
X0133700Y0141053D02*
X0134500Y0141053D01*
X0134500Y0140455D02*
X0133700Y0140455D01*
X0133700Y0139856D02*
X0134500Y0139856D01*
X0134500Y0139258D02*
X0133700Y0139258D01*
X0133700Y0138659D02*
X0134500Y0138659D01*
X0134500Y0138061D02*
X0133700Y0138061D01*
X0133700Y0137462D02*
X0134500Y0137462D01*
X0134500Y0136864D02*
X0133700Y0136864D01*
X0133700Y0136265D02*
X0134500Y0136265D01*
X0134500Y0135667D02*
X0133700Y0135667D01*
X0133700Y0135068D02*
X0134500Y0135068D01*
X0134500Y0134470D02*
X0133700Y0134470D01*
X0133700Y0133871D02*
X0134500Y0133871D01*
X0134500Y0133272D02*
X0133700Y0133272D01*
X0133700Y0132674D02*
X0134500Y0132674D01*
X0134500Y0132075D02*
X0133700Y0132075D01*
X0133700Y0131477D02*
X0134500Y0131477D01*
X0134500Y0130878D02*
X0133700Y0130878D01*
X0133700Y0130280D02*
X0134500Y0130280D01*
X0134500Y0129681D02*
X0133700Y0129681D01*
X0133700Y0129083D02*
X0134500Y0129083D01*
X0134500Y0128484D02*
X0133700Y0128484D01*
X0133700Y0127886D02*
X0134500Y0127886D01*
X0134500Y0127287D02*
X0133700Y0127287D01*
X0133700Y0126689D02*
X0134500Y0126689D01*
X0134500Y0126090D02*
X0133700Y0126090D01*
X0133700Y0125492D02*
X0134500Y0125492D01*
X0134500Y0124893D02*
X0133700Y0124893D01*
X0133700Y0124295D02*
X0134500Y0124295D01*
X0134500Y0123696D02*
X0133700Y0123696D01*
X0133700Y0123098D02*
X0134500Y0123098D01*
X0134500Y0122499D02*
X0133700Y0122499D01*
X0133700Y0121901D02*
X0134500Y0121901D01*
X0134500Y0121302D02*
X0133700Y0121302D01*
X0133700Y0120704D02*
X0134500Y0120704D01*
X0134500Y0120105D02*
X0133700Y0120105D01*
X0133700Y0119507D02*
X0134500Y0119507D01*
X0134500Y0118908D02*
X0133700Y0118908D01*
X0133700Y0118310D02*
X0134500Y0118310D01*
X0134500Y0117711D02*
X0133700Y0117711D01*
X0133700Y0117113D02*
X0134500Y0117113D01*
X0134500Y0116514D02*
X0133700Y0116514D01*
X0133700Y0115916D02*
X0134500Y0115916D01*
X0134500Y0115317D02*
X0133287Y0115317D01*
X0132688Y0114719D02*
X0134500Y0114719D01*
X0134500Y0114120D02*
X0132090Y0114120D01*
X0131491Y0113522D02*
X0134500Y0113522D01*
X0134129Y0112923D02*
X0130893Y0112923D01*
X0130294Y0112325D02*
X0133881Y0112325D01*
X0133811Y0111726D02*
X0129696Y0111726D01*
X0129389Y0111128D02*
X0133811Y0111128D01*
X0134025Y0110529D02*
X0129175Y0110529D01*
X0128875Y0109931D02*
X0134325Y0109931D01*
X0134924Y0109332D02*
X0128276Y0109332D01*
X0124924Y0109332D02*
X0107698Y0109332D01*
X0107946Y0109931D02*
X0124325Y0109931D01*
X0124025Y0110529D02*
X0108194Y0110529D01*
X0108300Y0111128D02*
X0123811Y0111128D01*
X0123811Y0111726D02*
X0108300Y0111726D01*
X0108300Y0112325D02*
X0123881Y0112325D01*
X0124129Y0112923D02*
X0108090Y0112923D01*
X0107842Y0113522D02*
X0124577Y0113522D01*
X0125396Y0114120D02*
X0122901Y0114120D01*
X0123180Y0114236D02*
X0123964Y0115020D01*
X0124389Y0116045D01*
X0124389Y0117155D01*
X0123964Y0118180D01*
X0123180Y0118964D01*
X0122155Y0119389D01*
X0121781Y0119389D01*
X0108700Y0132470D01*
X0107979Y0133191D01*
X0107676Y0133922D01*
X0106522Y0135076D01*
X0105016Y0135700D01*
X0098184Y0135700D01*
X0096678Y0135076D01*
X0095524Y0133922D01*
X0094900Y0132416D01*
X0094900Y0130784D01*
X0095524Y0129278D01*
X0096678Y0128124D01*
X0098184Y0127500D01*
X0105016Y0127500D01*
X0106522Y0128124D01*
X0106814Y0128416D01*
X0118811Y0116419D01*
X0118811Y0116045D01*
X0119236Y0115020D01*
X0120020Y0114236D01*
X0121045Y0113811D01*
X0122155Y0113811D01*
X0123180Y0114236D01*
X0123663Y0114719D02*
X0126749Y0114719D01*
X0127347Y0115317D02*
X0124087Y0115317D01*
X0124335Y0115916D02*
X0127946Y0115916D01*
X0128544Y0116514D02*
X0124389Y0116514D01*
X0124389Y0117113D02*
X0129143Y0117113D01*
X0129500Y0117711D02*
X0124158Y0117711D01*
X0123834Y0118310D02*
X0129500Y0118310D01*
X0129500Y0118908D02*
X0123236Y0118908D01*
X0121663Y0119507D02*
X0129500Y0119507D01*
X0129500Y0120105D02*
X0121065Y0120105D01*
X0120466Y0120704D02*
X0129500Y0120704D01*
X0129500Y0121302D02*
X0119868Y0121302D01*
X0119269Y0121901D02*
X0129500Y0121901D01*
X0129500Y0122499D02*
X0118671Y0122499D01*
X0118072Y0123098D02*
X0129500Y0123098D01*
X0129500Y0123696D02*
X0117474Y0123696D01*
X0116875Y0124295D02*
X0119961Y0124295D01*
X0120020Y0124236D02*
X0121045Y0123811D01*
X0122155Y0123811D01*
X0123180Y0124236D01*
X0123964Y0125020D01*
X0124389Y0126045D01*
X0124389Y0127155D01*
X0123964Y0128180D01*
X0123180Y0128964D01*
X0122155Y0129389D01*
X0121781Y0129389D01*
X0108700Y0142470D01*
X0107979Y0143191D01*
X0107676Y0143922D01*
X0106522Y0145076D01*
X0105016Y0145700D01*
X0098184Y0145700D01*
X0096678Y0145076D01*
X0095524Y0143922D01*
X0094900Y0142416D01*
X0094900Y0140784D01*
X0095524Y0139278D01*
X0096678Y0138124D01*
X0098184Y0137500D01*
X0105016Y0137500D01*
X0106522Y0138124D01*
X0106814Y0138416D01*
X0118811Y0126419D01*
X0118811Y0126045D01*
X0119236Y0125020D01*
X0120020Y0124236D01*
X0119362Y0124893D02*
X0116277Y0124893D01*
X0115678Y0125492D02*
X0119040Y0125492D01*
X0118811Y0126090D02*
X0115079Y0126090D01*
X0114481Y0126689D02*
X0118541Y0126689D01*
X0117943Y0127287D02*
X0113882Y0127287D01*
X0113284Y0127886D02*
X0117344Y0127886D01*
X0116746Y0128484D02*
X0112685Y0128484D01*
X0112087Y0129083D02*
X0116147Y0129083D01*
X0115549Y0129681D02*
X0111488Y0129681D01*
X0110890Y0130280D02*
X0114950Y0130280D01*
X0114352Y0130878D02*
X0110291Y0130878D01*
X0109693Y0131477D02*
X0113753Y0131477D01*
X0113155Y0132075D02*
X0109094Y0132075D01*
X0108496Y0132674D02*
X0112556Y0132674D01*
X0111958Y0133272D02*
X0107945Y0133272D01*
X0107697Y0133871D02*
X0111359Y0133871D01*
X0110761Y0134470D02*
X0107129Y0134470D01*
X0106530Y0135068D02*
X0110162Y0135068D01*
X0109564Y0135667D02*
X0105096Y0135667D01*
X0106369Y0138061D02*
X0107170Y0138061D01*
X0107768Y0137462D02*
X0093700Y0137462D01*
X0093700Y0136864D02*
X0108367Y0136864D01*
X0108965Y0136265D02*
X0093700Y0136265D01*
X0093700Y0135667D02*
X0098104Y0135667D01*
X0096670Y0135068D02*
X0093700Y0135068D01*
X0093700Y0134470D02*
X0096071Y0134470D01*
X0095503Y0133871D02*
X0093700Y0133871D01*
X0093700Y0133272D02*
X0095255Y0133272D01*
X0095007Y0132674D02*
X0093700Y0132674D01*
X0093700Y0132075D02*
X0094900Y0132075D01*
X0094900Y0131477D02*
X0093700Y0131477D01*
X0093700Y0130878D02*
X0094900Y0130878D01*
X0095109Y0130280D02*
X0093700Y0130280D01*
X0093700Y0129681D02*
X0095357Y0129681D01*
X0095719Y0129083D02*
X0093700Y0129083D01*
X0093700Y0128484D02*
X0096317Y0128484D01*
X0097253Y0127886D02*
X0093700Y0127886D01*
X0093700Y0127287D02*
X0107943Y0127287D01*
X0108541Y0126689D02*
X0093700Y0126689D01*
X0093700Y0126090D02*
X0109140Y0126090D01*
X0109738Y0125492D02*
X0105518Y0125492D01*
X0106705Y0124893D02*
X0110337Y0124893D01*
X0110935Y0124295D02*
X0107303Y0124295D01*
X0107769Y0123696D02*
X0111534Y0123696D01*
X0112132Y0123098D02*
X0108017Y0123098D01*
X0108265Y0122499D02*
X0112731Y0122499D01*
X0113329Y0121901D02*
X0108300Y0121901D01*
X0108300Y0121302D02*
X0113928Y0121302D01*
X0114526Y0120704D02*
X0108267Y0120704D01*
X0108019Y0120105D02*
X0115125Y0120105D01*
X0115723Y0119507D02*
X0107771Y0119507D01*
X0107306Y0118908D02*
X0116322Y0118908D01*
X0116920Y0118310D02*
X0106708Y0118310D01*
X0105525Y0117711D02*
X0117519Y0117711D01*
X0118117Y0117113D02*
X0093700Y0117113D01*
X0093700Y0116514D02*
X0118716Y0116514D01*
X0118865Y0115916D02*
X0093700Y0115916D01*
X0093700Y0118310D02*
X0096492Y0118310D01*
X0095894Y0118908D02*
X0093700Y0118908D01*
X0093700Y0119507D02*
X0095429Y0119507D01*
X0095181Y0120105D02*
X0093700Y0120105D01*
X0093700Y0120704D02*
X0094933Y0120704D01*
X0094900Y0121302D02*
X0093700Y0121302D01*
X0093700Y0121901D02*
X0094900Y0121901D01*
X0094935Y0122499D02*
X0093700Y0122499D01*
X0093700Y0123098D02*
X0095183Y0123098D01*
X0095431Y0123696D02*
X0093700Y0123696D01*
X0093700Y0124295D02*
X0095897Y0124295D01*
X0096495Y0124893D02*
X0093700Y0124893D01*
X0093700Y0125492D02*
X0097682Y0125492D01*
X0089500Y0127886D02*
X0075947Y0127886D01*
X0076883Y0128484D02*
X0089500Y0128484D01*
X0089500Y0129083D02*
X0077481Y0129083D01*
X0077843Y0129681D02*
X0089500Y0129681D01*
X0089500Y0130280D02*
X0078091Y0130280D01*
X0078300Y0130878D02*
X0089500Y0130878D01*
X0089500Y0131477D02*
X0078300Y0131477D01*
X0078300Y0132075D02*
X0089500Y0132075D01*
X0089500Y0132674D02*
X0078193Y0132674D01*
X0077945Y0133272D02*
X0089500Y0133272D01*
X0089500Y0133871D02*
X0077697Y0133871D01*
X0077129Y0134470D02*
X0089500Y0134470D01*
X0089500Y0135068D02*
X0076530Y0135068D01*
X0075096Y0135667D02*
X0089500Y0135667D01*
X0089500Y0136265D02*
X0049905Y0136265D01*
X0049306Y0136864D02*
X0089500Y0136864D01*
X0089500Y0137462D02*
X0048708Y0137462D01*
X0052124Y0144046D02*
X0065647Y0144046D01*
X0066246Y0144644D02*
X0051526Y0144644D01*
X0050927Y0145243D02*
X0067081Y0145243D01*
X0068184Y0147500D02*
X0066678Y0148124D01*
X0065524Y0149278D01*
X0064900Y0150784D01*
X0064900Y0152416D01*
X0065524Y0153922D01*
X0066678Y0155076D01*
X0068184Y0155700D01*
X0075016Y0155700D01*
X0076522Y0155076D01*
X0077676Y0153922D01*
X0078300Y0152416D01*
X0078300Y0150784D01*
X0077676Y0149278D01*
X0076522Y0148124D01*
X0075016Y0147500D01*
X0068184Y0147500D01*
X0067854Y0147637D02*
X0048700Y0147637D01*
X0048700Y0148235D02*
X0066566Y0148235D01*
X0065968Y0148834D02*
X0048700Y0148834D01*
X0048700Y0149432D02*
X0065460Y0149432D01*
X0065212Y0150031D02*
X0048700Y0150031D01*
X0048700Y0150629D02*
X0064964Y0150629D01*
X0064900Y0151228D02*
X0048700Y0151228D01*
X0048700Y0151826D02*
X0064900Y0151826D01*
X0064904Y0152425D02*
X0048700Y0152425D01*
X0048700Y0153023D02*
X0065152Y0153023D01*
X0065400Y0153622D02*
X0048700Y0153622D01*
X0048700Y0154220D02*
X0065822Y0154220D01*
X0066421Y0154819D02*
X0048700Y0154819D01*
X0048700Y0155417D02*
X0067502Y0155417D01*
X0075698Y0155417D02*
X0089500Y0155417D01*
X0089500Y0154819D02*
X0076779Y0154819D01*
X0077378Y0154220D02*
X0089500Y0154220D01*
X0089500Y0153622D02*
X0077800Y0153622D01*
X0078048Y0153023D02*
X0089500Y0153023D01*
X0089500Y0152425D02*
X0078296Y0152425D01*
X0078300Y0151826D02*
X0089500Y0151826D01*
X0089500Y0151228D02*
X0078300Y0151228D01*
X0078236Y0150629D02*
X0089500Y0150629D01*
X0089500Y0150031D02*
X0077988Y0150031D01*
X0077740Y0149432D02*
X0089500Y0149432D01*
X0089500Y0148834D02*
X0077232Y0148834D01*
X0076634Y0148235D02*
X0089500Y0148235D01*
X0089500Y0147637D02*
X0075346Y0147637D01*
X0076119Y0145243D02*
X0089500Y0145243D01*
X0089500Y0145841D02*
X0050329Y0145841D01*
X0049730Y0146440D02*
X0089500Y0146440D01*
X0089500Y0147038D02*
X0049132Y0147038D01*
X0048700Y0156016D02*
X0089500Y0156016D01*
X0089500Y0156614D02*
X0048700Y0156614D01*
X0039500Y0164395D02*
X0033339Y0164395D01*
X0036310Y0164994D02*
X0039262Y0164994D01*
X0038999Y0165592D02*
X0036908Y0165592D01*
X0037507Y0166191D02*
X0038811Y0166191D01*
X0038811Y0166789D02*
X0038105Y0166789D01*
X0038704Y0167388D02*
X0038907Y0167388D01*
X0036661Y0174570D02*
X0036539Y0174570D01*
X0031154Y0176365D02*
X0027943Y0176365D01*
X0027943Y0176964D02*
X0031154Y0176964D01*
X0031154Y0177562D02*
X0027943Y0177562D01*
X0027456Y0178161D02*
X0031154Y0178161D01*
X0029716Y0181752D02*
X0023484Y0181752D01*
X0024704Y0182350D02*
X0028496Y0182350D01*
X0027897Y0182949D02*
X0025303Y0182949D01*
X0025901Y0183547D02*
X0027299Y0183547D01*
X0026988Y0184146D02*
X0026212Y0184146D01*
X0026460Y0184744D02*
X0026740Y0184744D01*
X0026690Y0188336D02*
X0026510Y0188336D01*
X0026262Y0188934D02*
X0026938Y0188934D01*
X0027186Y0189533D02*
X0026014Y0189533D01*
X0025423Y0190131D02*
X0027777Y0190131D01*
X0028376Y0190730D02*
X0024824Y0190730D01*
X0023774Y0191328D02*
X0029426Y0191328D01*
X0019426Y0191328D02*
X0013774Y0191328D01*
X0014824Y0190730D02*
X0018376Y0190730D01*
X0017777Y0190131D02*
X0015423Y0190131D01*
X0016014Y0189533D02*
X0017186Y0189533D01*
X0016938Y0188934D02*
X0016262Y0188934D01*
X0016510Y0188336D02*
X0016690Y0188336D01*
X0016740Y0184744D02*
X0016460Y0184744D01*
X0016212Y0184146D02*
X0016988Y0184146D01*
X0017299Y0183547D02*
X0015901Y0183547D01*
X0015303Y0182949D02*
X0017897Y0182949D01*
X0018496Y0182350D02*
X0014704Y0182350D01*
X0013484Y0181752D02*
X0019716Y0181752D01*
X0009716Y0181752D02*
X0003100Y0181752D01*
X0003100Y0182350D02*
X0008496Y0182350D01*
X0007897Y0182949D02*
X0003100Y0182949D01*
X0003100Y0183547D02*
X0007299Y0183547D01*
X0006988Y0184146D02*
X0003100Y0184146D01*
X0003100Y0184744D02*
X0006740Y0184744D01*
X0006492Y0185343D02*
X0003100Y0185343D01*
X0003100Y0185941D02*
X0006400Y0185941D01*
X0006400Y0186540D02*
X0003100Y0186540D01*
X0003100Y0187139D02*
X0006400Y0187139D01*
X0006443Y0187737D02*
X0003100Y0187737D01*
X0003100Y0188336D02*
X0006690Y0188336D01*
X0006938Y0188934D02*
X0003100Y0188934D01*
X0003100Y0189533D02*
X0007186Y0189533D01*
X0007777Y0190131D02*
X0003100Y0190131D01*
X0003112Y0190730D02*
X0008376Y0190730D01*
X0009426Y0191328D02*
X0003159Y0191328D01*
X0003293Y0191927D02*
X0196757Y0191927D01*
X0196563Y0192525D02*
X0003488Y0192525D01*
X0003682Y0193124D02*
X0196368Y0193124D01*
X0196073Y0193722D02*
X0003978Y0193722D01*
X0004413Y0194321D02*
X0195638Y0194321D01*
X0195203Y0194919D02*
X0004847Y0194919D01*
X0005564Y0195518D02*
X0194486Y0195518D01*
X0193662Y0196116D02*
X0006388Y0196116D01*
X0007993Y0196715D02*
X0192057Y0196715D01*
X0189734Y0187737D02*
X0196950Y0187737D01*
X0196950Y0187139D02*
X0190487Y0187139D01*
X0191085Y0186540D02*
X0196950Y0186540D01*
X0196950Y0185941D02*
X0191684Y0185941D01*
X0192116Y0185343D02*
X0196950Y0185343D01*
X0196950Y0184744D02*
X0192364Y0184744D01*
X0192612Y0184146D02*
X0196950Y0184146D01*
X0196950Y0183547D02*
X0192859Y0183547D01*
X0193080Y0182949D02*
X0196950Y0182949D01*
X0196950Y0182350D02*
X0193080Y0182350D01*
X0193080Y0181752D02*
X0196950Y0181752D01*
X0196950Y0181153D02*
X0193080Y0181153D01*
X0193080Y0180555D02*
X0196950Y0180555D01*
X0196950Y0179956D02*
X0192985Y0179956D01*
X0192737Y0179358D02*
X0196950Y0179358D01*
X0196950Y0178759D02*
X0192489Y0178759D01*
X0192242Y0178161D02*
X0196950Y0178161D01*
X0196950Y0177562D02*
X0191988Y0177562D01*
X0191389Y0176964D02*
X0196950Y0176964D01*
X0196950Y0176365D02*
X0190791Y0176365D01*
X0190192Y0175767D02*
X0196950Y0175767D01*
X0196950Y0175168D02*
X0189022Y0175168D01*
X0187578Y0174570D02*
X0196950Y0174570D01*
X0196950Y0173971D02*
X0163163Y0173971D01*
X0163771Y0173373D02*
X0196950Y0173373D01*
X0196950Y0172774D02*
X0164132Y0172774D01*
X0164380Y0172176D02*
X0196950Y0172176D01*
X0196950Y0171577D02*
X0164389Y0171577D01*
X0164361Y0170979D02*
X0196950Y0170979D01*
X0184363Y0174570D02*
X0158837Y0174570D01*
X0158094Y0172176D02*
X0134380Y0172176D01*
X0134389Y0171577D02*
X0157496Y0171577D01*
X0156897Y0170979D02*
X0134361Y0170979D01*
X0134113Y0170380D02*
X0156299Y0170380D01*
X0155700Y0169782D02*
X0133726Y0169782D01*
X0133053Y0169183D02*
X0155102Y0169183D01*
X0154503Y0168585D02*
X0120068Y0168585D01*
X0120068Y0169183D02*
X0130147Y0169183D01*
X0129474Y0169782D02*
X0120068Y0169782D01*
X0120068Y0170380D02*
X0129086Y0170380D01*
X0128839Y0170979D02*
X0120068Y0170979D01*
X0120068Y0171577D02*
X0128653Y0171577D01*
X0128054Y0172176D02*
X0120068Y0172176D01*
X0120027Y0172774D02*
X0127456Y0172774D01*
X0126857Y0173373D02*
X0119429Y0173373D01*
X0118700Y0173971D02*
X0126259Y0173971D01*
X0125660Y0174570D02*
X0118700Y0174570D01*
X0119026Y0175168D02*
X0125062Y0175168D01*
X0124463Y0175767D02*
X0119274Y0175767D01*
X0119389Y0176365D02*
X0123865Y0176365D01*
X0123266Y0176964D02*
X0119389Y0176964D01*
X0119220Y0177562D02*
X0122668Y0177562D01*
X0122069Y0178161D02*
X0118972Y0178161D01*
X0118385Y0178759D02*
X0121471Y0178759D01*
X0119898Y0179358D02*
X0117230Y0179358D01*
X0122741Y0184146D02*
X0130237Y0184146D01*
X0120068Y0167986D02*
X0153904Y0167986D01*
X0153306Y0167388D02*
X0120068Y0167388D01*
X0129842Y0157811D02*
X0105144Y0157811D01*
X0106446Y0158410D02*
X0130440Y0158410D01*
X0131039Y0159008D02*
X0107124Y0159008D01*
X0107559Y0159607D02*
X0131637Y0159607D01*
X0129500Y0157213D02*
X0093700Y0157213D01*
X0093700Y0157811D02*
X0098056Y0157811D01*
X0096754Y0158410D02*
X0093700Y0158410D01*
X0093700Y0159008D02*
X0096076Y0159008D01*
X0095641Y0159607D02*
X0093700Y0159607D01*
X0094041Y0160205D02*
X0095356Y0160205D01*
X0093700Y0156614D02*
X0129500Y0156614D01*
X0129500Y0156016D02*
X0093700Y0156016D01*
X0093700Y0155417D02*
X0097502Y0155417D01*
X0098184Y0155700D02*
X0096678Y0155076D01*
X0095524Y0153922D01*
X0094900Y0152416D01*
X0094900Y0150784D01*
X0095524Y0149278D01*
X0096678Y0148124D01*
X0098184Y0147500D01*
X0105016Y0147500D01*
X0106522Y0148124D01*
X0106814Y0148416D01*
X0118811Y0136419D01*
X0118811Y0136045D01*
X0119236Y0135020D01*
X0120020Y0134236D01*
X0121045Y0133811D01*
X0122155Y0133811D01*
X0123180Y0134236D01*
X0123964Y0135020D01*
X0124389Y0136045D01*
X0124389Y0137155D01*
X0123964Y0138180D01*
X0123180Y0138964D01*
X0122155Y0139389D01*
X0121781Y0139389D01*
X0108700Y0152470D01*
X0107979Y0153191D01*
X0107676Y0153922D01*
X0106522Y0155076D01*
X0105016Y0155700D01*
X0098184Y0155700D01*
X0096421Y0154819D02*
X0093700Y0154819D01*
X0093700Y0154220D02*
X0095822Y0154220D01*
X0095400Y0153622D02*
X0093700Y0153622D01*
X0093700Y0153023D02*
X0095152Y0153023D01*
X0094904Y0152425D02*
X0093700Y0152425D01*
X0093700Y0151826D02*
X0094900Y0151826D01*
X0094900Y0151228D02*
X0093700Y0151228D01*
X0093700Y0150629D02*
X0094964Y0150629D01*
X0095212Y0150031D02*
X0093700Y0150031D01*
X0093700Y0149432D02*
X0095460Y0149432D01*
X0095968Y0148834D02*
X0093700Y0148834D01*
X0093700Y0148235D02*
X0096566Y0148235D01*
X0097854Y0147637D02*
X0093700Y0147637D01*
X0093700Y0147038D02*
X0108192Y0147038D01*
X0108790Y0146440D02*
X0093700Y0146440D01*
X0093700Y0145841D02*
X0109389Y0145841D01*
X0109987Y0145243D02*
X0106119Y0145243D01*
X0106954Y0144644D02*
X0110586Y0144644D01*
X0111184Y0144046D02*
X0107553Y0144046D01*
X0107873Y0143447D02*
X0111783Y0143447D01*
X0112381Y0142849D02*
X0108321Y0142849D01*
X0108920Y0142250D02*
X0112980Y0142250D01*
X0113578Y0141652D02*
X0109518Y0141652D01*
X0110117Y0141053D02*
X0114177Y0141053D01*
X0114776Y0140455D02*
X0110715Y0140455D01*
X0111314Y0139856D02*
X0115374Y0139856D01*
X0115973Y0139258D02*
X0111912Y0139258D01*
X0112511Y0138659D02*
X0116571Y0138659D01*
X0117170Y0138061D02*
X0113109Y0138061D01*
X0113708Y0137462D02*
X0117768Y0137462D01*
X0118367Y0136864D02*
X0114306Y0136864D01*
X0114905Y0136265D02*
X0118811Y0136265D01*
X0118968Y0135667D02*
X0115503Y0135667D01*
X0116102Y0135068D02*
X0119216Y0135068D01*
X0119786Y0134470D02*
X0116700Y0134470D01*
X0117299Y0133871D02*
X0120900Y0133871D01*
X0122300Y0133871D02*
X0129500Y0133871D01*
X0129500Y0133272D02*
X0117897Y0133272D01*
X0118496Y0132674D02*
X0129500Y0132674D01*
X0129500Y0132075D02*
X0119094Y0132075D01*
X0119693Y0131477D02*
X0129500Y0131477D01*
X0129500Y0130878D02*
X0120291Y0130878D01*
X0120890Y0130280D02*
X0129500Y0130280D01*
X0129500Y0129681D02*
X0121488Y0129681D01*
X0122894Y0129083D02*
X0129500Y0129083D01*
X0129500Y0128484D02*
X0123660Y0128484D01*
X0124086Y0127886D02*
X0129500Y0127886D01*
X0129500Y0127287D02*
X0124334Y0127287D01*
X0124389Y0126689D02*
X0129500Y0126689D01*
X0129500Y0126090D02*
X0124389Y0126090D01*
X0124160Y0125492D02*
X0129500Y0125492D01*
X0129500Y0124893D02*
X0123838Y0124893D01*
X0123239Y0124295D02*
X0129500Y0124295D01*
X0138700Y0124295D02*
X0152200Y0124295D01*
X0152200Y0124025D02*
X0149450Y0124025D01*
X0149450Y0121389D01*
X0148444Y0121389D01*
X0148180Y0121653D01*
X0147155Y0122078D01*
X0146045Y0122078D01*
X0145020Y0121653D01*
X0144236Y0120869D01*
X0143811Y0119844D01*
X0143811Y0118734D01*
X0144236Y0117709D01*
X0145020Y0116925D01*
X0146045Y0116500D01*
X0147155Y0116500D01*
X0148180Y0116925D01*
X0148444Y0117189D01*
X0156388Y0117189D01*
X0157846Y0115730D01*
X0157846Y0115068D01*
X0157160Y0115068D01*
X0156459Y0114367D01*
X0156217Y0114609D01*
X0155921Y0114780D01*
X0155590Y0114868D01*
X0153554Y0114868D01*
X0153554Y0111900D01*
X0152954Y0111900D01*
X0152954Y0114868D01*
X0150917Y0114868D01*
X0150586Y0114780D01*
X0150290Y0114609D01*
X0150048Y0114367D01*
X0149877Y0114070D01*
X0149788Y0113740D01*
X0149788Y0111900D01*
X0152953Y0111900D01*
X0152953Y0111300D01*
X0149788Y0111300D01*
X0149788Y0109460D01*
X0149877Y0109130D01*
X0150048Y0108833D01*
X0150290Y0108591D01*
X0150586Y0108420D01*
X0150917Y0108331D01*
X0152954Y0108331D01*
X0152954Y0111300D01*
X0153554Y0111300D01*
X0153554Y0108331D01*
X0155590Y0108331D01*
X0155921Y0108420D01*
X0156217Y0108591D01*
X0156459Y0108833D01*
X0157160Y0108131D01*
X0162733Y0108131D01*
X0163612Y0109010D01*
X0163612Y0114190D01*
X0162733Y0115068D01*
X0162046Y0115068D01*
X0162046Y0119350D01*
X0163971Y0119350D01*
X0164850Y0120229D01*
X0164850Y0128421D01*
X0163971Y0129300D01*
X0159229Y0129300D01*
X0158350Y0128421D01*
X0158350Y0124045D01*
X0157846Y0123541D01*
X0157846Y0121389D01*
X0155550Y0121389D01*
X0155550Y0124025D01*
X0152800Y0124025D01*
X0152800Y0124625D01*
X0155550Y0124625D01*
X0155550Y0127971D01*
X0155461Y0128302D01*
X0155290Y0128598D01*
X0155048Y0128840D01*
X0154752Y0129011D01*
X0154421Y0129100D01*
X0152800Y0129100D01*
X0152800Y0124625D01*
X0152200Y0124625D01*
X0152200Y0129100D01*
X0150579Y0129100D01*
X0150248Y0129011D01*
X0149952Y0128840D01*
X0149710Y0128598D01*
X0149539Y0128302D01*
X0149450Y0127971D01*
X0149450Y0124625D01*
X0152200Y0124625D01*
X0152200Y0124025D01*
X0152800Y0124295D02*
X0158350Y0124295D01*
X0158350Y0124893D02*
X0155550Y0124893D01*
X0155550Y0125492D02*
X0158350Y0125492D01*
X0158350Y0126090D02*
X0155550Y0126090D01*
X0155550Y0126689D02*
X0158350Y0126689D01*
X0158350Y0127287D02*
X0155550Y0127287D01*
X0155550Y0127886D02*
X0158350Y0127886D01*
X0158413Y0128484D02*
X0155356Y0128484D01*
X0154485Y0129083D02*
X0159012Y0129083D01*
X0164188Y0129083D02*
X0168112Y0129083D01*
X0167513Y0128484D02*
X0164787Y0128484D01*
X0164850Y0127886D02*
X0167450Y0127886D01*
X0167450Y0127287D02*
X0164850Y0127287D01*
X0164850Y0126689D02*
X0167450Y0126689D01*
X0167450Y0126090D02*
X0164850Y0126090D01*
X0164850Y0125492D02*
X0167450Y0125492D01*
X0167450Y0124893D02*
X0164850Y0124893D01*
X0164850Y0124295D02*
X0167450Y0124295D01*
X0167450Y0123696D02*
X0164850Y0123696D01*
X0164850Y0123098D02*
X0167450Y0123098D01*
X0167450Y0122499D02*
X0164850Y0122499D01*
X0164850Y0121901D02*
X0167450Y0121901D01*
X0167450Y0121302D02*
X0164850Y0121302D01*
X0164850Y0120704D02*
X0167450Y0120704D01*
X0167573Y0120105D02*
X0164727Y0120105D01*
X0164128Y0119507D02*
X0168172Y0119507D01*
X0168900Y0118908D02*
X0162046Y0118908D01*
X0162046Y0118310D02*
X0168900Y0118310D01*
X0168900Y0117711D02*
X0162046Y0117711D01*
X0162046Y0117113D02*
X0168900Y0117113D01*
X0168900Y0116514D02*
X0162046Y0116514D01*
X0162046Y0115916D02*
X0168900Y0115916D01*
X0168900Y0115317D02*
X0162046Y0115317D01*
X0163083Y0114719D02*
X0168900Y0114719D01*
X0168900Y0114120D02*
X0163612Y0114120D01*
X0163612Y0113522D02*
X0168900Y0113522D01*
X0168900Y0112923D02*
X0163612Y0112923D01*
X0163612Y0112325D02*
X0168900Y0112325D01*
X0168900Y0111726D02*
X0163612Y0111726D01*
X0163612Y0111128D02*
X0168900Y0111128D01*
X0168900Y0110529D02*
X0163612Y0110529D01*
X0163612Y0109931D02*
X0168900Y0109931D01*
X0168900Y0109332D02*
X0163612Y0109332D01*
X0163335Y0108734D02*
X0168900Y0108734D01*
X0168900Y0108135D02*
X0162737Y0108135D01*
X0163258Y0104544D02*
X0168900Y0104544D01*
X0168900Y0105142D02*
X0139015Y0105142D01*
X0139263Y0105741D02*
X0168900Y0105741D01*
X0168900Y0106339D02*
X0139389Y0106339D01*
X0139389Y0106938D02*
X0168900Y0106938D01*
X0168900Y0107537D02*
X0139231Y0107537D01*
X0138983Y0108135D02*
X0157156Y0108135D01*
X0156558Y0108734D02*
X0156359Y0108734D01*
X0153554Y0108734D02*
X0152954Y0108734D01*
X0152954Y0109332D02*
X0153554Y0109332D01*
X0153554Y0109931D02*
X0152954Y0109931D01*
X0152954Y0110529D02*
X0153554Y0110529D01*
X0153554Y0111128D02*
X0152954Y0111128D01*
X0152953Y0111726D02*
X0139389Y0111726D01*
X0139389Y0111128D02*
X0149788Y0111128D01*
X0149788Y0110529D02*
X0139175Y0110529D01*
X0138875Y0109931D02*
X0149788Y0109931D01*
X0149823Y0109332D02*
X0138276Y0109332D01*
X0138411Y0108734D02*
X0150148Y0108734D01*
X0149788Y0112325D02*
X0139319Y0112325D01*
X0139071Y0112923D02*
X0149788Y0112923D01*
X0149788Y0113522D02*
X0138700Y0113522D01*
X0138700Y0114120D02*
X0149906Y0114120D01*
X0150480Y0114719D02*
X0138700Y0114719D01*
X0138700Y0115317D02*
X0157846Y0115317D01*
X0157661Y0115916D02*
X0138700Y0115916D01*
X0138700Y0116514D02*
X0146011Y0116514D01*
X0147189Y0116514D02*
X0157062Y0116514D01*
X0156464Y0117113D02*
X0148368Y0117113D01*
X0144832Y0117113D02*
X0138700Y0117113D01*
X0138700Y0117711D02*
X0144235Y0117711D01*
X0143987Y0118310D02*
X0138700Y0118310D01*
X0138700Y0118908D02*
X0143811Y0118908D01*
X0143811Y0119507D02*
X0138700Y0119507D01*
X0138700Y0120105D02*
X0143919Y0120105D01*
X0144167Y0120704D02*
X0138700Y0120704D01*
X0138700Y0121302D02*
X0144669Y0121302D01*
X0145618Y0121901D02*
X0138700Y0121901D01*
X0138700Y0122499D02*
X0149450Y0122499D01*
X0149450Y0121901D02*
X0147582Y0121901D01*
X0149450Y0123098D02*
X0138700Y0123098D01*
X0138700Y0123696D02*
X0149450Y0123696D01*
X0149450Y0124893D02*
X0138700Y0124893D01*
X0138700Y0125492D02*
X0149450Y0125492D01*
X0149450Y0126090D02*
X0138700Y0126090D01*
X0138700Y0126689D02*
X0149450Y0126689D01*
X0149450Y0127287D02*
X0138700Y0127287D01*
X0138700Y0127886D02*
X0149450Y0127886D01*
X0149644Y0128484D02*
X0138700Y0128484D01*
X0138700Y0129083D02*
X0150515Y0129083D01*
X0152200Y0129083D02*
X0152800Y0129083D01*
X0152800Y0128484D02*
X0152200Y0128484D01*
X0152200Y0127886D02*
X0152800Y0127886D01*
X0152800Y0127287D02*
X0152200Y0127287D01*
X0152200Y0126689D02*
X0152800Y0126689D01*
X0152800Y0126090D02*
X0152200Y0126090D01*
X0152200Y0125492D02*
X0152800Y0125492D01*
X0152800Y0124893D02*
X0152200Y0124893D01*
X0155550Y0123696D02*
X0158001Y0123696D01*
X0157846Y0123098D02*
X0155550Y0123098D01*
X0155550Y0122499D02*
X0157846Y0122499D01*
X0157846Y0121901D02*
X0155550Y0121901D01*
X0156027Y0114719D02*
X0156810Y0114719D01*
X0153554Y0114719D02*
X0152954Y0114719D01*
X0152954Y0114120D02*
X0153554Y0114120D01*
X0153554Y0113522D02*
X0152954Y0113522D01*
X0152954Y0112923D02*
X0153554Y0112923D01*
X0153554Y0112325D02*
X0152954Y0112325D01*
X0152954Y0104544D02*
X0153554Y0104544D01*
X0153554Y0103945D02*
X0152954Y0103945D01*
X0152954Y0103347D02*
X0153554Y0103347D01*
X0153554Y0102748D02*
X0152954Y0102748D01*
X0152954Y0102150D02*
X0153554Y0102150D01*
X0152953Y0101551D02*
X0134521Y0101551D01*
X0133923Y0100953D02*
X0149788Y0100953D01*
X0149788Y0100354D02*
X0133700Y0100354D01*
X0133700Y0099756D02*
X0149788Y0099756D01*
X0149869Y0099157D02*
X0142714Y0099157D01*
X0143585Y0098559D02*
X0150346Y0098559D01*
X0152954Y0098559D02*
X0153554Y0098559D01*
X0153554Y0099157D02*
X0152954Y0099157D01*
X0152954Y0099756D02*
X0153554Y0099756D01*
X0153554Y0100354D02*
X0152954Y0100354D01*
X0152954Y0100953D02*
X0153554Y0100953D01*
X0156161Y0098559D02*
X0156732Y0098559D01*
X0156635Y0104544D02*
X0156282Y0104544D01*
X0150225Y0104544D02*
X0138488Y0104544D01*
X0137479Y0103945D02*
X0149843Y0103945D01*
X0149788Y0103347D02*
X0136317Y0103347D01*
X0135718Y0102748D02*
X0149788Y0102748D01*
X0149788Y0102150D02*
X0135120Y0102150D01*
X0133700Y0099157D02*
X0140486Y0099157D01*
X0139615Y0098559D02*
X0133700Y0098559D01*
X0133700Y0097960D02*
X0139145Y0097960D01*
X0138897Y0097362D02*
X0133700Y0097362D01*
X0133700Y0096763D02*
X0138793Y0096763D01*
X0138195Y0096165D02*
X0133700Y0096165D01*
X0133700Y0095566D02*
X0137596Y0095566D01*
X0136998Y0094968D02*
X0133700Y0094968D01*
X0133700Y0094369D02*
X0136399Y0094369D01*
X0135801Y0093771D02*
X0133700Y0093771D01*
X0133700Y0093172D02*
X0135202Y0093172D01*
X0134604Y0092574D02*
X0133700Y0092574D01*
X0133700Y0091975D02*
X0134500Y0091975D01*
X0134500Y0091377D02*
X0133700Y0091377D01*
X0133700Y0090778D02*
X0134500Y0090778D01*
X0134500Y0090180D02*
X0133700Y0090180D01*
X0133700Y0089581D02*
X0134500Y0089581D01*
X0134500Y0088983D02*
X0133700Y0088983D01*
X0133700Y0088384D02*
X0134500Y0088384D01*
X0134500Y0087786D02*
X0133700Y0087786D01*
X0133700Y0087187D02*
X0134500Y0087187D01*
X0134500Y0086589D02*
X0133700Y0086589D01*
X0133700Y0085990D02*
X0134500Y0085990D01*
X0134500Y0085392D02*
X0133700Y0085392D01*
X0133700Y0084793D02*
X0134500Y0084793D01*
X0134500Y0084195D02*
X0133700Y0084195D01*
X0133700Y0083596D02*
X0134500Y0083596D01*
X0134500Y0082998D02*
X0133700Y0082998D01*
X0133700Y0082399D02*
X0134500Y0082399D01*
X0134500Y0081801D02*
X0133700Y0081801D01*
X0129500Y0087786D02*
X0105705Y0087786D01*
X0106782Y0088384D02*
X0110214Y0088384D01*
X0109616Y0088983D02*
X0107381Y0088983D01*
X0107739Y0093771D02*
X0109588Y0093771D01*
X0109768Y0094369D02*
X0107229Y0094369D01*
X0106630Y0094968D02*
X0110366Y0094968D01*
X0116141Y0094968D02*
X0129500Y0094968D01*
X0129500Y0095566D02*
X0105338Y0095566D01*
X0101900Y0085392D02*
X0101300Y0085392D01*
X0101300Y0084793D02*
X0101900Y0084793D01*
X0101900Y0084195D02*
X0101300Y0084195D01*
X0101300Y0083596D02*
X0101900Y0083596D01*
X0101900Y0082998D02*
X0101300Y0082998D01*
X0101300Y0081202D02*
X0101900Y0081202D01*
X0101900Y0080603D02*
X0101300Y0080603D01*
X0101300Y0080005D02*
X0101900Y0080005D01*
X0101900Y0079406D02*
X0101300Y0079406D01*
X0101300Y0078808D02*
X0101900Y0078808D01*
X0101900Y0078209D02*
X0101300Y0078209D01*
X0089500Y0087786D02*
X0075705Y0087786D01*
X0076782Y0088384D02*
X0089500Y0088384D01*
X0089500Y0088983D02*
X0077381Y0088983D01*
X0077802Y0089581D02*
X0089500Y0089581D01*
X0089500Y0090180D02*
X0078049Y0090180D01*
X0078297Y0090778D02*
X0089500Y0090778D01*
X0089500Y0091377D02*
X0078300Y0091377D01*
X0078300Y0091975D02*
X0089500Y0091975D01*
X0089500Y0092574D02*
X0078234Y0092574D01*
X0077987Y0093172D02*
X0089500Y0093172D01*
X0089500Y0093771D02*
X0077739Y0093771D01*
X0077229Y0094369D02*
X0089500Y0094369D01*
X0089500Y0094968D02*
X0076630Y0094968D01*
X0075338Y0095566D02*
X0089500Y0095566D01*
X0071900Y0097960D02*
X0071300Y0097960D01*
X0071300Y0098559D02*
X0071900Y0098559D01*
X0071900Y0099157D02*
X0071300Y0099157D01*
X0071300Y0099756D02*
X0071900Y0099756D01*
X0071900Y0100354D02*
X0071300Y0100354D01*
X0071300Y0102150D02*
X0071900Y0102150D01*
X0071900Y0102748D02*
X0071300Y0102748D01*
X0071300Y0103347D02*
X0071900Y0103347D01*
X0071900Y0103945D02*
X0071300Y0103945D01*
X0071300Y0104544D02*
X0071900Y0104544D01*
X0071900Y0105142D02*
X0071300Y0105142D01*
X0076369Y0138061D02*
X0089500Y0138061D01*
X0089500Y0138659D02*
X0077057Y0138659D01*
X0077656Y0139258D02*
X0089500Y0139258D01*
X0089500Y0139856D02*
X0077915Y0139856D01*
X0078163Y0140455D02*
X0089500Y0140455D01*
X0089500Y0141053D02*
X0078300Y0141053D01*
X0078300Y0141652D02*
X0089500Y0141652D01*
X0089500Y0142250D02*
X0078300Y0142250D01*
X0078121Y0142849D02*
X0089500Y0142849D01*
X0089500Y0143447D02*
X0077873Y0143447D01*
X0077553Y0144046D02*
X0089500Y0144046D01*
X0089500Y0144644D02*
X0076954Y0144644D01*
X0093700Y0144644D02*
X0096246Y0144644D01*
X0095647Y0144046D02*
X0093700Y0144046D01*
X0093700Y0143447D02*
X0095327Y0143447D01*
X0095079Y0142849D02*
X0093700Y0142849D01*
X0093700Y0142250D02*
X0094900Y0142250D01*
X0094900Y0141652D02*
X0093700Y0141652D01*
X0093700Y0141053D02*
X0094900Y0141053D01*
X0095037Y0140455D02*
X0093700Y0140455D01*
X0093700Y0139856D02*
X0095285Y0139856D01*
X0095544Y0139258D02*
X0093700Y0139258D01*
X0093700Y0138659D02*
X0096143Y0138659D01*
X0096831Y0138061D02*
X0093700Y0138061D01*
X0093700Y0145243D02*
X0097081Y0145243D01*
X0105346Y0147637D02*
X0107593Y0147637D01*
X0106995Y0148235D02*
X0106634Y0148235D01*
X0109942Y0151228D02*
X0129500Y0151228D01*
X0129500Y0151826D02*
X0109343Y0151826D01*
X0108745Y0152425D02*
X0129500Y0152425D01*
X0129500Y0153023D02*
X0108146Y0153023D01*
X0107800Y0153622D02*
X0129500Y0153622D01*
X0129500Y0154220D02*
X0107378Y0154220D01*
X0106779Y0154819D02*
X0129500Y0154819D01*
X0129500Y0155417D02*
X0105698Y0155417D01*
X0101900Y0157811D02*
X0101300Y0157811D01*
X0101300Y0158410D02*
X0101900Y0158410D01*
X0101900Y0159008D02*
X0101300Y0159008D01*
X0101300Y0159607D02*
X0101900Y0159607D01*
X0101900Y0160205D02*
X0101300Y0160205D01*
X0101300Y0160804D02*
X0101900Y0160804D01*
X0101900Y0162600D02*
X0101300Y0162600D01*
X0101300Y0163198D02*
X0101900Y0163198D01*
X0101900Y0163797D02*
X0101300Y0163797D01*
X0101300Y0164395D02*
X0101900Y0164395D01*
X0101900Y0164994D02*
X0101300Y0164994D01*
X0110541Y0150629D02*
X0129500Y0150629D01*
X0129500Y0150031D02*
X0111139Y0150031D01*
X0111738Y0149432D02*
X0129500Y0149432D01*
X0129500Y0148834D02*
X0112336Y0148834D01*
X0112935Y0148235D02*
X0129500Y0148235D01*
X0129500Y0147637D02*
X0113533Y0147637D01*
X0114132Y0147038D02*
X0129500Y0147038D01*
X0129500Y0146440D02*
X0114730Y0146440D01*
X0115329Y0145841D02*
X0129500Y0145841D01*
X0129500Y0145243D02*
X0115927Y0145243D01*
X0116526Y0144644D02*
X0129500Y0144644D01*
X0129500Y0144046D02*
X0117124Y0144046D01*
X0117723Y0143447D02*
X0129500Y0143447D01*
X0129500Y0142849D02*
X0118321Y0142849D01*
X0118920Y0142250D02*
X0129500Y0142250D01*
X0129500Y0141652D02*
X0119518Y0141652D01*
X0120117Y0141053D02*
X0129500Y0141053D01*
X0129500Y0140455D02*
X0120715Y0140455D01*
X0121314Y0139856D02*
X0129500Y0139856D01*
X0129500Y0139258D02*
X0122472Y0139258D01*
X0123485Y0138659D02*
X0129500Y0138659D01*
X0129500Y0138061D02*
X0124014Y0138061D01*
X0124262Y0137462D02*
X0129500Y0137462D01*
X0129500Y0136864D02*
X0124389Y0136864D01*
X0124389Y0136265D02*
X0129500Y0136265D01*
X0129500Y0135667D02*
X0124232Y0135667D01*
X0123984Y0135068D02*
X0129500Y0135068D01*
X0129500Y0134470D02*
X0123414Y0134470D01*
X0138700Y0134470D02*
X0175199Y0134470D01*
X0175199Y0135068D02*
X0138700Y0135068D01*
X0138700Y0135667D02*
X0175199Y0135667D01*
X0175199Y0136265D02*
X0138700Y0136265D01*
X0138700Y0136864D02*
X0175199Y0136864D01*
X0175199Y0137462D02*
X0138700Y0137462D01*
X0138700Y0138061D02*
X0175199Y0138061D01*
X0175199Y0138659D02*
X0138700Y0138659D01*
X0138700Y0139258D02*
X0175199Y0139258D01*
X0175199Y0139856D02*
X0138700Y0139856D01*
X0138700Y0140455D02*
X0175199Y0140455D01*
X0175199Y0141053D02*
X0138700Y0141053D01*
X0138700Y0141652D02*
X0175199Y0141652D01*
X0175199Y0142250D02*
X0138700Y0142250D01*
X0138700Y0142849D02*
X0175199Y0142849D01*
X0175199Y0143447D02*
X0138700Y0143447D01*
X0138700Y0144046D02*
X0154633Y0144046D01*
X0154779Y0143900D02*
X0168421Y0143900D01*
X0169300Y0144779D01*
X0169300Y0152971D01*
X0168421Y0153850D01*
X0154779Y0153850D01*
X0153900Y0152971D01*
X0153900Y0144779D01*
X0154779Y0143900D01*
X0154034Y0144644D02*
X0138700Y0144644D01*
X0138700Y0145243D02*
X0153900Y0145243D01*
X0153900Y0145841D02*
X0138700Y0145841D01*
X0138700Y0146440D02*
X0153900Y0146440D01*
X0153900Y0147038D02*
X0138700Y0147038D01*
X0138700Y0147637D02*
X0153900Y0147637D01*
X0153900Y0148235D02*
X0138700Y0148235D01*
X0138700Y0148834D02*
X0153900Y0148834D01*
X0153900Y0149432D02*
X0138700Y0149432D01*
X0138700Y0150031D02*
X0153900Y0150031D01*
X0153900Y0150629D02*
X0138700Y0150629D01*
X0139198Y0151228D02*
X0153900Y0151228D01*
X0153900Y0151826D02*
X0139796Y0151826D01*
X0140395Y0152425D02*
X0153900Y0152425D01*
X0153952Y0153023D02*
X0140993Y0153023D01*
X0141592Y0153622D02*
X0154551Y0153622D01*
X0153764Y0161403D02*
X0165001Y0161403D01*
X0165001Y0160804D02*
X0165601Y0160804D01*
X0165601Y0160205D02*
X0165001Y0160205D01*
X0165001Y0159607D02*
X0165601Y0159607D01*
X0165601Y0159008D02*
X0165001Y0159008D01*
X0165001Y0158410D02*
X0165601Y0158410D01*
X0165601Y0157811D02*
X0165001Y0157811D01*
X0164132Y0157811D02*
X0144117Y0157811D01*
X0144365Y0157213D02*
X0175199Y0157213D01*
X0175199Y0157811D02*
X0173292Y0157811D01*
X0174251Y0158410D02*
X0175199Y0158410D01*
X0175199Y0156614D02*
X0144389Y0156614D01*
X0144377Y0156016D02*
X0175199Y0156016D01*
X0175199Y0155417D02*
X0144129Y0155417D01*
X0143763Y0154819D02*
X0175199Y0154819D01*
X0175199Y0154220D02*
X0143143Y0154220D01*
X0143734Y0158410D02*
X0162983Y0158410D01*
X0162334Y0159008D02*
X0143073Y0159008D01*
X0166470Y0157811D02*
X0169908Y0157811D01*
X0168949Y0158410D02*
X0167619Y0158410D01*
X0168268Y0159008D02*
X0168350Y0159008D01*
X0168649Y0153622D02*
X0175199Y0153622D01*
X0175199Y0153023D02*
X0169248Y0153023D01*
X0169300Y0152425D02*
X0175199Y0152425D01*
X0175199Y0151826D02*
X0169300Y0151826D01*
X0169300Y0151228D02*
X0175199Y0151228D01*
X0175199Y0150629D02*
X0169300Y0150629D01*
X0169300Y0150031D02*
X0175199Y0150031D01*
X0175199Y0149432D02*
X0169300Y0149432D01*
X0169300Y0148834D02*
X0175199Y0148834D01*
X0175199Y0148235D02*
X0169300Y0148235D01*
X0169300Y0147637D02*
X0175199Y0147637D01*
X0175199Y0147038D02*
X0169300Y0147038D01*
X0169300Y0146440D02*
X0175199Y0146440D01*
X0175199Y0145841D02*
X0169300Y0145841D01*
X0169300Y0145243D02*
X0175199Y0145243D01*
X0175199Y0144644D02*
X0169166Y0144644D01*
X0168567Y0144046D02*
X0175199Y0144046D01*
X0175199Y0133871D02*
X0138700Y0133871D01*
X0138700Y0133272D02*
X0175199Y0133272D01*
X0175199Y0132674D02*
X0138700Y0132674D01*
X0138700Y0132075D02*
X0175199Y0132075D01*
X0175199Y0131477D02*
X0138700Y0131477D01*
X0138700Y0130878D02*
X0175199Y0130878D01*
X0175199Y0130280D02*
X0138700Y0130280D01*
X0138700Y0129681D02*
X0175199Y0129681D01*
X0175199Y0129083D02*
X0173288Y0129083D01*
X0173887Y0128484D02*
X0175199Y0128484D01*
X0175199Y0127886D02*
X0173950Y0127886D01*
X0173950Y0127287D02*
X0175199Y0127287D01*
X0175199Y0126689D02*
X0173950Y0126689D01*
X0173950Y0126090D02*
X0175199Y0126090D01*
X0175199Y0125492D02*
X0173950Y0125492D01*
X0173950Y0124893D02*
X0175199Y0124893D01*
X0175199Y0124295D02*
X0174162Y0124295D01*
X0174300Y0123696D02*
X0175199Y0123696D01*
X0175199Y0123098D02*
X0174300Y0123098D01*
X0174300Y0122499D02*
X0175199Y0122499D01*
X0175199Y0121901D02*
X0174300Y0121901D01*
X0174300Y0121302D02*
X0175199Y0121302D01*
X0175199Y0120704D02*
X0174300Y0120704D01*
X0174300Y0120105D02*
X0175199Y0120105D01*
X0175199Y0119507D02*
X0174300Y0119507D01*
X0174300Y0118908D02*
X0175199Y0118908D01*
X0175199Y0118310D02*
X0174300Y0118310D01*
X0174300Y0117711D02*
X0175199Y0117711D01*
X0175199Y0117113D02*
X0174300Y0117113D01*
X0174300Y0116514D02*
X0175199Y0116514D01*
X0175199Y0115916D02*
X0174300Y0115916D01*
X0174300Y0115317D02*
X0175199Y0115317D01*
X0175199Y0114719D02*
X0174300Y0114719D01*
X0174300Y0114120D02*
X0175199Y0114120D01*
X0175199Y0113522D02*
X0174300Y0113522D01*
X0174300Y0112923D02*
X0175199Y0112923D01*
X0175199Y0112325D02*
X0174300Y0112325D01*
X0174300Y0111726D02*
X0175199Y0111726D01*
X0175199Y0111128D02*
X0174300Y0111128D01*
X0174300Y0110529D02*
X0175199Y0110529D01*
X0175199Y0109931D02*
X0174300Y0109931D01*
X0174300Y0109332D02*
X0175199Y0109332D01*
X0175199Y0108734D02*
X0174300Y0108734D01*
X0174300Y0108135D02*
X0175199Y0108135D01*
X0175199Y0107537D02*
X0174300Y0107537D01*
X0174300Y0106938D02*
X0175199Y0106938D01*
X0175199Y0106339D02*
X0174300Y0106339D01*
X0174300Y0105741D02*
X0175199Y0105741D01*
X0175199Y0105142D02*
X0174300Y0105142D01*
X0174300Y0104544D02*
X0175199Y0104544D01*
X0175199Y0103945D02*
X0174300Y0103945D01*
X0174300Y0103347D02*
X0175199Y0103347D01*
X0175199Y0102748D02*
X0174300Y0102748D01*
X0174300Y0102150D02*
X0175199Y0102150D01*
X0175199Y0101551D02*
X0174300Y0101551D01*
X0174300Y0100953D02*
X0175199Y0100953D01*
X0175199Y0100354D02*
X0174300Y0100354D01*
X0174300Y0099756D02*
X0175199Y0099756D01*
X0175199Y0099157D02*
X0174300Y0099157D01*
X0174300Y0098559D02*
X0175199Y0098559D01*
X0175199Y0097960D02*
X0174300Y0097960D01*
X0174300Y0097362D02*
X0175199Y0097362D01*
X0175199Y0096763D02*
X0174300Y0096763D01*
X0174300Y0096165D02*
X0175199Y0096165D01*
X0175199Y0095566D02*
X0174300Y0095566D01*
X0174300Y0094968D02*
X0175199Y0094968D01*
X0175199Y0094369D02*
X0174300Y0094369D01*
X0174300Y0093771D02*
X0175199Y0093771D01*
X0175199Y0093172D02*
X0174300Y0093172D01*
X0174300Y0092574D02*
X0175199Y0092574D01*
X0175199Y0091975D02*
X0174300Y0091975D01*
X0174300Y0091377D02*
X0175199Y0091377D01*
X0175199Y0090778D02*
X0174300Y0090778D01*
X0174300Y0090180D02*
X0175199Y0090180D01*
X0175199Y0089581D02*
X0174300Y0089581D01*
X0174300Y0088983D02*
X0175199Y0088983D01*
X0175199Y0088384D02*
X0174300Y0088384D01*
X0174300Y0087786D02*
X0175199Y0087786D01*
X0175199Y0087187D02*
X0174300Y0087187D01*
X0174300Y0086589D02*
X0175199Y0086589D01*
X0175199Y0085990D02*
X0174300Y0085990D01*
X0174300Y0085392D02*
X0175199Y0085392D01*
X0175199Y0084793D02*
X0174300Y0084793D01*
X0174300Y0084195D02*
X0175199Y0084195D01*
X0175199Y0083596D02*
X0174300Y0083596D01*
X0174300Y0082998D02*
X0175199Y0082998D01*
X0175199Y0082399D02*
X0174300Y0082399D01*
X0174300Y0081801D02*
X0175199Y0081801D01*
X0175199Y0081202D02*
X0174300Y0081202D01*
X0174300Y0080603D02*
X0175199Y0080603D01*
X0175199Y0080005D02*
X0174300Y0080005D01*
X0174300Y0079406D02*
X0175199Y0079406D01*
X0175199Y0078808D02*
X0174300Y0078808D01*
X0174300Y0078209D02*
X0175199Y0078209D01*
X0175199Y0077611D02*
X0174300Y0077611D01*
X0174300Y0077012D02*
X0175199Y0077012D01*
X0175199Y0076414D02*
X0174300Y0076414D01*
X0174300Y0075815D02*
X0175199Y0075815D01*
X0175199Y0075217D02*
X0174300Y0075217D01*
X0174300Y0074618D02*
X0175199Y0074618D01*
X0175199Y0074020D02*
X0174300Y0074020D01*
X0174300Y0073421D02*
X0175199Y0073421D01*
X0175199Y0072823D02*
X0174300Y0072823D01*
X0174300Y0072224D02*
X0175199Y0072224D01*
X0175199Y0071626D02*
X0174300Y0071626D01*
X0174300Y0071027D02*
X0175199Y0071027D01*
X0175199Y0070429D02*
X0174300Y0070429D01*
X0174300Y0069830D02*
X0175199Y0069830D01*
X0175199Y0069232D02*
X0174300Y0069232D01*
X0174300Y0068633D02*
X0175199Y0068633D01*
X0175199Y0068035D02*
X0174300Y0068035D01*
X0174300Y0067436D02*
X0175199Y0067436D01*
X0175199Y0066838D02*
X0174300Y0066838D01*
X0174300Y0066239D02*
X0175199Y0066239D01*
X0175199Y0065641D02*
X0174300Y0065641D01*
X0174300Y0065042D02*
X0175199Y0065042D01*
X0175199Y0064444D02*
X0174300Y0064444D01*
X0174300Y0063845D02*
X0175199Y0063845D01*
X0175199Y0063247D02*
X0174300Y0063247D01*
X0174300Y0062648D02*
X0175199Y0062648D01*
X0175199Y0062050D02*
X0174300Y0062050D01*
X0174300Y0061451D02*
X0175199Y0061451D01*
X0175199Y0060853D02*
X0174300Y0060853D01*
X0174300Y0060254D02*
X0175199Y0060254D01*
X0175199Y0059656D02*
X0174300Y0059656D01*
X0174300Y0059057D02*
X0175199Y0059057D01*
X0175199Y0058459D02*
X0174300Y0058459D01*
X0174300Y0057860D02*
X0175199Y0057860D01*
X0175199Y0057262D02*
X0174300Y0057262D01*
X0174300Y0056663D02*
X0175199Y0056663D01*
X0175199Y0056065D02*
X0174300Y0056065D01*
X0174300Y0055466D02*
X0175199Y0055466D01*
X0175199Y0054868D02*
X0174300Y0054868D01*
X0174300Y0054269D02*
X0175199Y0054269D01*
X0175199Y0053670D02*
X0174300Y0053670D01*
X0174300Y0053072D02*
X0175199Y0053072D01*
X0175199Y0052473D02*
X0174300Y0052473D01*
X0174300Y0051875D02*
X0175199Y0051875D01*
X0175199Y0051276D02*
X0174300Y0051276D01*
X0174300Y0050678D02*
X0175199Y0050678D01*
X0175199Y0050079D02*
X0174300Y0050079D01*
X0174300Y0049481D02*
X0175199Y0049481D01*
X0175199Y0048882D02*
X0174300Y0048882D01*
X0174300Y0048284D02*
X0175199Y0048284D01*
X0175199Y0047685D02*
X0174300Y0047685D01*
X0174300Y0047087D02*
X0175199Y0047087D01*
X0175199Y0046488D02*
X0174300Y0046488D01*
X0174300Y0045890D02*
X0175199Y0045890D01*
X0175199Y0045291D02*
X0174300Y0045291D01*
X0174300Y0044693D02*
X0175199Y0044693D01*
X0175199Y0044094D02*
X0174300Y0044094D01*
X0174300Y0043496D02*
X0175199Y0043496D01*
X0175199Y0042897D02*
X0174300Y0042897D01*
X0174300Y0042299D02*
X0175199Y0042299D01*
X0175199Y0041700D02*
X0174300Y0041700D01*
X0174300Y0041102D02*
X0175199Y0041102D01*
X0175110Y0040503D02*
X0174300Y0040503D01*
X0174300Y0039905D02*
X0175110Y0039905D01*
X0175292Y0039306D02*
X0174378Y0039306D01*
X0174389Y0038708D02*
X0175548Y0038708D01*
X0176147Y0038109D02*
X0174363Y0038109D01*
X0174115Y0037511D02*
X0183003Y0037511D01*
X0182755Y0038109D02*
X0179652Y0038109D01*
X0180250Y0038708D02*
X0182525Y0038708D01*
X0182525Y0039306D02*
X0180506Y0039306D01*
X0180688Y0039905D02*
X0182525Y0039905D01*
X0182616Y0040503D02*
X0180688Y0040503D01*
X0180599Y0041102D02*
X0182864Y0041102D01*
X0183112Y0041700D02*
X0180599Y0041700D01*
X0180599Y0042299D02*
X0183662Y0042299D01*
X0184261Y0042897D02*
X0180599Y0042897D01*
X0180599Y0043496D02*
X0183598Y0043496D01*
X0183000Y0044094D02*
X0180599Y0044094D01*
X0180599Y0044693D02*
X0182454Y0044693D01*
X0182206Y0045291D02*
X0180599Y0045291D01*
X0180599Y0045890D02*
X0181958Y0045890D01*
X0181754Y0046488D02*
X0180599Y0046488D01*
X0180599Y0047087D02*
X0181754Y0047087D01*
X0181754Y0047685D02*
X0180599Y0047685D01*
X0180599Y0048284D02*
X0181754Y0048284D01*
X0181990Y0048882D02*
X0180599Y0048882D01*
X0180599Y0049481D02*
X0182238Y0049481D01*
X0182486Y0050079D02*
X0180599Y0050079D01*
X0180599Y0050678D02*
X0183076Y0050678D01*
X0183674Y0051276D02*
X0180599Y0051276D01*
X0168900Y0047685D02*
X0105463Y0047685D01*
X0083700Y0036314D02*
X0170136Y0036314D01*
X0173064Y0036314D02*
X0183998Y0036314D01*
X0183399Y0036912D02*
X0173730Y0036912D01*
X0182902Y0033321D02*
X0083700Y0033321D01*
X0083700Y0032723D02*
X0182654Y0032723D01*
X0182525Y0032124D02*
X0083700Y0032124D01*
X0083700Y0031526D02*
X0182525Y0031526D01*
X0182525Y0030927D02*
X0083700Y0030927D01*
X0083700Y0030329D02*
X0182716Y0030329D01*
X0182964Y0029730D02*
X0083700Y0029730D01*
X0083700Y0029132D02*
X0183306Y0029132D01*
X0183904Y0028533D02*
X0083700Y0028533D01*
X0083700Y0027934D02*
X0184801Y0027934D01*
X0184667Y0027336D02*
X0083700Y0027336D01*
X0083700Y0026737D02*
X0183849Y0026737D01*
X0183250Y0026139D02*
X0083700Y0026139D01*
X0083700Y0025540D02*
X0182941Y0025540D01*
X0182693Y0024942D02*
X0083700Y0024942D01*
X0083700Y0024343D02*
X0182525Y0024343D01*
X0182525Y0023745D02*
X0083700Y0023745D01*
X0083700Y0023146D02*
X0182525Y0023146D01*
X0182677Y0022548D02*
X0083700Y0022548D01*
X0083700Y0021949D02*
X0182925Y0021949D01*
X0183212Y0021351D02*
X0083700Y0021351D01*
X0083700Y0020752D02*
X0183811Y0020752D01*
X0184321Y0020154D02*
X0083700Y0020154D01*
X0083700Y0019555D02*
X0183449Y0019555D01*
X0182851Y0018957D02*
X0083700Y0018957D01*
X0083700Y0018358D02*
X0182392Y0018358D01*
X0182145Y0017760D02*
X0083700Y0017760D01*
X0083700Y0017161D02*
X0181897Y0017161D01*
X0181754Y0016563D02*
X0083700Y0016563D01*
X0083700Y0015964D02*
X0181754Y0015964D01*
X0181754Y0015366D02*
X0083336Y0015366D01*
X0082737Y0014767D02*
X0181804Y0014767D01*
X0182051Y0014169D02*
X0082139Y0014169D01*
X0081540Y0013570D02*
X0182299Y0013570D01*
X0182626Y0012972D02*
X0080942Y0012972D01*
X0080343Y0012373D02*
X0183225Y0012373D01*
X0183823Y0011775D02*
X0079745Y0011775D01*
X0079146Y0011176D02*
X0185224Y0011176D01*
X0183157Y0033920D02*
X0083700Y0033920D01*
X0083700Y0034518D02*
X0183755Y0034518D01*
X0184442Y0035117D02*
X0083700Y0035117D01*
X0083700Y0035715D02*
X0185027Y0035715D01*
X0168900Y0090180D02*
X0138700Y0090180D01*
X0138748Y0090778D02*
X0168900Y0090778D01*
X0168900Y0091377D02*
X0139347Y0091377D01*
X0139945Y0091975D02*
X0168900Y0091975D01*
X0168900Y0092574D02*
X0140544Y0092574D01*
X0141142Y0093172D02*
X0168900Y0093172D01*
X0168900Y0093771D02*
X0141741Y0093771D01*
X0143313Y0094369D02*
X0168900Y0094369D01*
X0168900Y0094968D02*
X0143912Y0094968D01*
X0144191Y0095566D02*
X0168900Y0095566D01*
X0168900Y0096165D02*
X0144389Y0096165D01*
X0144389Y0096763D02*
X0168900Y0096763D01*
X0168900Y0097362D02*
X0144303Y0097362D01*
X0144055Y0097960D02*
X0168900Y0097960D01*
X0168900Y0098559D02*
X0163160Y0098559D01*
X0134789Y0108734D02*
X0107132Y0108734D01*
X0106533Y0108135D02*
X0134217Y0108135D01*
X0129500Y0094369D02*
X0123150Y0094369D01*
X0123403Y0093771D02*
X0129500Y0093771D01*
X0129500Y0093172D02*
X0123412Y0093172D01*
X0123412Y0092574D02*
X0129500Y0092574D01*
X0129500Y0091975D02*
X0123412Y0091975D01*
X0123412Y0090778D02*
X0129500Y0090778D01*
X0129500Y0090180D02*
X0123412Y0090180D01*
X0123412Y0089581D02*
X0129500Y0089581D01*
X0129500Y0088983D02*
X0123238Y0088983D01*
X0122479Y0088384D02*
X0129500Y0088384D01*
X0129500Y0091377D02*
X0120246Y0091377D01*
X0120246Y0091975D02*
X0119646Y0091975D01*
X0119646Y0092574D02*
X0120246Y0092574D01*
X0120246Y0093172D02*
X0119646Y0093172D01*
X0119646Y0093771D02*
X0120246Y0093771D01*
X0120246Y0094369D02*
X0119646Y0094369D01*
X0116743Y0094369D02*
X0116739Y0094369D01*
X0119646Y0090778D02*
X0120246Y0090778D01*
X0120246Y0090180D02*
X0119646Y0090180D01*
X0119646Y0089581D02*
X0120246Y0089581D01*
X0120246Y0088983D02*
X0119646Y0088983D01*
X0119646Y0088384D02*
X0120246Y0088384D01*
X0117413Y0088384D02*
X0116293Y0088384D01*
X0120299Y0114120D02*
X0107478Y0114120D01*
X0106880Y0114719D02*
X0119537Y0114719D01*
X0119113Y0115317D02*
X0105940Y0115317D01*
X0105947Y0127886D02*
X0107344Y0127886D01*
X0050658Y0173971D02*
X0048163Y0173971D01*
X0005704Y0169782D02*
X0003100Y0169782D01*
X0003100Y0170380D02*
X0005459Y0170380D01*
X0005457Y0170979D02*
X0003100Y0170979D01*
X0003100Y0171577D02*
X0005457Y0171577D01*
X0005457Y0172176D02*
X0003100Y0172176D01*
X0003100Y0172774D02*
X0005457Y0172774D01*
X0003100Y0045291D02*
X0029500Y0045291D01*
X0029500Y0044693D02*
X0003100Y0044693D01*
X0003100Y0044094D02*
X0029500Y0044094D01*
X0029500Y0043496D02*
X0003100Y0043496D01*
X0003100Y0042897D02*
X0029500Y0042897D01*
X0029500Y0042299D02*
X0003100Y0042299D01*
X0003100Y0041700D02*
X0029500Y0041700D01*
X0029500Y0041102D02*
X0003100Y0041102D01*
X0003100Y0040503D02*
X0029500Y0040503D01*
X0029500Y0039905D02*
X0003100Y0039905D01*
X0020400Y0021949D02*
X0024647Y0021949D01*
X0025181Y0021351D02*
X0020265Y0021351D01*
X0029095Y0011775D02*
X0029695Y0011775D01*
X0029695Y0011176D02*
X0029095Y0011176D01*
X0029095Y0010578D02*
X0029695Y0010578D01*
X0029695Y0009979D02*
X0029095Y0009979D01*
X0029095Y0009381D02*
X0029695Y0009381D01*
X0029695Y0007585D02*
X0029095Y0007585D01*
X0029095Y0006987D02*
X0029695Y0006987D01*
X0029695Y0006388D02*
X0029095Y0006388D01*
X0029095Y0005790D02*
X0029695Y0005790D01*
X0170562Y0169782D02*
X0172638Y0169782D01*
X0171924Y0169183D02*
X0171276Y0169183D01*
D27*
X0177899Y0161521D02*
X0177899Y0152801D01*
X0177899Y0151600D01*
X0177899Y0040301D01*
X0171600Y0038726D02*
X0168726Y0041600D01*
X0161600Y0041600D01*
X0171600Y0038726D02*
X0171600Y0076600D01*
X0166600Y0076600D01*
X0171600Y0076600D02*
X0171600Y0101600D01*
X0171600Y0123425D01*
X0170700Y0124325D01*
X0171600Y0101600D02*
X0159946Y0101600D01*
M02*
