G75*
%MOIN*%
%OFA0B0*%
%FSLAX25Y25*%
%IPPOS*%
%LPD*%
%AMOC8*
5,1,8,0,0,1.08239X$1,22.5*
%
%ADD10C,0.00000*%
%ADD11C,0.05000*%
%ADD12C,0.01200*%
%ADD13C,0.00500*%
D10*
X0001600Y0009474D02*
X0001600Y0190576D01*
X0001602Y0190766D01*
X0001609Y0190956D01*
X0001621Y0191146D01*
X0001637Y0191336D01*
X0001657Y0191525D01*
X0001683Y0191714D01*
X0001712Y0191902D01*
X0001747Y0192089D01*
X0001786Y0192275D01*
X0001829Y0192460D01*
X0001877Y0192645D01*
X0001929Y0192828D01*
X0001985Y0193009D01*
X0002046Y0193189D01*
X0002112Y0193368D01*
X0002181Y0193545D01*
X0002255Y0193721D01*
X0002333Y0193894D01*
X0002416Y0194066D01*
X0002502Y0194235D01*
X0002592Y0194403D01*
X0002687Y0194568D01*
X0002785Y0194731D01*
X0002888Y0194891D01*
X0002994Y0195049D01*
X0003104Y0195204D01*
X0003217Y0195357D01*
X0003335Y0195507D01*
X0003456Y0195653D01*
X0003580Y0195797D01*
X0003708Y0195938D01*
X0003839Y0196076D01*
X0003974Y0196211D01*
X0004112Y0196342D01*
X0004253Y0196470D01*
X0004397Y0196594D01*
X0004543Y0196715D01*
X0004693Y0196833D01*
X0004846Y0196946D01*
X0005001Y0197056D01*
X0005159Y0197162D01*
X0005319Y0197265D01*
X0005482Y0197363D01*
X0005647Y0197458D01*
X0005815Y0197548D01*
X0005984Y0197634D01*
X0006156Y0197717D01*
X0006329Y0197795D01*
X0006505Y0197869D01*
X0006682Y0197938D01*
X0006861Y0198004D01*
X0007041Y0198065D01*
X0007222Y0198121D01*
X0007405Y0198173D01*
X0007590Y0198221D01*
X0007775Y0198264D01*
X0007961Y0198303D01*
X0008148Y0198338D01*
X0008336Y0198367D01*
X0008525Y0198393D01*
X0008714Y0198413D01*
X0008904Y0198429D01*
X0009094Y0198441D01*
X0009284Y0198448D01*
X0009474Y0198450D01*
X0190576Y0198450D01*
X0190766Y0198448D01*
X0190956Y0198441D01*
X0191146Y0198429D01*
X0191336Y0198413D01*
X0191525Y0198393D01*
X0191714Y0198367D01*
X0191902Y0198338D01*
X0192089Y0198303D01*
X0192275Y0198264D01*
X0192460Y0198221D01*
X0192645Y0198173D01*
X0192828Y0198121D01*
X0193009Y0198065D01*
X0193189Y0198004D01*
X0193368Y0197938D01*
X0193545Y0197869D01*
X0193721Y0197795D01*
X0193894Y0197717D01*
X0194066Y0197634D01*
X0194235Y0197548D01*
X0194403Y0197458D01*
X0194568Y0197363D01*
X0194731Y0197265D01*
X0194891Y0197162D01*
X0195049Y0197056D01*
X0195204Y0196946D01*
X0195357Y0196833D01*
X0195507Y0196715D01*
X0195653Y0196594D01*
X0195797Y0196470D01*
X0195938Y0196342D01*
X0196076Y0196211D01*
X0196211Y0196076D01*
X0196342Y0195938D01*
X0196470Y0195797D01*
X0196594Y0195653D01*
X0196715Y0195507D01*
X0196833Y0195357D01*
X0196946Y0195204D01*
X0197056Y0195049D01*
X0197162Y0194891D01*
X0197265Y0194731D01*
X0197363Y0194568D01*
X0197458Y0194403D01*
X0197548Y0194235D01*
X0197634Y0194066D01*
X0197717Y0193894D01*
X0197795Y0193721D01*
X0197869Y0193545D01*
X0197938Y0193368D01*
X0198004Y0193189D01*
X0198065Y0193009D01*
X0198121Y0192828D01*
X0198173Y0192645D01*
X0198221Y0192460D01*
X0198264Y0192275D01*
X0198303Y0192089D01*
X0198338Y0191902D01*
X0198367Y0191714D01*
X0198393Y0191525D01*
X0198413Y0191336D01*
X0198429Y0191146D01*
X0198441Y0190956D01*
X0198448Y0190766D01*
X0198450Y0190576D01*
X0198450Y0009474D01*
X0198448Y0009284D01*
X0198441Y0009094D01*
X0198429Y0008904D01*
X0198413Y0008714D01*
X0198393Y0008525D01*
X0198367Y0008336D01*
X0198338Y0008148D01*
X0198303Y0007961D01*
X0198264Y0007775D01*
X0198221Y0007590D01*
X0198173Y0007405D01*
X0198121Y0007222D01*
X0198065Y0007041D01*
X0198004Y0006861D01*
X0197938Y0006682D01*
X0197869Y0006505D01*
X0197795Y0006329D01*
X0197717Y0006156D01*
X0197634Y0005984D01*
X0197548Y0005815D01*
X0197458Y0005647D01*
X0197363Y0005482D01*
X0197265Y0005319D01*
X0197162Y0005159D01*
X0197056Y0005001D01*
X0196946Y0004846D01*
X0196833Y0004693D01*
X0196715Y0004543D01*
X0196594Y0004397D01*
X0196470Y0004253D01*
X0196342Y0004112D01*
X0196211Y0003974D01*
X0196076Y0003839D01*
X0195938Y0003708D01*
X0195797Y0003580D01*
X0195653Y0003456D01*
X0195507Y0003335D01*
X0195357Y0003217D01*
X0195204Y0003104D01*
X0195049Y0002994D01*
X0194891Y0002888D01*
X0194731Y0002785D01*
X0194568Y0002687D01*
X0194403Y0002592D01*
X0194235Y0002502D01*
X0194066Y0002416D01*
X0193894Y0002333D01*
X0193721Y0002255D01*
X0193545Y0002181D01*
X0193368Y0002112D01*
X0193189Y0002046D01*
X0193009Y0001985D01*
X0192828Y0001929D01*
X0192645Y0001877D01*
X0192460Y0001829D01*
X0192275Y0001786D01*
X0192089Y0001747D01*
X0191902Y0001712D01*
X0191714Y0001683D01*
X0191525Y0001657D01*
X0191336Y0001637D01*
X0191146Y0001621D01*
X0190956Y0001609D01*
X0190766Y0001602D01*
X0190576Y0001600D01*
X0009474Y0001600D01*
X0009284Y0001602D01*
X0009094Y0001609D01*
X0008904Y0001621D01*
X0008714Y0001637D01*
X0008525Y0001657D01*
X0008336Y0001683D01*
X0008148Y0001712D01*
X0007961Y0001747D01*
X0007775Y0001786D01*
X0007590Y0001829D01*
X0007405Y0001877D01*
X0007222Y0001929D01*
X0007041Y0001985D01*
X0006861Y0002046D01*
X0006682Y0002112D01*
X0006505Y0002181D01*
X0006329Y0002255D01*
X0006156Y0002333D01*
X0005984Y0002416D01*
X0005815Y0002502D01*
X0005647Y0002592D01*
X0005482Y0002687D01*
X0005319Y0002785D01*
X0005159Y0002888D01*
X0005001Y0002994D01*
X0004846Y0003104D01*
X0004693Y0003217D01*
X0004543Y0003335D01*
X0004397Y0003456D01*
X0004253Y0003580D01*
X0004112Y0003708D01*
X0003974Y0003839D01*
X0003839Y0003974D01*
X0003708Y0004112D01*
X0003580Y0004253D01*
X0003456Y0004397D01*
X0003335Y0004543D01*
X0003217Y0004693D01*
X0003104Y0004846D01*
X0002994Y0005001D01*
X0002888Y0005159D01*
X0002785Y0005319D01*
X0002687Y0005482D01*
X0002592Y0005647D01*
X0002502Y0005815D01*
X0002416Y0005984D01*
X0002333Y0006156D01*
X0002255Y0006329D01*
X0002181Y0006505D01*
X0002112Y0006682D01*
X0002046Y0006861D01*
X0001985Y0007041D01*
X0001929Y0007222D01*
X0001877Y0007405D01*
X0001829Y0007590D01*
X0001786Y0007775D01*
X0001747Y0007961D01*
X0001712Y0008148D01*
X0001683Y0008336D01*
X0001657Y0008525D01*
X0001637Y0008714D01*
X0001621Y0008904D01*
X0001609Y0009094D01*
X0001602Y0009284D01*
X0001600Y0009474D01*
D11*
X0007600Y0021600D02*
X0007602Y0021663D01*
X0007608Y0021725D01*
X0007618Y0021787D01*
X0007631Y0021849D01*
X0007649Y0021909D01*
X0007670Y0021968D01*
X0007695Y0022026D01*
X0007724Y0022082D01*
X0007756Y0022136D01*
X0007791Y0022188D01*
X0007829Y0022237D01*
X0007871Y0022285D01*
X0007915Y0022329D01*
X0007963Y0022371D01*
X0008012Y0022409D01*
X0008064Y0022444D01*
X0008118Y0022476D01*
X0008174Y0022505D01*
X0008232Y0022530D01*
X0008291Y0022551D01*
X0008351Y0022569D01*
X0008413Y0022582D01*
X0008475Y0022592D01*
X0008537Y0022598D01*
X0008600Y0022600D01*
X0008663Y0022598D01*
X0008725Y0022592D01*
X0008787Y0022582D01*
X0008849Y0022569D01*
X0008909Y0022551D01*
X0008968Y0022530D01*
X0009026Y0022505D01*
X0009082Y0022476D01*
X0009136Y0022444D01*
X0009188Y0022409D01*
X0009237Y0022371D01*
X0009285Y0022329D01*
X0009329Y0022285D01*
X0009371Y0022237D01*
X0009409Y0022188D01*
X0009444Y0022136D01*
X0009476Y0022082D01*
X0009505Y0022026D01*
X0009530Y0021968D01*
X0009551Y0021909D01*
X0009569Y0021849D01*
X0009582Y0021787D01*
X0009592Y0021725D01*
X0009598Y0021663D01*
X0009600Y0021600D01*
X0009598Y0021537D01*
X0009592Y0021475D01*
X0009582Y0021413D01*
X0009569Y0021351D01*
X0009551Y0021291D01*
X0009530Y0021232D01*
X0009505Y0021174D01*
X0009476Y0021118D01*
X0009444Y0021064D01*
X0009409Y0021012D01*
X0009371Y0020963D01*
X0009329Y0020915D01*
X0009285Y0020871D01*
X0009237Y0020829D01*
X0009188Y0020791D01*
X0009136Y0020756D01*
X0009082Y0020724D01*
X0009026Y0020695D01*
X0008968Y0020670D01*
X0008909Y0020649D01*
X0008849Y0020631D01*
X0008787Y0020618D01*
X0008725Y0020608D01*
X0008663Y0020602D01*
X0008600Y0020600D01*
X0008537Y0020602D01*
X0008475Y0020608D01*
X0008413Y0020618D01*
X0008351Y0020631D01*
X0008291Y0020649D01*
X0008232Y0020670D01*
X0008174Y0020695D01*
X0008118Y0020724D01*
X0008064Y0020756D01*
X0008012Y0020791D01*
X0007963Y0020829D01*
X0007915Y0020871D01*
X0007871Y0020915D01*
X0007829Y0020963D01*
X0007791Y0021012D01*
X0007756Y0021064D01*
X0007724Y0021118D01*
X0007695Y0021174D01*
X0007670Y0021232D01*
X0007649Y0021291D01*
X0007631Y0021351D01*
X0007618Y0021413D01*
X0007608Y0021475D01*
X0007602Y0021537D01*
X0007600Y0021600D01*
X0022600Y0021600D02*
X0022602Y0021663D01*
X0022608Y0021725D01*
X0022618Y0021787D01*
X0022631Y0021849D01*
X0022649Y0021909D01*
X0022670Y0021968D01*
X0022695Y0022026D01*
X0022724Y0022082D01*
X0022756Y0022136D01*
X0022791Y0022188D01*
X0022829Y0022237D01*
X0022871Y0022285D01*
X0022915Y0022329D01*
X0022963Y0022371D01*
X0023012Y0022409D01*
X0023064Y0022444D01*
X0023118Y0022476D01*
X0023174Y0022505D01*
X0023232Y0022530D01*
X0023291Y0022551D01*
X0023351Y0022569D01*
X0023413Y0022582D01*
X0023475Y0022592D01*
X0023537Y0022598D01*
X0023600Y0022600D01*
X0023663Y0022598D01*
X0023725Y0022592D01*
X0023787Y0022582D01*
X0023849Y0022569D01*
X0023909Y0022551D01*
X0023968Y0022530D01*
X0024026Y0022505D01*
X0024082Y0022476D01*
X0024136Y0022444D01*
X0024188Y0022409D01*
X0024237Y0022371D01*
X0024285Y0022329D01*
X0024329Y0022285D01*
X0024371Y0022237D01*
X0024409Y0022188D01*
X0024444Y0022136D01*
X0024476Y0022082D01*
X0024505Y0022026D01*
X0024530Y0021968D01*
X0024551Y0021909D01*
X0024569Y0021849D01*
X0024582Y0021787D01*
X0024592Y0021725D01*
X0024598Y0021663D01*
X0024600Y0021600D01*
X0024598Y0021537D01*
X0024592Y0021475D01*
X0024582Y0021413D01*
X0024569Y0021351D01*
X0024551Y0021291D01*
X0024530Y0021232D01*
X0024505Y0021174D01*
X0024476Y0021118D01*
X0024444Y0021064D01*
X0024409Y0021012D01*
X0024371Y0020963D01*
X0024329Y0020915D01*
X0024285Y0020871D01*
X0024237Y0020829D01*
X0024188Y0020791D01*
X0024136Y0020756D01*
X0024082Y0020724D01*
X0024026Y0020695D01*
X0023968Y0020670D01*
X0023909Y0020649D01*
X0023849Y0020631D01*
X0023787Y0020618D01*
X0023725Y0020608D01*
X0023663Y0020602D01*
X0023600Y0020600D01*
X0023537Y0020602D01*
X0023475Y0020608D01*
X0023413Y0020618D01*
X0023351Y0020631D01*
X0023291Y0020649D01*
X0023232Y0020670D01*
X0023174Y0020695D01*
X0023118Y0020724D01*
X0023064Y0020756D01*
X0023012Y0020791D01*
X0022963Y0020829D01*
X0022915Y0020871D01*
X0022871Y0020915D01*
X0022829Y0020963D01*
X0022791Y0021012D01*
X0022756Y0021064D01*
X0022724Y0021118D01*
X0022695Y0021174D01*
X0022670Y0021232D01*
X0022649Y0021291D01*
X0022631Y0021351D01*
X0022618Y0021413D01*
X0022608Y0021475D01*
X0022602Y0021537D01*
X0022600Y0021600D01*
X0037600Y0021600D02*
X0037602Y0021663D01*
X0037608Y0021725D01*
X0037618Y0021787D01*
X0037631Y0021849D01*
X0037649Y0021909D01*
X0037670Y0021968D01*
X0037695Y0022026D01*
X0037724Y0022082D01*
X0037756Y0022136D01*
X0037791Y0022188D01*
X0037829Y0022237D01*
X0037871Y0022285D01*
X0037915Y0022329D01*
X0037963Y0022371D01*
X0038012Y0022409D01*
X0038064Y0022444D01*
X0038118Y0022476D01*
X0038174Y0022505D01*
X0038232Y0022530D01*
X0038291Y0022551D01*
X0038351Y0022569D01*
X0038413Y0022582D01*
X0038475Y0022592D01*
X0038537Y0022598D01*
X0038600Y0022600D01*
X0038663Y0022598D01*
X0038725Y0022592D01*
X0038787Y0022582D01*
X0038849Y0022569D01*
X0038909Y0022551D01*
X0038968Y0022530D01*
X0039026Y0022505D01*
X0039082Y0022476D01*
X0039136Y0022444D01*
X0039188Y0022409D01*
X0039237Y0022371D01*
X0039285Y0022329D01*
X0039329Y0022285D01*
X0039371Y0022237D01*
X0039409Y0022188D01*
X0039444Y0022136D01*
X0039476Y0022082D01*
X0039505Y0022026D01*
X0039530Y0021968D01*
X0039551Y0021909D01*
X0039569Y0021849D01*
X0039582Y0021787D01*
X0039592Y0021725D01*
X0039598Y0021663D01*
X0039600Y0021600D01*
X0039598Y0021537D01*
X0039592Y0021475D01*
X0039582Y0021413D01*
X0039569Y0021351D01*
X0039551Y0021291D01*
X0039530Y0021232D01*
X0039505Y0021174D01*
X0039476Y0021118D01*
X0039444Y0021064D01*
X0039409Y0021012D01*
X0039371Y0020963D01*
X0039329Y0020915D01*
X0039285Y0020871D01*
X0039237Y0020829D01*
X0039188Y0020791D01*
X0039136Y0020756D01*
X0039082Y0020724D01*
X0039026Y0020695D01*
X0038968Y0020670D01*
X0038909Y0020649D01*
X0038849Y0020631D01*
X0038787Y0020618D01*
X0038725Y0020608D01*
X0038663Y0020602D01*
X0038600Y0020600D01*
X0038537Y0020602D01*
X0038475Y0020608D01*
X0038413Y0020618D01*
X0038351Y0020631D01*
X0038291Y0020649D01*
X0038232Y0020670D01*
X0038174Y0020695D01*
X0038118Y0020724D01*
X0038064Y0020756D01*
X0038012Y0020791D01*
X0037963Y0020829D01*
X0037915Y0020871D01*
X0037871Y0020915D01*
X0037829Y0020963D01*
X0037791Y0021012D01*
X0037756Y0021064D01*
X0037724Y0021118D01*
X0037695Y0021174D01*
X0037670Y0021232D01*
X0037649Y0021291D01*
X0037631Y0021351D01*
X0037618Y0021413D01*
X0037608Y0021475D01*
X0037602Y0021537D01*
X0037600Y0021600D01*
X0052600Y0021600D02*
X0052602Y0021663D01*
X0052608Y0021725D01*
X0052618Y0021787D01*
X0052631Y0021849D01*
X0052649Y0021909D01*
X0052670Y0021968D01*
X0052695Y0022026D01*
X0052724Y0022082D01*
X0052756Y0022136D01*
X0052791Y0022188D01*
X0052829Y0022237D01*
X0052871Y0022285D01*
X0052915Y0022329D01*
X0052963Y0022371D01*
X0053012Y0022409D01*
X0053064Y0022444D01*
X0053118Y0022476D01*
X0053174Y0022505D01*
X0053232Y0022530D01*
X0053291Y0022551D01*
X0053351Y0022569D01*
X0053413Y0022582D01*
X0053475Y0022592D01*
X0053537Y0022598D01*
X0053600Y0022600D01*
X0053663Y0022598D01*
X0053725Y0022592D01*
X0053787Y0022582D01*
X0053849Y0022569D01*
X0053909Y0022551D01*
X0053968Y0022530D01*
X0054026Y0022505D01*
X0054082Y0022476D01*
X0054136Y0022444D01*
X0054188Y0022409D01*
X0054237Y0022371D01*
X0054285Y0022329D01*
X0054329Y0022285D01*
X0054371Y0022237D01*
X0054409Y0022188D01*
X0054444Y0022136D01*
X0054476Y0022082D01*
X0054505Y0022026D01*
X0054530Y0021968D01*
X0054551Y0021909D01*
X0054569Y0021849D01*
X0054582Y0021787D01*
X0054592Y0021725D01*
X0054598Y0021663D01*
X0054600Y0021600D01*
X0054598Y0021537D01*
X0054592Y0021475D01*
X0054582Y0021413D01*
X0054569Y0021351D01*
X0054551Y0021291D01*
X0054530Y0021232D01*
X0054505Y0021174D01*
X0054476Y0021118D01*
X0054444Y0021064D01*
X0054409Y0021012D01*
X0054371Y0020963D01*
X0054329Y0020915D01*
X0054285Y0020871D01*
X0054237Y0020829D01*
X0054188Y0020791D01*
X0054136Y0020756D01*
X0054082Y0020724D01*
X0054026Y0020695D01*
X0053968Y0020670D01*
X0053909Y0020649D01*
X0053849Y0020631D01*
X0053787Y0020618D01*
X0053725Y0020608D01*
X0053663Y0020602D01*
X0053600Y0020600D01*
X0053537Y0020602D01*
X0053475Y0020608D01*
X0053413Y0020618D01*
X0053351Y0020631D01*
X0053291Y0020649D01*
X0053232Y0020670D01*
X0053174Y0020695D01*
X0053118Y0020724D01*
X0053064Y0020756D01*
X0053012Y0020791D01*
X0052963Y0020829D01*
X0052915Y0020871D01*
X0052871Y0020915D01*
X0052829Y0020963D01*
X0052791Y0021012D01*
X0052756Y0021064D01*
X0052724Y0021118D01*
X0052695Y0021174D01*
X0052670Y0021232D01*
X0052649Y0021291D01*
X0052631Y0021351D01*
X0052618Y0021413D01*
X0052608Y0021475D01*
X0052602Y0021537D01*
X0052600Y0021600D01*
X0067600Y0021600D02*
X0067602Y0021663D01*
X0067608Y0021725D01*
X0067618Y0021787D01*
X0067631Y0021849D01*
X0067649Y0021909D01*
X0067670Y0021968D01*
X0067695Y0022026D01*
X0067724Y0022082D01*
X0067756Y0022136D01*
X0067791Y0022188D01*
X0067829Y0022237D01*
X0067871Y0022285D01*
X0067915Y0022329D01*
X0067963Y0022371D01*
X0068012Y0022409D01*
X0068064Y0022444D01*
X0068118Y0022476D01*
X0068174Y0022505D01*
X0068232Y0022530D01*
X0068291Y0022551D01*
X0068351Y0022569D01*
X0068413Y0022582D01*
X0068475Y0022592D01*
X0068537Y0022598D01*
X0068600Y0022600D01*
X0068663Y0022598D01*
X0068725Y0022592D01*
X0068787Y0022582D01*
X0068849Y0022569D01*
X0068909Y0022551D01*
X0068968Y0022530D01*
X0069026Y0022505D01*
X0069082Y0022476D01*
X0069136Y0022444D01*
X0069188Y0022409D01*
X0069237Y0022371D01*
X0069285Y0022329D01*
X0069329Y0022285D01*
X0069371Y0022237D01*
X0069409Y0022188D01*
X0069444Y0022136D01*
X0069476Y0022082D01*
X0069505Y0022026D01*
X0069530Y0021968D01*
X0069551Y0021909D01*
X0069569Y0021849D01*
X0069582Y0021787D01*
X0069592Y0021725D01*
X0069598Y0021663D01*
X0069600Y0021600D01*
X0069598Y0021537D01*
X0069592Y0021475D01*
X0069582Y0021413D01*
X0069569Y0021351D01*
X0069551Y0021291D01*
X0069530Y0021232D01*
X0069505Y0021174D01*
X0069476Y0021118D01*
X0069444Y0021064D01*
X0069409Y0021012D01*
X0069371Y0020963D01*
X0069329Y0020915D01*
X0069285Y0020871D01*
X0069237Y0020829D01*
X0069188Y0020791D01*
X0069136Y0020756D01*
X0069082Y0020724D01*
X0069026Y0020695D01*
X0068968Y0020670D01*
X0068909Y0020649D01*
X0068849Y0020631D01*
X0068787Y0020618D01*
X0068725Y0020608D01*
X0068663Y0020602D01*
X0068600Y0020600D01*
X0068537Y0020602D01*
X0068475Y0020608D01*
X0068413Y0020618D01*
X0068351Y0020631D01*
X0068291Y0020649D01*
X0068232Y0020670D01*
X0068174Y0020695D01*
X0068118Y0020724D01*
X0068064Y0020756D01*
X0068012Y0020791D01*
X0067963Y0020829D01*
X0067915Y0020871D01*
X0067871Y0020915D01*
X0067829Y0020963D01*
X0067791Y0021012D01*
X0067756Y0021064D01*
X0067724Y0021118D01*
X0067695Y0021174D01*
X0067670Y0021232D01*
X0067649Y0021291D01*
X0067631Y0021351D01*
X0067618Y0021413D01*
X0067608Y0021475D01*
X0067602Y0021537D01*
X0067600Y0021600D01*
X0082600Y0021600D02*
X0082602Y0021663D01*
X0082608Y0021725D01*
X0082618Y0021787D01*
X0082631Y0021849D01*
X0082649Y0021909D01*
X0082670Y0021968D01*
X0082695Y0022026D01*
X0082724Y0022082D01*
X0082756Y0022136D01*
X0082791Y0022188D01*
X0082829Y0022237D01*
X0082871Y0022285D01*
X0082915Y0022329D01*
X0082963Y0022371D01*
X0083012Y0022409D01*
X0083064Y0022444D01*
X0083118Y0022476D01*
X0083174Y0022505D01*
X0083232Y0022530D01*
X0083291Y0022551D01*
X0083351Y0022569D01*
X0083413Y0022582D01*
X0083475Y0022592D01*
X0083537Y0022598D01*
X0083600Y0022600D01*
X0083663Y0022598D01*
X0083725Y0022592D01*
X0083787Y0022582D01*
X0083849Y0022569D01*
X0083909Y0022551D01*
X0083968Y0022530D01*
X0084026Y0022505D01*
X0084082Y0022476D01*
X0084136Y0022444D01*
X0084188Y0022409D01*
X0084237Y0022371D01*
X0084285Y0022329D01*
X0084329Y0022285D01*
X0084371Y0022237D01*
X0084409Y0022188D01*
X0084444Y0022136D01*
X0084476Y0022082D01*
X0084505Y0022026D01*
X0084530Y0021968D01*
X0084551Y0021909D01*
X0084569Y0021849D01*
X0084582Y0021787D01*
X0084592Y0021725D01*
X0084598Y0021663D01*
X0084600Y0021600D01*
X0084598Y0021537D01*
X0084592Y0021475D01*
X0084582Y0021413D01*
X0084569Y0021351D01*
X0084551Y0021291D01*
X0084530Y0021232D01*
X0084505Y0021174D01*
X0084476Y0021118D01*
X0084444Y0021064D01*
X0084409Y0021012D01*
X0084371Y0020963D01*
X0084329Y0020915D01*
X0084285Y0020871D01*
X0084237Y0020829D01*
X0084188Y0020791D01*
X0084136Y0020756D01*
X0084082Y0020724D01*
X0084026Y0020695D01*
X0083968Y0020670D01*
X0083909Y0020649D01*
X0083849Y0020631D01*
X0083787Y0020618D01*
X0083725Y0020608D01*
X0083663Y0020602D01*
X0083600Y0020600D01*
X0083537Y0020602D01*
X0083475Y0020608D01*
X0083413Y0020618D01*
X0083351Y0020631D01*
X0083291Y0020649D01*
X0083232Y0020670D01*
X0083174Y0020695D01*
X0083118Y0020724D01*
X0083064Y0020756D01*
X0083012Y0020791D01*
X0082963Y0020829D01*
X0082915Y0020871D01*
X0082871Y0020915D01*
X0082829Y0020963D01*
X0082791Y0021012D01*
X0082756Y0021064D01*
X0082724Y0021118D01*
X0082695Y0021174D01*
X0082670Y0021232D01*
X0082649Y0021291D01*
X0082631Y0021351D01*
X0082618Y0021413D01*
X0082608Y0021475D01*
X0082602Y0021537D01*
X0082600Y0021600D01*
X0097600Y0021600D02*
X0097602Y0021663D01*
X0097608Y0021725D01*
X0097618Y0021787D01*
X0097631Y0021849D01*
X0097649Y0021909D01*
X0097670Y0021968D01*
X0097695Y0022026D01*
X0097724Y0022082D01*
X0097756Y0022136D01*
X0097791Y0022188D01*
X0097829Y0022237D01*
X0097871Y0022285D01*
X0097915Y0022329D01*
X0097963Y0022371D01*
X0098012Y0022409D01*
X0098064Y0022444D01*
X0098118Y0022476D01*
X0098174Y0022505D01*
X0098232Y0022530D01*
X0098291Y0022551D01*
X0098351Y0022569D01*
X0098413Y0022582D01*
X0098475Y0022592D01*
X0098537Y0022598D01*
X0098600Y0022600D01*
X0098663Y0022598D01*
X0098725Y0022592D01*
X0098787Y0022582D01*
X0098849Y0022569D01*
X0098909Y0022551D01*
X0098968Y0022530D01*
X0099026Y0022505D01*
X0099082Y0022476D01*
X0099136Y0022444D01*
X0099188Y0022409D01*
X0099237Y0022371D01*
X0099285Y0022329D01*
X0099329Y0022285D01*
X0099371Y0022237D01*
X0099409Y0022188D01*
X0099444Y0022136D01*
X0099476Y0022082D01*
X0099505Y0022026D01*
X0099530Y0021968D01*
X0099551Y0021909D01*
X0099569Y0021849D01*
X0099582Y0021787D01*
X0099592Y0021725D01*
X0099598Y0021663D01*
X0099600Y0021600D01*
X0099598Y0021537D01*
X0099592Y0021475D01*
X0099582Y0021413D01*
X0099569Y0021351D01*
X0099551Y0021291D01*
X0099530Y0021232D01*
X0099505Y0021174D01*
X0099476Y0021118D01*
X0099444Y0021064D01*
X0099409Y0021012D01*
X0099371Y0020963D01*
X0099329Y0020915D01*
X0099285Y0020871D01*
X0099237Y0020829D01*
X0099188Y0020791D01*
X0099136Y0020756D01*
X0099082Y0020724D01*
X0099026Y0020695D01*
X0098968Y0020670D01*
X0098909Y0020649D01*
X0098849Y0020631D01*
X0098787Y0020618D01*
X0098725Y0020608D01*
X0098663Y0020602D01*
X0098600Y0020600D01*
X0098537Y0020602D01*
X0098475Y0020608D01*
X0098413Y0020618D01*
X0098351Y0020631D01*
X0098291Y0020649D01*
X0098232Y0020670D01*
X0098174Y0020695D01*
X0098118Y0020724D01*
X0098064Y0020756D01*
X0098012Y0020791D01*
X0097963Y0020829D01*
X0097915Y0020871D01*
X0097871Y0020915D01*
X0097829Y0020963D01*
X0097791Y0021012D01*
X0097756Y0021064D01*
X0097724Y0021118D01*
X0097695Y0021174D01*
X0097670Y0021232D01*
X0097649Y0021291D01*
X0097631Y0021351D01*
X0097618Y0021413D01*
X0097608Y0021475D01*
X0097602Y0021537D01*
X0097600Y0021600D01*
X0112600Y0021600D02*
X0112602Y0021663D01*
X0112608Y0021725D01*
X0112618Y0021787D01*
X0112631Y0021849D01*
X0112649Y0021909D01*
X0112670Y0021968D01*
X0112695Y0022026D01*
X0112724Y0022082D01*
X0112756Y0022136D01*
X0112791Y0022188D01*
X0112829Y0022237D01*
X0112871Y0022285D01*
X0112915Y0022329D01*
X0112963Y0022371D01*
X0113012Y0022409D01*
X0113064Y0022444D01*
X0113118Y0022476D01*
X0113174Y0022505D01*
X0113232Y0022530D01*
X0113291Y0022551D01*
X0113351Y0022569D01*
X0113413Y0022582D01*
X0113475Y0022592D01*
X0113537Y0022598D01*
X0113600Y0022600D01*
X0113663Y0022598D01*
X0113725Y0022592D01*
X0113787Y0022582D01*
X0113849Y0022569D01*
X0113909Y0022551D01*
X0113968Y0022530D01*
X0114026Y0022505D01*
X0114082Y0022476D01*
X0114136Y0022444D01*
X0114188Y0022409D01*
X0114237Y0022371D01*
X0114285Y0022329D01*
X0114329Y0022285D01*
X0114371Y0022237D01*
X0114409Y0022188D01*
X0114444Y0022136D01*
X0114476Y0022082D01*
X0114505Y0022026D01*
X0114530Y0021968D01*
X0114551Y0021909D01*
X0114569Y0021849D01*
X0114582Y0021787D01*
X0114592Y0021725D01*
X0114598Y0021663D01*
X0114600Y0021600D01*
X0114598Y0021537D01*
X0114592Y0021475D01*
X0114582Y0021413D01*
X0114569Y0021351D01*
X0114551Y0021291D01*
X0114530Y0021232D01*
X0114505Y0021174D01*
X0114476Y0021118D01*
X0114444Y0021064D01*
X0114409Y0021012D01*
X0114371Y0020963D01*
X0114329Y0020915D01*
X0114285Y0020871D01*
X0114237Y0020829D01*
X0114188Y0020791D01*
X0114136Y0020756D01*
X0114082Y0020724D01*
X0114026Y0020695D01*
X0113968Y0020670D01*
X0113909Y0020649D01*
X0113849Y0020631D01*
X0113787Y0020618D01*
X0113725Y0020608D01*
X0113663Y0020602D01*
X0113600Y0020600D01*
X0113537Y0020602D01*
X0113475Y0020608D01*
X0113413Y0020618D01*
X0113351Y0020631D01*
X0113291Y0020649D01*
X0113232Y0020670D01*
X0113174Y0020695D01*
X0113118Y0020724D01*
X0113064Y0020756D01*
X0113012Y0020791D01*
X0112963Y0020829D01*
X0112915Y0020871D01*
X0112871Y0020915D01*
X0112829Y0020963D01*
X0112791Y0021012D01*
X0112756Y0021064D01*
X0112724Y0021118D01*
X0112695Y0021174D01*
X0112670Y0021232D01*
X0112649Y0021291D01*
X0112631Y0021351D01*
X0112618Y0021413D01*
X0112608Y0021475D01*
X0112602Y0021537D01*
X0112600Y0021600D01*
X0127600Y0021600D02*
X0127602Y0021663D01*
X0127608Y0021725D01*
X0127618Y0021787D01*
X0127631Y0021849D01*
X0127649Y0021909D01*
X0127670Y0021968D01*
X0127695Y0022026D01*
X0127724Y0022082D01*
X0127756Y0022136D01*
X0127791Y0022188D01*
X0127829Y0022237D01*
X0127871Y0022285D01*
X0127915Y0022329D01*
X0127963Y0022371D01*
X0128012Y0022409D01*
X0128064Y0022444D01*
X0128118Y0022476D01*
X0128174Y0022505D01*
X0128232Y0022530D01*
X0128291Y0022551D01*
X0128351Y0022569D01*
X0128413Y0022582D01*
X0128475Y0022592D01*
X0128537Y0022598D01*
X0128600Y0022600D01*
X0128663Y0022598D01*
X0128725Y0022592D01*
X0128787Y0022582D01*
X0128849Y0022569D01*
X0128909Y0022551D01*
X0128968Y0022530D01*
X0129026Y0022505D01*
X0129082Y0022476D01*
X0129136Y0022444D01*
X0129188Y0022409D01*
X0129237Y0022371D01*
X0129285Y0022329D01*
X0129329Y0022285D01*
X0129371Y0022237D01*
X0129409Y0022188D01*
X0129444Y0022136D01*
X0129476Y0022082D01*
X0129505Y0022026D01*
X0129530Y0021968D01*
X0129551Y0021909D01*
X0129569Y0021849D01*
X0129582Y0021787D01*
X0129592Y0021725D01*
X0129598Y0021663D01*
X0129600Y0021600D01*
X0129598Y0021537D01*
X0129592Y0021475D01*
X0129582Y0021413D01*
X0129569Y0021351D01*
X0129551Y0021291D01*
X0129530Y0021232D01*
X0129505Y0021174D01*
X0129476Y0021118D01*
X0129444Y0021064D01*
X0129409Y0021012D01*
X0129371Y0020963D01*
X0129329Y0020915D01*
X0129285Y0020871D01*
X0129237Y0020829D01*
X0129188Y0020791D01*
X0129136Y0020756D01*
X0129082Y0020724D01*
X0129026Y0020695D01*
X0128968Y0020670D01*
X0128909Y0020649D01*
X0128849Y0020631D01*
X0128787Y0020618D01*
X0128725Y0020608D01*
X0128663Y0020602D01*
X0128600Y0020600D01*
X0128537Y0020602D01*
X0128475Y0020608D01*
X0128413Y0020618D01*
X0128351Y0020631D01*
X0128291Y0020649D01*
X0128232Y0020670D01*
X0128174Y0020695D01*
X0128118Y0020724D01*
X0128064Y0020756D01*
X0128012Y0020791D01*
X0127963Y0020829D01*
X0127915Y0020871D01*
X0127871Y0020915D01*
X0127829Y0020963D01*
X0127791Y0021012D01*
X0127756Y0021064D01*
X0127724Y0021118D01*
X0127695Y0021174D01*
X0127670Y0021232D01*
X0127649Y0021291D01*
X0127631Y0021351D01*
X0127618Y0021413D01*
X0127608Y0021475D01*
X0127602Y0021537D01*
X0127600Y0021600D01*
X0142600Y0021600D02*
X0142602Y0021663D01*
X0142608Y0021725D01*
X0142618Y0021787D01*
X0142631Y0021849D01*
X0142649Y0021909D01*
X0142670Y0021968D01*
X0142695Y0022026D01*
X0142724Y0022082D01*
X0142756Y0022136D01*
X0142791Y0022188D01*
X0142829Y0022237D01*
X0142871Y0022285D01*
X0142915Y0022329D01*
X0142963Y0022371D01*
X0143012Y0022409D01*
X0143064Y0022444D01*
X0143118Y0022476D01*
X0143174Y0022505D01*
X0143232Y0022530D01*
X0143291Y0022551D01*
X0143351Y0022569D01*
X0143413Y0022582D01*
X0143475Y0022592D01*
X0143537Y0022598D01*
X0143600Y0022600D01*
X0143663Y0022598D01*
X0143725Y0022592D01*
X0143787Y0022582D01*
X0143849Y0022569D01*
X0143909Y0022551D01*
X0143968Y0022530D01*
X0144026Y0022505D01*
X0144082Y0022476D01*
X0144136Y0022444D01*
X0144188Y0022409D01*
X0144237Y0022371D01*
X0144285Y0022329D01*
X0144329Y0022285D01*
X0144371Y0022237D01*
X0144409Y0022188D01*
X0144444Y0022136D01*
X0144476Y0022082D01*
X0144505Y0022026D01*
X0144530Y0021968D01*
X0144551Y0021909D01*
X0144569Y0021849D01*
X0144582Y0021787D01*
X0144592Y0021725D01*
X0144598Y0021663D01*
X0144600Y0021600D01*
X0144598Y0021537D01*
X0144592Y0021475D01*
X0144582Y0021413D01*
X0144569Y0021351D01*
X0144551Y0021291D01*
X0144530Y0021232D01*
X0144505Y0021174D01*
X0144476Y0021118D01*
X0144444Y0021064D01*
X0144409Y0021012D01*
X0144371Y0020963D01*
X0144329Y0020915D01*
X0144285Y0020871D01*
X0144237Y0020829D01*
X0144188Y0020791D01*
X0144136Y0020756D01*
X0144082Y0020724D01*
X0144026Y0020695D01*
X0143968Y0020670D01*
X0143909Y0020649D01*
X0143849Y0020631D01*
X0143787Y0020618D01*
X0143725Y0020608D01*
X0143663Y0020602D01*
X0143600Y0020600D01*
X0143537Y0020602D01*
X0143475Y0020608D01*
X0143413Y0020618D01*
X0143351Y0020631D01*
X0143291Y0020649D01*
X0143232Y0020670D01*
X0143174Y0020695D01*
X0143118Y0020724D01*
X0143064Y0020756D01*
X0143012Y0020791D01*
X0142963Y0020829D01*
X0142915Y0020871D01*
X0142871Y0020915D01*
X0142829Y0020963D01*
X0142791Y0021012D01*
X0142756Y0021064D01*
X0142724Y0021118D01*
X0142695Y0021174D01*
X0142670Y0021232D01*
X0142649Y0021291D01*
X0142631Y0021351D01*
X0142618Y0021413D01*
X0142608Y0021475D01*
X0142602Y0021537D01*
X0142600Y0021600D01*
D12*
X0154600Y0011600D02*
X0165100Y0023100D01*
X0155100Y0033600D01*
X0155377Y0033827D01*
X0155661Y0034047D01*
X0155949Y0034260D01*
X0156243Y0034467D01*
X0156541Y0034666D01*
X0156845Y0034857D01*
X0157153Y0035041D01*
X0157465Y0035218D01*
X0157782Y0035386D01*
X0158103Y0035547D01*
X0158427Y0035700D01*
X0158756Y0035845D01*
X0159087Y0035982D01*
X0159422Y0036111D01*
X0159760Y0036232D01*
X0160101Y0036344D01*
X0160445Y0036448D01*
X0160791Y0036543D01*
X0161139Y0036630D01*
X0161489Y0036708D01*
X0161841Y0036778D01*
X0162195Y0036839D01*
X0162550Y0036891D01*
X0162906Y0036935D01*
X0163263Y0036970D01*
X0163621Y0036996D01*
X0163979Y0037013D01*
X0164338Y0037022D01*
X0164697Y0037022D01*
X0165056Y0037013D01*
X0165414Y0036995D01*
X0165772Y0036968D01*
X0166129Y0036933D01*
X0166485Y0036889D01*
X0166840Y0036836D01*
X0167194Y0036775D01*
X0167545Y0036705D01*
X0167896Y0036626D01*
X0168244Y0036539D01*
X0168589Y0036443D01*
X0168933Y0036339D01*
X0169274Y0036226D01*
X0169611Y0036105D01*
X0169946Y0035976D01*
X0170278Y0035839D01*
X0170606Y0035693D01*
X0170930Y0035540D01*
X0171251Y0035379D01*
X0171567Y0035210D01*
X0171880Y0035033D01*
X0172187Y0034848D01*
X0172491Y0034656D01*
X0172789Y0034457D01*
X0173082Y0034251D01*
X0173371Y0034037D01*
X0173654Y0033816D01*
X0173931Y0033589D01*
X0174203Y0033355D01*
X0174469Y0033114D01*
X0174729Y0032866D01*
X0174983Y0032613D01*
X0175231Y0032353D01*
X0175472Y0032087D01*
X0175706Y0031816D01*
X0175934Y0031539D01*
X0176155Y0031256D01*
X0176369Y0030968D01*
X0176576Y0030675D01*
X0176776Y0030376D01*
X0176968Y0030073D01*
X0177153Y0029766D01*
X0177330Y0029454D01*
X0177500Y0029138D01*
X0177661Y0028817D01*
X0177815Y0028493D01*
X0177961Y0028165D01*
X0178099Y0027834D01*
X0178228Y0027499D01*
X0178349Y0027161D01*
X0178462Y0026821D01*
X0178567Y0026477D01*
X0178663Y0026132D01*
X0178751Y0025784D01*
X0178830Y0025434D01*
X0178901Y0025082D01*
X0178962Y0024728D01*
X0179016Y0024374D01*
X0179060Y0024018D01*
X0179096Y0023660D01*
X0179123Y0023303D01*
X0179141Y0022944D01*
X0179151Y0022586D01*
X0179151Y0022227D01*
X0179143Y0021868D01*
X0179126Y0021509D01*
X0179100Y0021152D01*
X0179066Y0020794D01*
X0179023Y0020438D01*
X0178971Y0020083D01*
X0178910Y0019729D01*
X0178841Y0019377D01*
X0178763Y0019027D01*
X0178677Y0018679D01*
X0178582Y0018333D01*
X0178478Y0017989D01*
X0178366Y0017648D01*
X0178246Y0017310D01*
X0178118Y0016975D01*
X0177981Y0016643D01*
X0177837Y0016315D01*
X0177684Y0015990D01*
X0177524Y0015669D01*
X0177355Y0015352D01*
X0177179Y0015039D01*
X0176995Y0014731D01*
X0176804Y0014427D01*
X0176606Y0014128D01*
X0176400Y0013834D01*
X0176187Y0013546D01*
X0175967Y0013262D01*
X0175740Y0012984D01*
X0175506Y0012712D01*
X0175266Y0012445D01*
X0175019Y0012185D01*
X0174767Y0011930D01*
X0174507Y0011682D01*
X0174242Y0011440D01*
X0173971Y0011205D01*
X0173695Y0010976D01*
X0173412Y0010755D01*
X0173125Y0010540D01*
X0172832Y0010332D01*
X0172534Y0010132D01*
X0172232Y0009939D01*
X0171925Y0009754D01*
X0171613Y0009576D01*
X0171297Y0009405D01*
X0170977Y0009243D01*
X0170653Y0009088D01*
X0170326Y0008942D01*
X0169995Y0008803D01*
X0169660Y0008673D01*
X0169323Y0008551D01*
X0168983Y0008437D01*
X0168640Y0008332D01*
X0168294Y0008235D01*
X0167946Y0008146D01*
X0167597Y0008066D01*
X0167245Y0007995D01*
X0166892Y0007932D01*
X0166537Y0007878D01*
X0166181Y0007833D01*
X0165824Y0007796D01*
X0165466Y0007768D01*
X0165108Y0007749D01*
X0164749Y0007739D01*
X0164390Y0007737D01*
X0164031Y0007745D01*
X0163673Y0007761D01*
X0163315Y0007786D01*
X0162958Y0007819D01*
X0162601Y0007862D01*
X0162246Y0007913D01*
X0161892Y0007973D01*
X0161540Y0008041D01*
X0161190Y0008118D01*
X0160841Y0008204D01*
X0160495Y0008298D01*
X0160151Y0008401D01*
X0159810Y0008512D01*
X0159471Y0008631D01*
X0159136Y0008758D01*
X0158804Y0008894D01*
X0158475Y0009038D01*
X0158150Y0009190D01*
X0157829Y0009350D01*
X0157511Y0009517D01*
X0157198Y0009693D01*
X0156889Y0009876D01*
X0156585Y0010066D01*
X0156286Y0010264D01*
X0155992Y0010469D01*
X0155702Y0010681D01*
X0155418Y0010901D01*
X0155140Y0011127D01*
X0154867Y0011360D01*
X0154600Y0011599D01*
D13*
X0156246Y0160931D02*
X0156246Y0196364D01*
X0186954Y0196364D01*
X0186954Y0160931D01*
X0156246Y0160931D01*
X0168647Y0174710D02*
X0166679Y0194395D01*
X0163726Y0194395D02*
X0165694Y0176679D01*
X0168647Y0174710D02*
X0174553Y0174710D01*
X0176521Y0194395D01*
X0179474Y0194395D02*
X0177506Y0178647D01*
X0185380Y0178647D02*
X0183411Y0194395D01*
X0179474Y0194395D01*
X0163726Y0194395D02*
X0159789Y0194395D01*
X0157820Y0176679D01*
M02*
